<?xml version="1.0" encoding="UTF-8"?><svg id="Layer_1" xmlns="http://www.w3.org/2000/svg" viewBox="0 0 40 40"><defs><style>.cls-1{fill:none;}.cls-1,.cls-2{stroke-width:0px;}.cls-2{fill:#fff;}</style></defs><rect class="cls-1" width="40" height="40"/><path class="cls-2" d="M25.95732,24.28261c1.88354.53906,4.08879-.39203,5.14946-2.1509.44207-.73307.65155-1.53009.6519-2.37544.00027-.65209-.06037-1.30402-.08312-1.9564-.00734-.21061-.0923-.27327-.29859-.26278-1.83553.09329-3.38815.80541-4.64847,2.13528-.95548,1.0082-1.52946,2.21149-1.73903,3.58522-.02534.16611-.06917.32172-.27163.28918-.20039-.03221-.22065-.20171-.16888-.35914.16189-.49225.04504-.86851-.27353-1.30503-1.24506-1.70604-1.07626-4.06784.33359-5.64212.26802-.29927.50956-.33161.85256-.11415.86955.55129,1.40466,1.41728,1.58661,2.59799.0778-.05683.14173-.10193.20397-.14924,1.21279-.92191,2.5822-1.41271,4.10278-1.48338.49801-.02314.68547.12222.75281.61732.15075,1.1083.21531,2.22702-.07181,3.31594-.74306,2.81815-3.61787,4.43711-6.41741,3.64166-.18236-.05182-.31667-.02484-.47761.05825-.39166.2022-.7953.38124-1.19421.56942-.14558.06867-.29216.08804-.36765-.08585-.07694-.17723.04677-.26332.19301-.32308,2.19791-.89825,3.90401-2.36888,5.12874-4.3994.07946-.13175.17101-.25533.34291-.15598.18266.10556.12098.24872.03592.39264-.79392,1.34336-1.82886,2.46438-3.10293,3.36564-.0624.04414-.12532.08758-.18636.13353-.01167.00879-.01564.02779-.03303.06081ZM24.82653,21.90273c.31298-.55536.47859-1.11585.40473-1.7267-.07417-.61346-.15592-1.22601-.23709-1.8386-.02088-.15762-.04936-.32691.15781-.3678.20613-.04068.25665.12333.2846.27973.06111.34193.12314.68405.1694,1.02816.03944.29342.05736.58973.08614.89911.2948-.33906.57131-.64823.83502-.96794.05234-.06345.08167-.16863.07747-.25236-.05122-1.02301-.49548-1.83155-1.33444-2.426-.1571-.11131-.2543-.09566-.37786.05239-.81261.97365-1.14415,2.08627-.96106,3.3394.10728.73426.40447,1.39267.89526,1.98061Z"/><path class="cls-2" d="M27.55578,28.12727c-2.00766.00002-4.01556-.01486-6.02272.01674-.28726.00452-.64575.16208-.84515.36972-3.15813,3.28875-7.91112,4.27554-12.05227,2.47526-4.1658-1.81099-6.80562-6.00313-6.42656-10.53753.37565-4.49362,2.73041-7.71549,6.96165-9.28699,4.26238-1.58307,8.11619-.6149,11.37689,2.55516.37331.36293.71616.49908,1.21631.49692,3.88141-.0168,7.76291-.01012,11.64439-.00882,1.40868.00047,1.97795.57417,1.9785,1.99296.0013,3.32087.00155,6.64175-.00013,9.96262-.00069,1.37173-.58426,1.96163-1.94179,1.96332-1.96305.00244-3.92609.00062-5.88914.00065ZM24.66749,15.28204c-1.14416,0-2.19073-.00073-3.23731.00021-.97964.00088-1.04157.05981-1.04184,1.01025-.00092,3.25382-.00099,6.50765.00005,9.76147.0003.9247.07212.99776.98723.99805,3.6582.00116,7.3164.00443,10.97459-.00099,2.20503-.00327,1.95563.24365,1.9599-1.96337.00579-2.98638-.00001-5.97277.00315-8.95915.0004-.37398-.00804-.80302-.47348-.81865-1.25919-.04228-2.52074-.01448-3.82947-.01448M16.15414,20.60183c-.15519-1.46078-.30164-2.83929-.44676-4.20532h-5.65635c-.14141,1.41289-.27927,2.79038-.42088,4.20532h6.52399ZM16.14996,21.75525h-6.53015c.15282,1.43843.29925,2.81668.4444,4.18292h5.64886c.14612-1.39901.28855-2.76262.43689-4.18292ZM8.97394,16.35365c-1.39048,0-2.76808-.01242-4.14482.01643-.16377.00343-.38669.1982-.47382.36186-.63453,1.19191-.99267,2.46604-1.06818,3.85873h5.25344c.14469-1.4146.28615-2.79764.43337-4.23703ZM8.97421,25.98086c-.14993-1.45537-.29404-2.85427-.43656-4.23772H3.28748c.07437,1.39219.4331,2.66614,1.06719,3.85825.08717.16388.30955.35956.47307.36299,1.37676.02893,2.7544.01648,4.14647.01648ZM15.36881,15.24663c-.32383-1.16178-.6905-2.24989-1.4693-3.13977-.66797-.76325-1.36631-.7635-2.03087.00473-.77194.89235-1.15916,1.9714-1.45322,3.13504h4.95339ZM15.35799,27.08907h-4.94328c.29092,1.12876.66178,2.17194,1.38093,3.05165.71073.86941,1.4623.87387,2.17138.01012.72051-.87768,1.09678-1.91917,1.39097-3.06177ZM19.26257,20.59537v-4.19002h-2.46056c.14554,1.41933.28585,2.78755.42966,4.19002h2.0309ZM19.26111,25.95594v-4.2155h-2.03016c-.14501,1.41996-.28633,2.80386-.43049,4.2155h2.46065ZM10.57009,11.82274c-2.11253.56474-3.83626,1.64889-5.2514,3.41646h3.8667c.47057-1.16104.91799-2.26496,1.3847-3.41646ZM5.28217,27.07256c1.47547,1.78012,3.18052,2.90266,5.2802,3.42389-.46769-1.15821-.92062-2.27984-1.38259-3.42389h-3.8976ZM15.19947,30.51538c1.82699-.46545,3.37242-1.35952,4.74354-2.80813-.30821-.23277-.56955-.59241-.86338-.62122-.83504-.08187-1.68334-.02871-2.4819-.02871-.47225,1.16795-.92646,2.29125-1.39825,3.45806ZM15.20182,11.8211c.47294,1.17013.92673,2.29289,1.39707,3.45661.62738,0,1.29634-.04212,1.95737.01215.62843.0516,1.06629-.11457,1.2747-.78183-1.26495-1.33218-2.80782-2.22842-4.62914-2.68694ZM28.92005,15.3216h-3.12872"/><path class="cls-2" d="M27.89908,11.32451v-1.36316h-14.43331v-1.06765h15.4613c.02017.20207.03942.39498.06765.67789,1.168-.58148,2.29629-1.1432,3.58013-1.78235-1.24821-.62458-2.38102-1.19142-3.5705-1.78661-.03098.26846-.05296.45884-.07879.68268h-11.18328v-1.0062h10.10937v-1.4515c2.40045,1.19782,4.69339,2.34199,7.13017,3.55793-2.4242,1.21128-4.71631,2.35657-7.08274,3.53899Z"/><path class="cls-2" d="M19.81137,35.2658c.02671-.28422.04478-.47644.06445-.68568h11.19639v1.01783h-10.12713v1.43062c-2.39215-1.19451-4.68443-2.33913-7.1108-3.55073,2.41463-1.20704,4.6925-2.34572,7.05909-3.52875v1.36667h14.45385v1.05973h-15.47144c-.01979-.2108-.03782-.40291-.06389-.68067-1.17215.58477-2.29777,1.14632-3.56467,1.77835,1.23323.62027,2.35067,1.18229,3.56416,1.79263Z"/><path class="cls-2" d="M16.62655,5.68479v.98094h-1.0172v-.98094h1.0172Z"/><path class="cls-2" d="M13.45563,5.67392h.99186v1.00277h-.99186v-1.00277Z"/><path class="cls-2" d="M33.21194,35.59356h-.99858v-1.00951h.99858v1.00951Z"/><path class="cls-2" d="M35.34264,35.58946h-.99826v-.99344h.99826v.99344Z"/><path class="cls-2" d="M14.99402,19.53265h-.98981v-1.00079h.98981v1.00079Z"/><path class="cls-2" d="M11.82423,19.52277v-.98094h1.0172v.98094h-1.0172Z"/><path class="cls-2" d="M13.92377,23.81539h-.99186v-1.00278h.99186v1.00278Z"/><path class="cls-2" d="M11.78438,23.81877h-.99858v-1.00951h.99858v1.00951Z"/></svg>