<?xml version="1.0" encoding="UTF-8"?><svg id="Layer_1" xmlns="http://www.w3.org/2000/svg" viewBox="0 0 40 40"><defs><style>.cls-1{fill:none;}.cls-1,.cls-2{stroke-width:0px;}.cls-2{fill:#fff;}</style></defs><rect class="cls-1" width="40" height="40"/><path class="cls-2" d="M9.569,29.33854v-1.64698c-.40968-.02326-.7793-.02655-1.14448-.06847-.92573-.10625-1.5416-.76609-1.57786-1.69651-.02041-.52379-.01271-1.04909-.00429-1.5735.01919-1.19417.71486-1.87923,1.93294-1.88265,2.57342-.00722,5.14687-.00229,7.72031-.0023,5.4467,0,10.89339-.00097,16.34009.00066,1.50257.00045,2.14269.63688,2.15604,2.13194.00178.19982.00062.39966.00043.59949-.00174,1.79652-.5542,2.37552-2.33467,2.45181-.14399.00617-.28711.0325-.4703.05414v1.63237c.64715,0,1.28386.01383,1.91968-.00412.568-.01604.82144.22457.81139.80222-.01738.99881-.01181,1.99836.00474,2.99726.00884.53394-.22583.74396-.75639.78979-1.50376.1299-2.40385,1.07393-2.48874,2.57394-.0296.523-.03072,1.04973-.00746,1.5731.03022.67996-.27114.9173-.94332.91438-3.79745-.01649-7.59504-.00046-11.39258.00005-2.74818.00036-5.49636-.00431-8.24453-.0107-.88807-.00207-.97905-.10209-.99731-.99271-.01278-.62345.01589-1.25367-.06622-1.86856-.17351-1.29924-1.04901-2.11413-2.35685-2.18597-.60522-.03324-.85164-.26155-.83581-.86674.02548-.97352.02032-1.94844.00199-2.92228-.01085-.57643.24289-.81967.81107-.80363.61879.01747,1.23846.00397,1.92214.00397ZM20.97569,23.64858c-3.82032,0-7.64063-.00002-11.46095,0q-1.50394,0-1.50306,1.52274c.00075,1.30825.01222,1.31869,1.35615,1.31864,7.59038-.00028,15.18077-.00244,22.77115.00153,1.68956.00088,1.68956.01104,1.68435-1.71372-.00322-1.06708-.06481-1.12866-1.16197-1.12888-3.89522-.0008-7.79045-.00031-11.68567-.00032ZM8.05657,32.64285h25.62975v-2.08214H8.05657v2.08214ZM18.55847,37.7604c.0802-.75125.04935-1.49571.26006-2.16405.24149-.76595.93407-1.09445,1.73268-1.01719.62839.06079,1.33544.06533,1.85242.36362,1.07984.62304.56477,1.84573.77518,2.79587h1.62774c.20826-2.53601.4779-3.10363,1.64467-3.13947.70163-.02155,1.50009-.01671,2.09531.28807,1.16579.59693.67699,1.8868.83579,2.8762h1.10993c-.00783-1.34246-.03734-2.67007.98201-3.78172H10.27681c1.05171,1.15259.97335,2.47772.98076,3.76412h1.08572c.06497-.72046.03885-1.40749.20716-2.04306.19796-.74752.80903-1.15388,1.58598-1.1166.67988.03263,1.4453.02471,2.01069.33256,1.12159.61069.62318,1.86673.79788,2.84165h1.61347ZM30.94943,27.70026H10.82228v1.55765h20.12714v-1.55765ZM22.09236,37.74479c-.15428-.69314-.13568-1.43091-.48768-1.87519-.20302-.25624-1.28348-.24605-1.4757.01181-.34096.45738-.30635,1.19461-.43848,1.86339h2.40187ZM13.46217,37.743h2.3918c-.15546-.69767-.1487-1.42073-.49034-1.89055-.17747-.24406-1.2512-.24099-1.42589.00345-.33819.47321-.32673,1.19618-.47557,1.8871ZM28.23872,37.77084c-.10435-.66259-.02999-1.4214-.36762-1.87092-.20138-.26812-1.34039-.26977-1.54139-.00269-.3386.44993-.26641,1.20887-.37273,1.87361h2.28174Z"/><path class="cls-2" d="M17.51059,8.81141c-.49112-1.37594-.9475-2.63873-1.39202-3.90569-.28085-.80046-.11234-1.07097.71509-1.12336.67291-.0426,1.35183-.09755,2.02098-.04903.35833.02598.78918.16969,1.03726.41311,1.40835,1.38186,2.75679,2.82471,4.16347,4.20835.24921.24513.6745.43025,1.02236.43678,2.12304.03987,4.24927-.03876,6.37042.03607,2.37034.08361,4.54023.75742,6.07813,2.7179,1.06417,1.35657.38169,3.02054-1.32494,3.34791-.1225.0235-.24595.04861-.37001.05658-2.49228.16018-4.98385.3342-7.47758.46793-.94665.05077-1.90016-.02581-2.84675.02555-.33205.01801-.72888.16484-.96645.38977-1.74133,1.6487-3.437,3.34565-5.18157,4.99082-.27642.26067-.71625.44057-1.09823.47821-.86767.0855-1.74629.07041-2.62058.07501-.76521.00403-.99741-.332-.7076-1.04568.58165-1.43238,1.1866-2.8553,1.77863-4.28349.09407-.22694.17091-.46101.30551-.82727-.36809,0-.65127-.00136-.93443.00021-2.87325.01591-5.7489.10569-8.61853.01161-1.11288-.03648-2.2824-.33165-3.30097-.7881-1.49293-.66903-1.62568-2.04203-.47109-3.22212.22587-.23086.46264-.48142.74485-.62065.63973-.3156.69832-.73233.51183-1.38824-.59327-2.08655-1.11602-4.19322-1.65945-6.29381-.23761-.91848-.05157-1.02928.8574-1.16778,1.8359-.27975,3.00894.3924,3.92996,2.00673.91112,1.59699,2.086,3.04701,3.19315,4.52559.19854.26515.62615.49442.95481.5039,1.72144.04966,3.44508.02321,5.28634.02321ZM35.06963,11.20571c-.00718-.08411-.01437-.16823-.02155-.25234-1.21208-.6658-2.51743-.97624-3.91047-.97564-6.41875.0028-12.83753-.00542-19.25623.01167-.60922.00162-1.01026-.17245-1.36575-.69009-1.29981-1.89265-2.64747-3.75247-3.97743-5.62442-.58362-.82145-.89531-.91689-1.95908-.58208.04126.18937.0768.38348.12611.57404.53706,2.07559,1.05877,4.15542,1.62641,6.22264.15437.56217.01091.88781-.47101,1.1742-.44778.2661-.88486.56977-1.26787.92097-.70596.64733-.65198,1.1637.25178,1.50932.79912.3056,1.67571.55077,2.52239.56487,3.24574.05408,6.49323.00617,9.74005-.0074,1.6007-.00669,1.68483.12027,1.0613,1.60905-.61273,1.46297-1.21902,2.92864-1.85113,4.44838,1.19391.10614,2.16161.11622,3.04284-.86711,1.4468-1.61442,3.0676-3.07465,4.6432-4.57024.24239-.23008.62965-.4134.9592-.42961,3.5138-.17284,7.02943-.30872,10.54468-.45159.54042-.02196,1.17953-.05114,1.26086-.67298.05663-.43294-.26568-.91542-.45105-1.47309-1.09773.7869-2.10591,1.17023-3.25044,1.12337-.42095-.01723-.86222-.05012-.85516-.59711.00706-.54743.44191-.52498.86442-.57424.67072-.07819,1.3299-.25531,1.99396-.39059ZM22.83412,8.80885c-1.10728-1.13704-2.13899-2.07376-3.01692-3.13736-.68638-.83155-1.44791-.88327-2.42206-.66386.42597,1.18153.82924,2.32945,1.26283,3.46581.05456.14299.26673.31773.40929.32082,1.18504.02574,2.37089.01459,3.76685.01459Z"/><path class="cls-2" d="M25.80205,12.57719c-.32242,0-.66345.0644-.96104-.02155-.21575-.06232-.5376-.34346-.5198-.49199.02737-.2283.28695-.58574.48094-.60857.66031-.07772,1.34012-.07939,2.00124-.00717.20381.02226.51665.37556.51413.57392-.00239.18874-.32278.46248-.5552.53682-.29256.09357-.63777.02256-.96027.02256,0-.00134,0-.00267,0-.00401Z"/><path class="cls-2" d="M13.09455,12.58067c-.32253,0-.66864.07218-.96008-.02298-.23057-.07529-.50364-.33311-.54973-.5534-.0321-.15342.2736-.53064.45356-.54806.68746-.06656,1.38879-.06702,2.07653-.00254.18496.01734.49839.37953.47123.5339-.03884.22072-.30494.4902-.53206.56682-.28951.09767-.63696.02367-.95943.02367,0,.00086-.00001.00173-.00002.00259Z"/><path class="cls-2" d="M21.55342,12.58277c-.29959-.00055-.62302.0696-.89161-.02162-.23641-.0803-.41149-.34107-.61365-.52214.20227-.20862.38293-.56363.61103-.59728.5865-.08654,1.2017-.08597,1.78938-.00449.23607.03273.43015.36813.64335.56577-.21323.19344-.39721.46627-.64771.55854-.2638.09716-.59118.02177-.89078.02122Z"/><path class="cls-2" d="M17.2733,12.57857c-.29948,0-.62656.07465-.89005-.02269-.22684-.08381-.49203-.3444-.53028-.56347-.02745-.15722.27651-.52099.45827-.53939.66658-.06747,1.34897-.0753,2.01399-.00203.19611.02161.50173.39501.48868.58915-.01295.19256-.33798.44871-.57378.5204-.29701.09031-.64234.02178-.96683.02178v-.00374Z"/></svg>