<?xml version="1.0" encoding="UTF-8"?><svg id="Layer_1" xmlns="http://www.w3.org/2000/svg" viewBox="0 0 40 40"><defs><style>.cls-1{fill:none;}.cls-1,.cls-2{stroke-width:0px;}.cls-2{fill:#fff;}</style></defs><rect class="cls-1" width="40" height="40"/><path class="cls-2" d="M17.05294,31.81231h6.75017c0-1.43459.02549-2.8421-.01196-4.24795-.01602-.60147.21154-.92686.73596-1.20873,4.13304-2.22148,5.76015-6.99853,3.90829-11.321-.125-.29176-.17298-.7305-.04086-.99277.24299-.48234.90764-.31558,1.19256.28413.79825,1.68023,1.13635,3.45636.92537,5.30152-.38391,3.3576-2.04095,5.93429-4.93725,7.69803-.30722.18708-.43207.37324-.42624.73772.02297,1.43617.01403,2.87294.00831,4.30945-.01093,2.74373-2.06088,4.85345-4.71503,4.85938-2.65928.00595-4.73099-2.10046-4.74334-4.83048-.0065-1.43651-.01556-2.8733.00822-4.30944.00642-.38779-.12939-.59045-.45698-.78854-4.00631-2.42259-5.84038-7.05084-4.55315-11.44191,1.29386-4.41372,5.46338-7.4852,10.10439-7.27784,1.27208.05684,2.52953.53583,3.78297.86204.48809.12702.91961.44151.66015,1.02575-.26374.59388-.75437.39802-1.2129.19945-5.14435-2.22775-10.89442.65981-12.17093,6.10865-.87644,3.74112.93509,7.691,4.42396,9.54798.58014.30878.80264.67054.78171,1.31915-.04407,1.36532-.0134,2.73304-.0134,4.16541ZM23.65591,33.21477h-6.43618c.10436,1.39386,1.52991,2.61442,3.08639,2.66348,1.64289.05177,3.11193-1.09248,3.34979-2.66348Z"/><path class="cls-2" d="M19.75042,24.95246c-1.22856-.32099-2.36829-.45623-3.36143-.91018-2.50665-1.14577-3.89427-4.06866-3.38306-6.8022.08502-.45464.3871-.59395.82294-.62242,2.77405-.18118,5.0516.65519,6.5621,3.19202.12094-.14441.22413-.24777.30444-.3665,1.26489-1.87011,3.0254-2.81238,5.28919-2.82062q1.88222-.00686,1.8755,1.86524c-.0127,3.54308-2.60868,6.16976-6.14748,6.21961-.17556.00247-.35119.00032-.60698.00032,0,1.02681-.00654,2.00564.00272,2.98433.00474.50108-.0224,1.01959-.66593,1.03196-.64313.01237-.70015-.49202-.69493-1.00225.01003-.98107.00292-1.96232.00292-2.7693ZM14.38208,18.03287c-.18323,2.83586,1.64601,5.09272,4.29883,5.18366-.21711-.27893-.50827-.48602-.76024-.73286-.93356-.91458-1.09179-1.28937-.64404-1.61559.82355-.60002,1.10876.29491,1.57434.6451.28752.21626.52733.49557.86596.82095-.34803-2.8375-2.61141-4.6254-5.33484-4.30125ZM22.16427,23.16472c2.81032-.17393,4.8343-2.76589,4.24231-5.15961-2.78897-.1972-5.0446,1.61592-5.16699,4.28434.4552-.38926.8521-.83787,1.25973-1.27659.32669-.35161.71089-.53041,1.10242-.12788.39338.40442.18227.77844-.1614,1.10098-.42221.39626-.85044.78613-1.27607,1.17877Z"/><path class="cls-2" d="M21.10511,4.97541c0,.46893-.00047.93786.00013,1.40678.00061.46818-.19476.80552-.69435.79849-.45927-.00647-.65822-.32423-.65891-.76557-.0015-.96018-.00152-1.92036.00003-2.88054.00071-.44148.19971-.75835.65944-.7647.50065-.00692.69426.3311.69376.79876-.00049.46893-.00011.93786-.00011,1.40678Z"/><path class="cls-2" d="M12.52434,10.16775c-.11112.1475-.20912.41222-.3735.4629-.22376.06899-.58404.06994-.73622-.06615-.69795-.62416-1.37189-1.28183-1.98716-1.98591-.14155-.16199-.12713-.64721.01537-.81498.14067-.16563.65889-.25957.79656-.13969.75493.65744,1.44826,1.38594,2.14933,2.10308.08117.08303.07933.24673.13563.44075Z"/><path class="cls-2" d="M28.93476,10.76597c-.14827-.10966-.41451-.20584-.46645-.36959-.07065-.22272-.07413-.58336.0618-.7345.62593-.69599,1.28585-1.36771,1.99204-1.98126.16318-.14178.64845-.13021.8176.01087.16678.13911.26364.65614.14419.79278-.65863.75343-1.38852,1.4456-2.10707,2.14541-.08331.08114-.24755.0797-.44212.13628Z"/><path class="cls-2" d="M12.57506,27.20771c-.15554.24586-.24419.45322-.39057.60538-.54173.56311-1.10296,1.10755-1.65597,1.6599-.31952.31913-.68257.48338-1.05552.12859-.4015-.38195-.2379-.75909.10551-1.09904.57135-.56559,1.11438-1.16355,1.72357-1.6849.19308-.16524.57368-.20757.84045-.15757.16594.03109.27931.34096.43254.54764Z"/><path class="cls-2" d="M29.01518,26.47358c.24611.15443.45401.24249.60656.38818.56513.53971,1.1116,1.09881,1.66587,1.64984.31981.31794.48644.68019.13245,1.05279-.38104.40108-.76101.24126-1.10255-.10131-.56758-.56929-1.16682-1.11112-1.68988-1.71831-.16608-.19279-.2103-.57121-.16108-.83724.03065-.16562.34105-.2798.54863-.43395Z"/><path class="cls-2" d="M6.90484,19.31792c-.42538.00047-.85106.01047-1.27605-.00227-.44663-.01339-.79347-.26221-.69646-.69393.05734-.25518.43474-.59708.69338-.62021.86615-.07747,1.74818-.07807,2.61391.00189.25083.02317.46735.41554.6996.63866-.23037.22513-.42771.5753-.69874.64643-.41874.10989-.88787.02896-1.33564.02943Z"/><path class="cls-2" d="M33.92734,19.31792c-.42538.00058-.85101.00976-1.27606-.00194-.44623-.01229-.79519-.25748-.70086-.69006.0557-.25543.43157-.60095.68896-.6241.86608-.0779,1.74812-.07837,2.61391.00118.25208.02316.47027.41291.70399.63462-.22889.22657-.42427.57918-.69442.65055-.41837.11054-.88777.02916-1.33553.02974Z"/><path class="cls-2" d="M27.13811,12.92711c-.32132-.42556-.59977-.64119-.65581-.90396-.087-.40794.18876-.68528.61539-.69635.42637-.01106.71749.25254.65334.66297-.04148.26537-.31146.49524-.61291.93734Z"/></svg>