<?xml version="1.0" encoding="UTF-8"?><svg id="Layer_1" xmlns="http://www.w3.org/2000/svg" viewBox="0 0 40 40"><defs><style>.cls-1{fill:none;}.cls-1,.cls-2{stroke-width:0px;}.cls-2{fill:#fff;}</style></defs><rect class="cls-1" width="40" height="40"/><path class="cls-2" d="M20.64161,23.79134c2.06053-1.09075,3.51382.42878,5.27516.84952.0138-.2696.03516-.50961.0369-.74976.01087-1.50333-.00272-3.00714.03115-4.5099.03175-1.40897.43767-2.72998,1.05945-3.98796.6446-1.30415.97925-2.67884.96684-4.21186-.79352.0613-.83411-.45164-.81153-1.03938.02306-.60053.01172-1.20266.00465-1.80397-.00532-.45237.17803-.68213.65851-.68034,2.29003.00856,4.58011.00745,6.87015.0004.431-.00133.65741.19121.66311.614.00997.74001.06427,1.48792-.02655,2.21676-.03807.30551-.39896.57079-.71077.80472-.12826,1.29939.13257,2.60328.73413,3.81905.86976,1.75783,1.23162,3.60162,1.22593,5.56037-.01372,4.71848.03354,9.43714.05577,14.15572.00756,1.60501-.86463,2.51034-2.46953,2.51131-9.83107.00591-19.66215.00374-29.49322.00176-.86422-.00017-.96538-.1014-.96556-.95097-.00175-8.07258-.01399-16.14522.01956-24.21767.00329-.79115.2479-1.59323.4586-2.36903.40195-1.48002.71207-2.96411.58488-4.50951-.05294-.64322.22397-.91407.88981-.91156,4.32561.01631,8.65132.01105,12.97698.00495.53196-.00075.9557.11841.89549.75617-.19388,2.05391.45848,3.97272.90097,5.92728.09597.42389.16028.86509.16188,1.29861.01287,3.49267.00723,6.98542.00725,10.47814v.94315ZM16.56369,29.43493c0-.34504.02459-.62327-.00417-.89587-.13937-1.32107.43787-2.33264,1.38219-3.1683.41281-.36531.90904-.63687,1.31811-1.00567.20627-.18597.41838-.48931.42865-.74749.0459-1.15371-.01428-2.31172.034-3.46524.0256-.61164-.155-.77986-.7711-.7762-4.48359.02657-8.96741.01367-13.45116.01603-.24216.00013-.48431.02537-.73744.03954v10.0032h11.80092ZM17.57018,36.30514h14.12415c0-1.02798.02657-1.9992-.0168-2.96729-.01241-.27701-.16586-.60414-.36051-.8064-.69506-.72221-.84852-1.78059-.13599-2.41701.59297-.52963.55183-1.07428.46176-1.76376-2.66193,0-5.29399-.00578-7.92585.01428-.15889.00121-.33883.18654-.47041.3233-.61437.63854-1.37844.64535-2.00847.015-.13716-.13723-.31046-.33163-.47181-.33626-1.05495-.03026-2.1112-.01558-3.19607-.01558v7.9537ZM4.76363,18.35411h14.94491c0-1.7845-.02635-3.51393.01393-5.24181.0146-.62605-.15019-.82037-.80076-.81617-4.48225.02896-8.96477.01525-13.44721.01525-.22473,0-.44946,0-.71088,0v6.04272ZM4.7644,30.50668v5.80208h11.75784v-5.80208H4.7644ZM26.79218,19.52657h8.83028c.00414-1.24281-.38078-2.33475-.81032-3.43543-.43367-1.11128-.78482-2.25806-1.10959-3.40697-.13415-.47455-.10535-.99515-.15023-1.4901h-4.50758c-.02118,1.87367-.59677,3.55492-1.3414,5.21716-.42363.94567-.5961,2.00385-.91115,3.11534ZM35.61999,26.44497c.0205-.23447.04942-.41394.04983-.59347.00362-1.56999-.0195-3.14046.01409-4.70973.01151-.538-.18127-.65534-.68056-.6509-2.49347.02213-4.98724.0091-7.4809.01261-.17693.00025-.35382.03406-.62826.0623,0,1.44245-.00593,2.84763.01004,4.25257.00144.12714.11469.32104.22539.3683,1.01646.43399,2.01659,1.08509,3.07416,1.20385,1.77357.19916,3.58575.05447,5.41622.05447ZM19.51674,11.29009c-.25223-1.01333-.51268-1.94589-.70734-2.89199-.09094-.442-.30122-.5451-.71193-.53604-1.04018.02294-2.08121.0075-3.12189.00751-2.8908,0-5.78164-.00643-8.67232.01247-.2297.0015-.61706.13141-.66168.28167-.30017,1.01077-.52748,2.04317-.79254,3.12639h14.66769ZM32.67046,36.31627c.54793,0,1.007.0029,1.46603-.00058,1.12176-.0085,1.48502-.37011,1.48729-1.50171.00445-2.21892.00264-4.43786-.00065-6.65679-.00033-.22028-.0288-.44052-.04576-.68292h-2.90694c0,.76757.04283,1.50613-.02171,2.23518-.02478.27988-.23395.62001-.46437.79006-.58104.42881-.63456,1.02387-.0028,1.36783.39041.21255.5014.47402.49509.88474-.01769,1.15208-.00617,2.30462-.00617,3.56419ZM18.55938,6.85944c.01706-.18809.03281-.29993.03651-.41217q.03541-1.07603-1.06273-1.07619c-3.5118-.00006-7.02361-.00003-10.53541-.00002q-1.28681,0-1.1919,1.27754c.00474.06322.04986.12342.0872.21083h12.66633ZM17.6018,27.35953c1.17557,0,2.21925.00728,3.26245-.01182.09903-.00181.20217-.16247.2913-.2604.66401-.72958,1.41572-.73547,2.09995-.06584.1854.18143.49301.32915.74752.33394,1.59349.03003,3.18784.01625,4.7819.01393.20223-.00029.40443-.01831.60665-.02811-2.25431-1.05399-4.51236-1.98505-6.77198-2.91228-.10352-.04248-.2265-.08553-.33141-.06948-1.93802.2964-3.52857,1.14589-4.68637,3.00007ZM34.34016,8.67881h-6.09249v1.43629h6.09249v-1.43629Z"/><path class="cls-2" d="M14.36238,24.93477c-.01192,1.41143-.9289,2.33775-2.10877,2.35956-1.20681.0223-2.21136-.90284-2.20317-2.10339.00989-1.44986.81855-2.5149,1.8309-3.44042.1167-.10669.49198-.11229.60887-.00861,1.02843.91214,1.78674,1.98863,1.87217,3.19287ZM12.3383,22.76228c-.08556.00258-.17112.00516-.25668.00774-.32256.59586-.68416,1.17451-.95638,1.79253-.25802.58579-.14694,1.2102.4231,1.51113.3434.18129.91198.19275,1.26934.03355.60564-.26982.71294-.91894.49265-1.49086-.24915-.64686-.64178-1.23846-.97202-1.85409Z"/><path class="cls-2" d="M6.37297,24.15682c.0004.29867.06327.61677-.02112.88928-.05883.18997-.30376.40785-.49555.4413-.12962.02261-.43686-.24468-.44812-.39818-.04853-.66192-.04565-1.33194.00632-1.99369.01214-.15456.31272-.42227.43941-.40032.19184.03324.45015.24919.49604.43339.08084.32447.02261.68359.02302,1.02823Z"/><path class="cls-2" d="M21.30022,31.99004c-.0131.73771-.59298,1.28546-1.34739,1.27272-.74108-.01252-1.30969-.59074-1.30403-1.32606.00553-.71842.6067-1.32643,1.31908-1.33407.73557-.00789,1.34583.6276,1.33234,1.38741Z"/><path class="cls-2" d="M27.63778,33.04088c.73634-.00181,1.30764.56385,1.32165,1.30864.01383.73488-.55315,1.33032-1.28489,1.3494-.73912.01928-1.38007-.61246-1.37142-1.35172.00845-.72235.60326-1.30453,1.33466-1.30633Z"/><path class="cls-2" d="M26.42684,30.51826c-.19173-.22623-.3997-.36374-.4012-.50346-.00153-.14227.20016-.28673.31287-.43023.15507.12714.38235.22894.43908.39058.03608.1028-.18107.29446-.35074.54311Z"/><path class="cls-2" d="M24.27614,32.31597c.19772.22361.43671.38474.41524.49529-.03198.16472-.24778.29374-.38537.43795-.12996-.12713-.35-.24477-.36468-.38405-.01482-.14062.174-.30271.3348-.54919Z"/><path class="cls-2" d="M22.37195,34.92754c-.2458.17167-.40173.36563-.54534.3569-.14306-.0087-.27375-.22077-.40986-.34367.13996-.14532.26123-.36957.42633-.40865.113-.02675.28706.20447.52886.39541Z"/><path class="cls-2" d="M28.90663,31.10826c.18294.25495.40483.44262.37065.54376-.05777.17093-.27758.2871-.42925.4263-.11729-.14627-.31789-.28759-.32697-.4403-.00808-.13588.19599-.28438.38558-.52976Z"/><path class="cls-2" d="M23.79103,25.63168c-.26203.16424-.45813.37355-.567.33521-.16452-.05794-.26824-.28853-.3978-.44574.15034-.11357.30225-.31735.45056-.31477.14185.00247.27995.21953.51424.4253Z"/><path class="cls-2" d="M20.74185,26.24741c-.26893.15622-.43862.33482-.58027.31482-.14507-.02048-.26269-.23544-.39233-.36528.1522-.13336.29103-.34361.46126-.37319.11445-.01989.27332.21583.51133.42364Z"/></svg>