<?xml version="1.0" encoding="UTF-8"?><svg id="Layer_1" xmlns="http://www.w3.org/2000/svg" viewBox="0 0 40 40"><defs><style>.cls-1{fill:none;}.cls-1,.cls-2{stroke-width:0px;}.cls-2{fill:#fff;}</style></defs><rect class="cls-1" width="40" height="40"/><path class="cls-2" d="M22.1733,35.74276c-.15493-.15754-.4645-.3325-.49796-.54991-.02754-.17893.23229-.52144.435-.59316.52996-.18751,1.09416-.31296,1.65375-.36392.20246-.01844.56886.21351.6092.38891.04247.18465-.16639.5669-.35154.63761-.54502.20814-1.13269.30469-1.84845.48047Z"/><path class="cls-2" d="M14.78323,34.16497c.7331.16498,1.36096.26698,1.95679.46518.17074.05679.37131.4168.33547.59237-.037.18126-.36353.4527-.53151.43157-.64413-.08102-1.28749-.22783-1.90298-.43404-.15107-.05062-.28361-.42859-.26095-.6384.01793-.16597.28662-.30488.40318-.41669Z"/><path class="cls-2" d="M19.36454,34.76551c.46481.02016,1.10871-.13684,1.10171.57972-.00697.71431-.66573.52793-1.12008.57052-.08702.00816-.17576-.00302-.26372-.00367-.39912-.00298-.8057-.06398-.8156-.55686-.01071-.53365.39701-.61334.83342-.59063.08773.00457.1759.00066.26427.00091Z"/><path class="cls-2" d="M27.27655,30.32972c0,1.47248-.05402,2.94203.01614,4.40563.06241,1.30189-.54044,2.1186-1.61912,2.69399-1.5467.82503-3.23413,1.11402-4.94941,1.24127-2.21079.164-4.39545-.01736-6.50481-.75076-.49388-.17171-.97438-.40516-1.42608-.66981-.90317-.52915-1.36323-1.29754-1.32638-2.39311.05074-1.50821.01271-3.01941.01271-4.47893-1.44977-.12567-2.84144-.1413-4.18818-.3951-1.14938-.2166-2.2846-.62281-3.35686-1.10039-1.01188-.45069-1.48053-1.30024-1.47226-2.49306.04054-5.84608.04278-11.69278-.00142-17.5388-.00926-1.22486.47437-2.09311,1.51528-2.53211,1.18157-.49832,2.4273-.92067,3.68634-1.14373,2.65476-.47033,5.302-.2965,7.87438.57089.49488.16687.9723.40918,1.42461.6734.88255.51553,1.34312,1.26319,1.30234,2.33498-.04927,1.29487-.01157,2.59305-.01151,3.8898.00001.23623,0,.47245,0,.72668h2.25147c0-1.34008-.00001-2.65409,0-3.9681.00002-2.13427.44545-2.85846,2.4808-3.56211,3.58684-1.24003,7.20399-1.22656,10.79815-.00433.55123.18745,1.07153.50855,1.55491.84199.65328.45064.9481,1.09686.94598,1.91954-.01537,5.95621-.02496,11.91257.00677,17.86866.0059,1.1071-.46579,1.83843-1.35754,2.37357-1.34887.80947-2.84856,1.14203-4.38682,1.29923-1.04684.10698-2.10268.12598-3.26951.1907ZM26.12166,24.91243c-4.53894,1.92883-8.99278,1.92898-13.48895-.00295,0,1.22011.05869,2.42929-.01963,3.62954-.05679.87028.32786,1.37364,1.03295,1.71773.43183.21073.87767.40714,1.3367.54539,2.18159.65707,4.41155.70849,6.65491.4494,1.29256-.14928,2.57337-.40623,3.67608-1.1357.34602-.2289.74728-.66958.77153-1.03654.09094-1.37601.03642-2.76162.03642-4.16687ZM12.63271,18.72212c0,1.20053.06322,2.38996-.01985,3.56909-.06738.9565.37259,1.48577,1.15832,1.84108.3985.1802.80429.35457,1.22232.47969,2.20531.66011,4.46549.77592,6.71793.41405,1.19529-.19203,2.36177-.6249,3.50391-1.0494.35955-.13363.8304-.57849.85139-.90642.09276-1.44903.04012-2.90735.04012-4.33869-4.51597,1.9086-8.95001,1.91034-13.47414-.00942ZM26.11976,31.10329c-4.55156,1.93285-9.0001,1.92642-13.48706-.00179,0,1.15561.0909,2.2834-.02481,3.38961-.12301,1.17607.45753,1.75165,1.4135,2.14342.32405.13279.64938.26783.98427.36796,2.13952.63967,4.33594.7534,6.51978.42867,1.25969-.18732,2.49383-.63229,3.69407-1.08226.37615-.14102.83221-.65959.8596-1.034.1019-1.39293.04065-2.79779.04065-4.21161ZM3.61838,10.27984c0,1.15731.07233,2.30262-.02104,3.43427-.08738,1.059.38521,1.64437,1.2758,2.03992,1.99665.8868,4.10394,1.06012,6.24977.97153.13521-.00558.35239-.13789.38248-.25086.3009-1.12999,1.17449-1.68756,2.15432-2.04981,1.10393-.40813,2.25779-.68135,3.41522-1.02067v-3.10842c-4.48166,1.9052-8.91377,1.89852-13.45654-.01596ZM21.64771,13.50498c.30905.05533.57558.07634.82531.15243,1.04452.31825,2.10986.58993,3.117,1.0021.77954.31903,1.40829.87906,1.65015,1.77009.03725.13723.31196.29573.47864.29776.83311.01014,1.67095.01613,2.49939-.06024,1.38184-.12737,2.73376-.4045,3.97478-1.07407.65281-.35221,1.00611-.83259.95995-1.63483-.06169-1.07202-.01275-2.15027-.01839-3.2258-.00082-.15728-.04076-.31436-.05555-.42077-4.51741,1.88078-8.9687,1.89725-13.43128-.03549v3.22882ZM10.01473,10.70447c1.51561-.19027,2.70817-.25955,3.86092-.51107.86528-.1888,1.72755-.52455,2.50423-.95248.99735-.54951.97453-1.22501.02204-1.83628-.38441-.2467-.80542-.46571-1.23983-.60063-3.19612-.99266-6.40263-.99501-9.59668.00543-.47395.14845-.93409.39645-1.34473.67942-.79892.55053-.80361,1.11361-.01478,1.65802.41033.28319.86824.56545,1.34429.67315,1.5768.35672,3.17162.6339,4.46455.88445ZM28.735,10.59475c.61581-.06111,1.60712-.11038,2.58069-.26864,1.19475-.19421,2.37681-.48541,3.35552-1.26305.61454-.4883.63467-.99963.00298-1.45752-.47224-.34231-1.00937-.64152-1.56292-.81775-2.96759-.94474-5.9726-.95953-8.96376-.14193-.7435.20323-1.46255.59435-2.1088,1.02506-.57855.38559-.55747.86087-.01311,1.30242.38548.31268.83617.57105,1.29596.76155,1.61094.66744,3.32093.7976,5.41345.85986ZM19.37466,19.22057c1.65-.32338,3.29226-.59188,4.90254-.98965.56682-.14001,1.08769-.5543,1.5695-.92194.39515-.30152.3963-.76074.0068-1.0803-.4015-.3294-.84109-.66761-1.32217-.8361-3.4376-1.20396-6.8929-1.20078-10.33044.00572-.44335.15561-.86081.44604-1.22451.75207-.48296.40638-.49533.83545-.00312,1.22157.45842.35961.97863.73265,1.52846.86635,1.591.38686,3.2106.65622,4.87294.98229ZM27.32351,24.07464v5.02684c2.0078.09249,3.94442-.00841,5.81853-.66428,1.78017-.62299,1.9957-.93324,1.99571-2.78887v-3.07863c-2.51221,1.35796-5.11784,1.56415-7.81424,1.50494ZM3.61842,16.38612c0,1.313.0443,2.53788-.01572,3.75763-.0394.80054.29537,1.29356.95904,1.63363,2.16465,1.10921,4.48513,1.22822,6.86001,1.13841v-5.04393c-2.71335.08315-5.31437-.15357-7.80332-1.48574ZM11.44851,24.06648c-2.71699.08515-5.33581-.15573-7.83004-1.48666,0,1.34346.03544,2.59204-.01364,3.83729-.02827.7173.27076,1.17228.85796,1.49004,2.18681,1.18338,4.55047,1.27909,6.98572,1.19497v-5.03564ZM27.30253,22.87846c.97935,0,1.90042.05593,2.81205-.01296,1.40617-.10626,2.79911-.35978,4.0353-1.08145.38675-.22578.89753-.64569.92471-1.00866.10692-1.4282.04381-2.86911.04381-4.39062-2.49716,1.36181-5.12718,1.55076-7.81586,1.49816v4.99554Z"/><path class="cls-2" d="M14.77462,27.96603c.75538.17245,1.38339.27628,1.97865.47707.1671.05636.35918.42536.31921.60074-.04084.17918-.36916.43643-.54301.41601-.62339-.07322-1.24698-.21258-1.84252-.41083-.16476-.05484-.3348-.41099-.31493-.61021.01853-.18569.28639-.34653.4026-.47278Z"/><path class="cls-2" d="M22.15963,29.55486c-.1546-.16461-.43654-.33294-.47116-.54214-.02922-.17663.18736-.51988.36671-.58155.5558-.19114,1.14109-.32259,1.72505-.39117.19097-.02243.56468.19793.5848.34433.02944.21418-.13057.60274-.30461.66922-.56803.217-1.17901.32172-1.90081.50131Z"/><path class="cls-2" d="M19.41128,28.57094c.13049.00013.29194-.04908.38547.00968.24596.15453.46237.35604.69055.53884-.21117.1991-.39133.48057-.64197.57484-.26684.10036-.6007.03218-.90476.02186-.394-.01337-.74993-.18904-.65245-.60736.05107-.21915.41981-.38582.6726-.52696.11603-.06478.29832-.01103.45056-.0109Z"/><path class="cls-2" d="M16.59847,23.36149c-.71546-.17776-1.32307-.28177-1.88845-.49673-.1783-.0678-.37474-.47037-.32296-.65104.05029-.17545.42074-.38589.62894-.36503.55935.05604,1.123.18384,1.65123.37579.19637.07136.42295.40891.40895.60926-.01349.19313-.31953.36584-.47773.52775Z"/><path class="cls-2" d="M22.17674,23.3585c-.15588-.1656-.46356-.34825-.48928-.56441-.02143-.18003.24949-.50212.4588-.58071.48791-.18319,1.01251-.31139,1.53084-.35171.23311-.01813.48675.22731.73107.35315-.14239.23361-.2337.59429-.43716.676-.5228.20993-1.09534.29613-1.79427.46768Z"/><path class="cls-2" d="M19.39398,22.37713c.1305-.00008.26101-.00143.39149.00017.39949.0049.75126.17744.67075.59158-.04275.2199-.39666.45006-.65665.53772-.27317.09209-.63109.09686-.89797-.00357-.2525-.09502-.43492-.37603-.64817-.57524.22793-.18352.44107-.39208.69047-.53926.11289-.06662.29782-.0113.45007-.01138Z"/><path class="cls-2" d="M7.59116,14.92016c-.71848-.17882-1.32671-.28393-1.89353-.49837-.17901-.06772-.38182-.46884-.32884-.64297.05459-.17943.42007-.39301.62783-.37247.56038.0554,1.12491.18414,1.65447.37576.19626.07102.42223.40565.41022.60666-.01152.19263-.31403.36788-.47014.53139Z"/><path class="cls-2" d="M10.3981,15.09486c-.48138-.0348-1.12232.11412-1.1385-.57216-.01652-.70049.61509-.57554,1.08282-.58533.02177-.00046.04358-.00062.06535.00003.44516.01344,1.0357-.11184,1.0464.55644.01171.7313-.62943.54874-1.05606.60101Z"/><path class="cls-2" d="M31.1612,14.92246c-.15741-.16716-.45953-.34502-.46929-.53769-.01021-.20142.21902-.53287.4169-.60412.52976-.19076,1.09427-.31919,1.65456-.3735.2068-.02004.57133.19789.62443.37786.0515.17456-.15418.57241-.33446.64044-.56702.21395-1.17523.31889-1.89214.49701Z"/><path class="cls-2" d="M28.45358,13.9371c.15244,0,.34213-.05758.44961.0119.22913.14811.41561.36213.61957.54914-.19851.19337-.36653.47791-.60326.55698-.29433.0983-.66871.10021-.96498.00641-.25614-.08109-.60147-.32706-.64155-.54825-.0773-.42661.29071-.57286.68325-.57825.15243-.00209.30491-.00034.45736-.00034v.00242Z"/><path class="cls-2" d="M31.14295,27.30785c-.15185-.17092-.42755-.3462-.4577-.55661-.02551-.17804.19394-.51651.37346-.57538.57715-.18927,1.18168-.32112,1.78531-.38784.17907-.01979.51082.21918.55297.39282.04361.17969-.13164.55759-.2948.61621-.59175.21258-1.2186.32757-1.95923.5108Z"/><path class="cls-2" d="M5.75823,19.52429c.75372.17194,1.38243.27627,1.97883.47662.16621.05584.35712.42241.31801.59768-.04001.17929-.36491.43926-.53647.41922-.62444-.07296-1.24913-.21137-1.84599-.40886-.16659-.05512-.34202-.40913-.32225-.60695.01867-.18682.28867-.34855.40787-.47771Z"/><path class="cls-2" d="M7.60836,27.30559c-.74145-.18475-1.36792-.30078-1.95911-.51437-.16186-.05848-.33469-.43921-.28919-.61777.04419-.17342.37698-.40797.55724-.3876.60328.06817,1.20738.20107,1.78382.39176.17831.05899.39499.40079.36772.57839-.03228.2102-.30949.38284-.46048.5496Z"/><path class="cls-2" d="M31.17672,21.10781c-.15184-.15045-.45786-.31646-.47735-.51111-.01994-.19922.19638-.54861.38734-.61815.52873-.19253,1.09378-.32619,1.65361-.37225.21976-.01808.46382.25865.69681.40112-.13839.21635-.23127.55372-.42382.62603-.54705.20545-1.13477.3027-1.8366.47437Z"/></svg>