<?xml version="1.0" encoding="UTF-8"?><svg id="Layer_1" xmlns="http://www.w3.org/2000/svg" viewBox="0 0 40 40"><defs><style>.cls-1{fill:none;}.cls-1,.cls-2{stroke-width:0px;}.cls-2{fill:#fff;}</style></defs><rect class="cls-1" width="40" height="40"/><path class="cls-2" d="M14.16556,22.57465c0-.15941-.00079-.28526.00012-.41109.02108-2.9133.04136-5.8266.06403-8.73989.00984-1.26397.67471-1.92313,1.93793-1.92346,3.39759-.00089,6.79518-.00097,10.19277.00002,1.2926.00038,1.98659.69956,1.987,1.99682.0002.62353.00026,1.24706-.00003,1.87059-.00024.51634-.0396.55691-.54281.55716-.79446.00039-1.58892.0001-2.43062.0001,0,.14243,0,.26653,0,.39062-.00002,2.55862-.02087,5.11748.0078,7.67578.01706,1.52275-1.18562,2.44988-2.38936,2.43495-2.93456-.0364-5.86998.00351-8.80502-.00404-1.39805-.0036-2.36002-.9947-2.36508-2.39126-.00117-.32251-.00097-.64503,0-.96754.00133-.43722.04983-.48765.47595-.48847.60999-.00117,1.21997-.0003,1.8673-.0003ZM14.71409,22.57462h.40252c1.92514,0,3.85029-.00033,5.77543.00025.4542.00014.49174.03952.4932.50334.00115.36562-.01096.73175.00419,1.09676.05074,1.22257,1.23681,2.02267,2.34658,1.58978.70609-.27542,1.09986-.91391,1.1003-1.80083.00159-3.21534-.00317-6.43069.00348-9.64602.0016-.772-.14707-1.57798.49236-2.27066-.16573,0-.25076,0-.33578,0-2.96838.00002-5.93676-.00097-8.90514.00069-.88229.00049-1.30519.42044-1.31195,1.29965-.02276,2.95715-.04363,5.91431-.06509,8.87147-.00077.10543-.0001.21086-.0001.35557ZM20.86192,23.12892h-8.50676c0,.30969-.00152.59751.00027.88532.00718,1.15347.71907,1.86265,1.87803,1.86369,2.3541.0021,4.7082.00085,7.06229-.00012.08987-.00004.17974-.01149.3397-.0224-.87657-.76159-.80148-1.73788-.77353-2.72648ZM27.78556,15.36374c0-.77989.04015-1.54207-.0127-2.29774-.0423-.60484-.58155-1.01722-1.18011-1.01515-.58845.00204-1.15084.43063-1.19052,1.0157-.05136.7572-.01253,1.52053-.01253,2.29719h2.39586Z"/><path class="cls-2" d="M17.27165,15.59267c-.26019-.9388.20056-1.41372,1.04274-1.68935.37387-.12236.70898-.35899,1.07625-.5078.13867-.05619.34218-.0633.47546-.00296.62572.28329,1.23431.60415,1.8556.89765.20627.09744.27894.23772.27575.45633-.00817.55897.00547,1.1183-.00512,1.67719-.01399.73794-.3242,1.32344-.93834,1.74217-.39068.26637-.78422.52882-1.16883.80372-.1738.12422-.31966.1279-.49606.00209-.41986-.29945-.85811-.57343-1.27383-.87828-.55684-.40834-.82475-.97609-.84241-1.66215-.00719-.27936-.00119-.55906-.00119-.8386ZM21.44955,15.76773c0-.25804.01863-.51805-.0085-.7732-.01209-.1137-.08958-.2669-.18321-.31767-.48109-.26083-.97397-.5009-1.47076-.73091-.08912-.04126-.23162-.03535-.32258.0068-.48696.22566-.97045.46036-1.44257.71521-.09589.05176-.19098.20122-.19551.30945-.02067.4937-.01277.9888-.00775,1.48332.00529.52076.23128.93037.65353,1.22978.31553.22374.64501.42859.95252.66255.16297.12399.27772.09778.42596-.01348.2404-.18044.48705-.35504.74441-.50992.61116-.3678.90666-.89365.85606-1.61048-.01057-.14977-.00154-.30093-.00161-.45145Z"/><path class="cls-2" d="M19.72963,20.33021c-1.0107.00003-2.02141-.00036-3.03211.00037-.20257.00014-.42131-.00329-.41184-.27802.00852-.24709.21318-.25435.40588-.25424,2.04291.00118,4.08583.00145,6.12874-.00036.19775-.00018.39365.02152.39701.26534.00341.24769-.19401.26823-.39104.26784-1.0322-.00205-2.06442-.00096-3.09662-.00092Z"/><path class="cls-2" d="M19.76002,21.57033c-.9891,0-1.97821.00035-2.96731-.00058-.0965-.00009-.20782.02037-.28563-.02001-.09158-.04753-.22085-.15826-.21322-.2285.01079-.09934.11808-.20632.21099-.27206.05883-.04163.16657-.0172.25237-.01722,1.99971-.00057,3.99942-.00078,5.99912.00064.09564.00007.21335-.01572.28127.03205.0833.05858.16809.17521.1706.26893.00192.07154-.11063.17545-.19517.21211-.09222.03998-.21085.02378-.31798.02392-.97835.00126-1.9567.00074-2.93505.00073Z"/><path class="cls-2" d="M19.35277,16.39895c.31952-.33419.57077-.59681.8218-.85962.13269-.13891.28917-.21754.44359-.05928.15558.15946.06256.31285-.07014.44526-.30309.30243-.60812.60298-.9073.90923-.19045.19496-.36606.18668-.54827-.00899-.13853-.14876-.31148-.27395-.41619-.4425-.06117-.09847-.01834-.26153-.02229-.39552.13383.01166.28868-.01435.39571.04535.11183.06237.17764.20722.3031.36606Z"/><path class="cls-2" d="M34.92362,14.06871c.00013,1.83722-.02612,3.67491.00634,5.51155.04753,2.68888-.88491,5.09007-2.14948,7.38186-2.32376,4.21138-5.72165,7.42199-9.62546,10.1402-.84319.58711-1.71075,1.14326-2.59869,1.65931-.22538.13099-.6455.17671-.85219.0536-4.77181-2.84205-8.97178-6.30935-11.90327-11.11915-1.23214-2.02161-2.14709-4.17522-2.49035-6.53936-.04552-.31354-.0653-.63349-.06562-.95051-.00422-4.16436-.00359-8.32873-.00219-12.4931.00032-.95907.03173-.98759,1.00787-.92724,4.02218.24868,7.53895-1.17734,10.83399-3.2991.84192-.54213,1.64973-1.14808,2.41607-1.7926.46051-.38731.75058-.33293,1.1896.02742,2.83694,2.3286,5.95545,4.14322,9.60974,4.81339,1.23871.22717,2.53005.21264,3.79769.21735.60967.00227.83953.15981.83377.77593-.02037,2.17998-.00793,4.36026-.0078,6.54043ZM6.12933,7.68892v.86394c0,3.30702.09308,6.61743-.02747,9.92005-.10979,3.00775.74718,5.69522,2.20664,8.24477,2.74087,4.78808,6.78663,8.24405,11.42285,11.08002.18744.11466.5782.08635.77503-.03551.97761-.60521,1.94627-1.23095,2.87375-1.91,3.88675-2.84568,7.1729-6.2237,9.25546-10.63864.9401-1.99297,1.47475-4.06168,1.42332-6.30586-.07911-3.45218-.02081-6.90751-.02081-10.36151v-.85322c-5.44976.27027-9.86924-2.03608-13.95259-5.25436-4.08022,3.19734-8.47309,5.51437-13.95618,5.25031Z"/><path class="cls-2" d="M32.54549,15.29039c.00018,1.07741-.07762,2.1616.01561,3.23089.2272,2.60567-.60348,4.93205-1.81106,7.14932-2.42096,4.44516-6.09601,7.66812-10.29493,10.35409-.17686.11314-.55036.12166-.72259.00994-5.13003-3.32751-9.50753-7.32941-11.57389-13.3075-.32114-.92907-.48782-1.95297-.50698-2.93727-.06241-3.20653-.00807-6.41517-.03522-9.62269-.00599-.70776.20531-.97177.94758-1.0345,3.9366-.33271,7.41137-1.91116,10.59549-4.15834.69414-.48989,1.12558-.51663,1.83856-.0139,3.26747,2.30396,6.83009,3.90772,10.88323,4.20029.56189.04056.67114.36145.66825.84059-.01065,1.76297-.00423,3.52605-.00405,5.28909ZM8.51274,10.06942c0,.31675,0,.58225,0,.84775,0,2.79097.03135,5.58243-.0132,8.37268-.02239,1.40189.25742,2.71657.77932,3.99923,1.76478,4.3372,4.8481,7.59251,8.5258,10.35059.73758.55314,1.53646,1.40213,2.31636,1.41244.74238.00981,1.52073-.86699,2.24208-1.40879,3.55236-2.66815,6.55695-5.80104,8.3553-9.94634.63072-1.45385.98601-2.94389.95293-4.55177-.05688-2.76529-.01482-5.53259-.01729-8.29904-.00023-.25757-.02195-.51512-.03324-.76272-.6379-.09759-1.19585-.16777-1.74789-.26988-3.40392-.62964-6.45381-2.08265-9.27653-4.04115-.38424-.2666-.6358-.26665-1.02029-.00049-3.3077,2.28974-6.90041,3.87163-11.06337,4.29747Z"/></svg>