<?xml version="1.0" encoding="UTF-8"?><svg id="Layer_1" xmlns="http://www.w3.org/2000/svg" viewBox="0 0 40 40"><defs><style>.cls-1{fill:none;}.cls-1,.cls-2{stroke-width:0px;}.cls-2{fill:#fff;}</style></defs><rect class="cls-1" width="40" height="40"/><path class="cls-2" d="M23.18721,28.6583c0-1.30969-.00119-2.51088.00038-3.71207.00124-.9476.08947-1.03313,1.06373-1.03601.65772-.00195,1.31545-.00037,2.08752-.00037,0-.94743-.0016-1.86712.00032-2.7868.00441-2.11464-.214-1.95112,1.92933-1.95051.9764.00028,1.95283-.00435,2.92919.00159.84784.00515.96817.1314.97029,1.00139.00299,1.22066.00075,2.44134.00075,3.60133.08512.07347.10123.09961.11763.09979,1.67674.0182,1.42553.17017,1.44282,1.64095.01198,1.01956.0023,2.03937.0023,3.06622.38377.11513.74157.18558,1.06861.32709,1.28562.55629,1.83692,1.93271,1.54039,3.78598-.20762,1.29762-1.08208,2.12455-2.42189,2.28072-.22465.02619-.45275.03183-.67926.03187-8.81031.00154-17.62063-.00128-26.43093.00485-1.02214.00071-1.97816-.17799-2.58673-1.07526-.8066-1.18924-.75683-2.51982-.2501-3.77163.48345-1.19431,1.57019-1.5189,2.80199-1.51538,5.17713.01482,10.35433.00625,15.5315.00625.26758,0,.53515,0,.88216,0ZM20.06512,29.73335c-1.63373,0-3.26747-.00005-4.9012.00001-2.90442.00011-5.80885-.00572-8.71324.00359-1.05664.00339-1.6504.57502-1.71255,1.61504-.01891.3164-.01793.63578.00041.95227.05977,1.03165.65952,1.61389,1.6982,1.64058.61225.01574,1.22523.00353,1.83788.00353,8.3502.00003,16.7004-.00184,25.05059.00374.61186.00041,1.20609-.05329,1.59568-.57778.6318-.85058.52204-1.82378.21498-2.72667-.2696-.79275-1.01297-.92402-1.79667-.92141-4.42465.01477-8.84937.00714-13.27407.00709ZM31.05916,23.88023v-3.61228h-3.59837v3.61228h3.59837ZM24.30491,25.01391v3.58901h3.60031v-3.58901h-3.60031ZM32.66428,25.03321h-3.61954v3.56703h3.61954v-3.56703Z"/><path class="cls-2" d="M18.7132,22.39993c-.11949.01924-.14139.02223-.16308.02633-1.46938.27763-1.84877,1.17475-1.71771,2.60119.14131,1.53799.03189,1.54812-1.54915,1.54803-.61286-.00003-1.22601-.01209-1.83851.00257-.5797.01387-.8228-.25634-.80905-.82675.01695-.70304-.02204-1.40807.01249-2.10981.02066-.41998-.14773-.60089-.52785-.71988-.42804-.13399-.83404-.33833-1.33282-.54685-.59592.61616-1.21519,1.24578-1.82165,1.88749-.3701.39162-.71376.41441-1.09966.01654-.63195-.65154-1.27658-1.29105-1.92555-1.92574-.36528-.35723-.37598-.68628-.00366-1.04687.5379-.52095,1.04882-1.07018,1.5954-1.58155.2573-.24072.22641-.43424.1492-.76355-.27943-1.19186-.98699-1.44782-2.14512-1.38506-2.07449.11241-1.84871.19092-1.85678-1.83661-.00217-.5446.00971-1.08942-.00194-1.63378-.01114-.52039.23302-.73783.74648-.7273.74874.01535,1.49976.03135,2.24595-.01497.2025-.01257.49224-.20523.5701-.38829.60082-1.41257.58656-1.41698-.5084-2.51335-1.46936-1.47125-1.43453-1.1714.00843-2.62977.30328-.30652.60847-.61115.91385-.91559.68836-.68623.81534-.68856,1.48472-.02274.46661.46413.91121.95345,1.40839,1.38196.15423.13292.4619.17559.67662.13615,1.20345-.22109,1.52136-.94645,1.44842-2.15334-.12472-2.06336-.17084-1.8462,1.84696-1.85244.52207-.00161,1.04453.01265,1.56611-.00326.55276-.01686.78517.2493.77947.78318-.00751.70337.02632,1.40831-.01014,2.10984-.02305.44351.14554.64978.55636.77378.40952.12361.79634.32238,1.31864.54065.57019-.59871,1.18454-1.23101,1.78367-1.87741.39403-.42512.75044-.41757,1.15043-.00026.6123.63881,1.23909,1.26449,1.87728,1.87748.40179.38593.37822.72237-.01189,1.09573-.52455.50202-1.01287,1.04287-1.55041,1.52991-.29339.26583-.22472.47987-.14389.82251.27419,1.16228.96073,1.54032,2.09388,1.33521.39551-.0716.81513-.00551,1.22362-.0113.45673-.00648.664.2239.6637.66763-.00065.95307-.00368,1.90615.00141,2.85919.0026.4866-.24188.70061-.71441.69847-.74904-.0034-1.4985.01396-2.24699-.00647-.342-.00934-.46653.13366-.6495.42573-.64968,1.03706-.4376,1.81053.53502,2.48019.29414.20252.51001.51537.77833.75945.39744.36154.43299.70512.03059,1.0946-.6522.63127-1.29482,1.27287-1.92759,1.92361-.39213.40326-.73713.3493-1.10197-.03195-.59577-.62258-1.2031-1.23408-1.80779-1.85255ZM13.68587,5.482c0,.92231-.01326,1.75738.00543,2.59174.00979.43695-.18823.64539-.58787.78363-.61783.21371-1.23968.4401-1.81451.74617-.46961.25004-.7902.19113-1.13305-.18529-.5481-.60177-1.12237-1.1797-1.62384-1.70324-.54411.54065-1.02051,1.01403-1.57059,1.56062.53998.51479,1.09965,1.07518,1.68967,1.60157.40418.3606.46781.69924.19277,1.18769-.28613.50811-.53041,1.05914-.67616,1.62166-.15811.61023-.49249.79177-1.07661.7676-.76294-.03157-1.52816-.00773-2.31383-.00773v2.08553c.81292,0,1.58117.02507,2.34687-.00833.56167-.0245.87021.1544,1.02899.731.16048.58276.41798,1.14913.70597,1.68336.24834.46067.20239.78887-.17708,1.13713-.59716.54805-1.1664,1.12652-1.69255,1.63866.51274.56737.96117,1.06358,1.47251,1.6294.59846-.62592,1.17462-1.20394,1.72105-1.80881.35236-.39003.6751-.4017,1.13164-.14689.52911.29532,1.10402.53326,1.68644.70104.50377.14512.71012.39052.69249.91061-.02746.8102-.00727,1.62201-.00727,2.46365h2.12576c0-.8568.01877-1.66976-.00705-2.4813-.01547-.48625.16625-.73408.6409-.88094.60163-.18614,1.20141-.41762,1.75038-.72245.46752-.25961.78222-.20993,1.12833.16985.54892.60232,1.12688,1.17818,1.65676,1.72809.54405-.52953,1.02509-.99773,1.55961-1.51799-.57644-.56427-1.14462-1.14673-1.74278-1.69658-.3877-.35639-.39361-.68657-.14918-1.13904.28845-.53393.53942-1.10275.70219-1.6856.15169-.54316.43435-.73031.97229-.71077.7884.02865,1.57861.00738,2.40781.00738v-2.08385c-.80223,0-1.56915-.02352-2.33386.00761-.58835.02395-.92068-.16821-1.06855-.77853-.12629-.52125-.32587-1.05096-.61275-1.5006-.37311-.58479-.2659-.97789.22482-1.40567.57249-.49907,1.0978-1.05223,1.62002-1.55906-.54725-.57092-1.00104-1.04433-1.52091-1.58668-.58608.61447-1.16031,1.19413-1.70747,1.7983-.34585.38189-.67063.42597-1.13355.17223-.53157-.29138-1.10409-.53129-1.68582-.70114-.52965-.15464-.73603-.42071-.71071-.96915.03634-.78697.00927-1.57688.00927-2.39412-.17093-.0225-.27812-.04799-.3855-.04882-.54317-.00417-1.08638-.00192-1.74051-.00192Z"/><path class="cls-2" d="M7.90773,31.86242c-.01256-.87725.63967-1.56706,1.50645-1.59324.9012-.02722,1.62644.65178,1.6428,1.53805.01604.86904-.7159,1.60929-1.58838,1.60641-.8596-.00284-1.54851-.6875-1.56087-1.55122ZM9.41908,31.0693c-.21687.40622-.42639.6222-.40537.81276.01821.1651.33643.44827.45326.41758.1981-.05204.45491-.29787.47536-.48532.01855-.17007-.2451-.3709-.52325-.74501Z"/><path class="cls-2" d="M26.87395,31.85071c-.00932.87904-.7497,1.5901-1.62618,1.56178-.85866-.02774-1.52743-.72867-1.5203-1.59341.00738-.89607.71587-1.57402,1.62042-1.55057.86402.02239,1.53522.71829,1.52607,1.5822ZM26.07027,31.83882c-.39217-.24971-.59156-.47497-.78402-.46919-.16408.00492-.46664.29949-.44639.42313.03246.19824.26117.47397.44403.50612.17117.0301.39053-.21375.78638-.46006Z"/><path class="cls-2" d="M20.00308,30.26703c.87525-.00899,1.56062.64707,1.58408,1.51632.02424.89822-.66166,1.62045-1.5477,1.62966-.86979.00904-1.61307-.73035-1.60273-1.59432.01024-.85497.7046-1.54281,1.56634-1.55166ZM20.04497,31.07186c-.26202.37977-.52048.59173-.49523.76151.02769.18619.29891.42448.49905.46436.12457.02482.43336-.2688.44342-.43275.01182-.1926-.21047-.39955-.44724-.79312Z"/><path class="cls-2" d="M29.00358,31.82893c.0026-.86867.67531-1.54928,1.54272-1.56082.89278-.01188,1.61809.6947,1.61468,1.57297-.00335.86239-.76016,1.59304-1.62776,1.5715-.85625-.02126-1.53221-.7211-1.52963-1.58365ZM30.55786,32.59414c.25819-.37649.51759-.5905.49201-.76204-.02746-.18417-.3074-.42471-.50646-.45633-.13323-.02117-.43923.27314-.44735.43718-.00953.19273.21975.39725.4618.7812Z"/><path class="cls-2" d="M14.76671,30.2679c.86127.00808,1.5534.69419,1.56429,1.55069.01105.86889-.7264,1.60371-1.59983,1.59416-.84788-.00928-1.55166-.71329-1.56116-1.56168-.00988-.88276.70496-1.59154,1.5967-1.58317ZM14.7667,31.08604c-.26046.36728-.50314.56129-.50352.75577-.00032.16274.2991.47058.43619.45494.20145-.02299.49116-.2536.52886-.43927.03396-.16722-.2206-.393-.46154-.77145Z"/><path class="cls-2" d="M14.75511,9.69899c3.20533.00393,5.80885,2.60486,5.80133,5.79554-.00753,3.19255-2.62055,5.79748-5.81298,5.79498-3.1908-.0025-5.80293-2.61921-5.7977-5.80786.00525-3.20481,2.59896-5.7866,5.80935-5.78266ZM14.76538,20.21524c2.60389-.00581,4.72268-2.11435,4.73253-4.70962.00994-2.62081-2.13333-4.75597-4.76477-4.74674-2.60255.00913-4.72448,2.12058-4.73566,4.71228-.0113,2.62003,2.12933,4.74997,4.7679,4.74408Z"/><path class="cls-2" d="M14.72173,19.69296c-2.34765-.01305-4.22199-1.91932-4.19628-4.26779.02512-2.29537,1.95282-4.18151,4.25048-4.15882,2.34547.02316,4.21824,1.93602,4.19212,4.2819-.02575,2.31284-1.91579,4.15767-4.24631,4.14471ZM17.89247,15.47341c-.00641-1.74278-1.45243-3.17692-3.17426-3.14819-1.74476.02912-3.13387,1.46068-3.11497,3.21017.01849,1.71127,1.42734,3.10311,3.14248,3.10453,1.74406.00144,3.15318-1.41652,3.14675-3.16651Z"/></svg>