<?xml version="1.0" encoding="UTF-8"?><svg id="Layer_1" xmlns="http://www.w3.org/2000/svg" viewBox="0 0 40 40"><defs><style>.cls-1{fill:none;}.cls-1,.cls-2{stroke-width:0px;}.cls-2{fill:#fff;}</style></defs><rect class="cls-1" x="0" width="40" height="40"/><path class="cls-2" d="M22.78947,9.90959h2.60828c.16063-.87124.75604-1.12916,1.56621-1.05065.42651.04133.70541-.03815.9233-.50961.3427-.74153,1.02963-1.08626,1.85438-1.09327,1.04421-.00887,2.08855-.00214,3.13283-.00214-.04824-.06227-.09649-.12453-.14473-.1868.25105-.29158.50115-.82699.75332-.82796.693-.00267.49026.6386.5164,1.07504.01841.30735.00356.61669.00356,1.00914.65973,0,1.27601.00593,1.89212-.00214.39192-.00514.75951.06402.76264.53489.00311.46994-.35953.54877-.75425.54352-.60029-.00799-1.20076-.00209-1.85072-.00209v2.1367c.63899,0,1.28422-.05004,1.91463.02472.25089.02975.46901.33568.70204.51588-.23577.17764-.45657.47757-.71029.50861-.61273.07495-1.24084.02432-1.95627.02432,0,.471-.00658.90762.00197,1.34395.00762.38841-.05298.76131-.52275.77552-.47079.01424-.56571-.34407-.55667-.74116.00192-.08394-.01926-.16841-.03669-.3077-.97025,0-1.92575-.01795-2.88029.00484-1.04147.02486-1.78975-.38406-2.28569-1.31984-.09068-.1711-.45937-.28536-.69255-.27432-.82633.03911-1.46338-.1557-1.63568-1.06689h-2.63198c-.26903,1.99591-1.16156,3.63082-2.84689,4.77303-1.18186.801-2.49684,1.14668-3.92332,1.08924-3.05462-.12302-5.09945-2.07039-6.12865-5.92481-.94607.05089-1.93658.00048-2.88363.17962-1.38874.26269-2.39662,1.51328-2.40332,2.92227-.02451,5.14957-.00859,10.29933-.00641,15.44903.00002.04179.02058.08358.0434.17049h.95939c.05481-.489.06305-.98049.17055-1.44923.4626-2.01694,1.71443-3.28763,3.73623-3.73128.49409-.10842.74869-.32931.96744-.75968,1.88471-3.70794,4.91614-5.74654,9.07788-5.75502,4.19153-.00854,7.24089,2.03757,9.13093,5.77447.22713.44907.46484.64474,1.00096.63403,1.11067-.02218,2.24267-.05667,3.33154.1225,2.70795.4456,4.70358,2.8505,4.75588,5.5915.01999,1.04742-.00543,2.09565.00923,3.14324.00752.53729-.2257.77194-.76358.76384-.95875-.01445-1.9189-.02748-2.87614.01325-.23213.00988-.53904.17402-.66977.36448-1.62303,2.36445-4.75264,2.35231-6.39421-.02678-.12178-.17649-.40803-.33834-.61896-.33978-3.1667-.02149-6.33365-.02167-9.50034.00062-.20808.00147-.48824.17472-.61071.3532-1.6278,2.3724-4.76265,2.37099-6.39221-.00273-.12229-.17813-.39466-.32084-.61453-.35-.41641-.05523-.84535-.01607-1.26908-.01608q-2.41449-.00001-2.4156-2.38109c-.00011-.24337-.00002-.48673-.00002-.82982-.48725,0-.94535-.00902-1.40293.00244-.4986.01248-.74063-.20428-.74011-.7156.0055-5.3727-.02336-10.74564.02125-16.11799.01791-2.15676,1.90078-3.95722,4.06334-4.03294.75587-.02647,1.51345-.00422,2.33175-.00422.28342-2.05739,1.20479-3.72135,2.95359-4.8612,1.19679-.78006,2.51857-1.10312,3.94243-1.0185,3.01065.17893,5.03045,2.13828,5.99147,5.85696ZM16.89937,32.89358h9.57976c.14584-2.63201,1.49147-4.19578,3.62384-4.25195,2.30914-.06083,3.62392,1.34713,3.9524,4.25743h2.61881c0-.92412.01221-1.81124-.00238-2.69792-.03763-2.2856-1.62181-4.22147-3.87826-4.62931-.82378-.1489-1.70216-.20782-2.52651-.09506-1.45475.19899-2.17826-.37301-2.84062-1.67879-2.15903-4.25624-7.30535-5.93674-11.62927-3.94774-2.16628.99649-3.65704,2.65494-4.61512,4.80999-.22704.51068-.51168.76737-1.12948.83279-1.58215.16755-2.82156,1.0448-3.12813,2.59519-.30913,1.5633-.21194,3.20688-.29279,4.81571h2.69102c.32896-2.91348,1.6458-4.32387,3.95243-4.26232,2.13437.05695,3.47796,1.61811,3.62433,4.25196ZM16.39499,5.11784c-2.92863-.02904-5.36806,2.33393-5.40772,5.23821-.04059,2.97213,2.31593,5.4183,5.25653,5.45649,2.96726.03855,5.40993-2.32806,5.44097-5.27154.03126-2.96432-2.33857-5.3939-5.28978-5.42316ZM32.88137,12.60127v-4.27156c-1.08787,0-2.12974-.01819-3.17057.00683-.62351.01499-1.03151.43588-1.05333,1.06323-.02468.70969-.02464,1.42155-.00002,2.13124.02178.62787.42796,1.04785,1.05322,1.06327,1.04081.02566,2.08271.00699,3.1707.00699ZM15.79707,32.37548c-.01189-1.46589-1.22894-2.65753-2.69995-2.64359-1.46778.01391-2.65893,1.2291-2.64553,2.69893.01338,1.46737,1.23168,2.66117,2.69921,2.64493,1.46803-.01625,2.65819-1.23069,2.64627-2.70027ZM30.28025,35.07575c1.46804-.01644,2.65803-1.23106,2.64589-2.70066-.01211-1.46581-1.22939-2.65734-2.70035-2.6432-1.46778.0141-2.65873,1.22946-2.64514,2.69932.01357,1.4674,1.232,2.66098,2.69959,2.64454ZM27.52143,10.98629v-1.00874h-.9618v1.00874h.9618Z"/><path class="cls-2" d="M19.55204,25.45015c-2.31661,0-4.63322.00266-6.94982-.00139-.84843-.00148-1.06859-.32381-.68205-1.07432,1.60092-3.10837,4.1641-4.79825,7.65813-4.78739,3.46451.01076,6.00879,1.69474,7.59612,4.77988.38777.75368.17034,1.08016-.67256,1.08173-2.3166.00433-4.63321.00149-6.94982.00149ZM20.11769,24.33023h5.83888c-1.39744-2.2057-3.2984-3.40108-5.83888-3.67542v3.67542ZM13.1429,24.32848h5.83564v-3.67302c-2.53859.27642-4.44055,1.46903-5.83564,3.67302Z"/><path class="cls-2" d="M21.9857,26.52454c.26622-.00046.55809-.06821.79092.01992.20459.07744.47281.32842.47422.50467.00142.17627-.2768.48492-.46104.50806-.54602.06859-1.11153.06863-1.65775.00113-.18642-.02303-.46761-.32467-.46936-.50135-.00175-.17579.26331-.44055.46532-.51039.25757-.08905.5693-.02159.85769-.02204Z"/><path class="cls-2" d="M14.72858,11.53754c-.7244,0-1.3487.03019-1.96733-.01576-.22815-.01695-.55934-.16613-.6306-.34147-.06918-.17021.06748-.52504.2291-.67224,1.5138-1.37878,3.04682-2.73677,4.59239-4.07994.15645-.13596.50024-.2499.63534-.16954.18104.1077.3296.41059.341.63726.04011.79752.01558,1.5983.01558,2.4976.64211,0,1.25837-.03693,1.86657.01698.26791.02375.61463.17285.74305.37877.07829.12553-.13019.53446-.31395.70202-1.46369,1.33466-2.94478,2.65069-4.44294,3.94656-.18493.15996-.56638.29723-.73944.21066-.18278-.09144-.30152-.45955-.31449-.71362-.03943-.77223-.01428-1.54775-.01428-2.39729ZM14.00568,10.46354c.42443,0,.64609-.00127.86773.00023.82714.00558.92471.10102.92942.91949.00286.49664.00053.99331.00053,1.632.99358-.88546,1.86002-1.65761,2.85849-2.54742-.4207,0-.65742.0018-.8941-.00033-.78354-.00704-.89139-.11179-.89736-.88438-.00389-.50293-.00073-1.00592-.00073-1.66163-.98213.87173-1.85062,1.64259-2.86398,2.54204Z"/><path class="cls-2" d="M15.26587,32.37334c.0167,1.16378-.91643,2.13919-2.07726,2.17139-1.19191.03306-2.18949-.92105-2.20581-2.10968-.016-1.1656.91555-2.13949,2.07677-2.17115,1.1925-.03251,2.18924.92047,2.2063,2.10943ZM12.06085,32.35227c-.0287.57583.43383,1.08562,1.01202,1.11542.57099.02944,1.08735-.43893,1.11597-1.01224.02871-.57522-.43437-1.08504-1.01271-1.11491-.57452-.02967-1.08653.43479-1.11528,1.01173Z"/><path class="cls-2" d="M30.23155,34.54493c-1.18995-.01216-2.1482-1.0049-2.1197-2.19597.02781-1.16195.99779-2.09714,2.16289-2.08531,1.18966.01207,2.14825,1.00484,2.12021,2.1958-.02733,1.16058-.99913,2.09739-2.16341,2.08549ZM31.3179,32.43598c.01778-.57748-.45249-1.07658-1.03217-1.09545-.57682-.01878-1.07805.45289-1.09583,1.0312-.01777.5781.45192,1.07715,1.03151,1.096.57364.01866,1.07879-.45666,1.09649-1.03175Z"/></svg>