<?xml version="1.0" encoding="UTF-8"?><svg id="Layer_1" xmlns="http://www.w3.org/2000/svg" viewBox="0 0 40 40"><defs><style>.cls-1{fill:none;}.cls-1,.cls-2{stroke-width:0px;}.cls-2{fill:#fff;}</style></defs><rect class="cls-1" width="40" height="40"/><path class="cls-2" d="M13.90358,27.49646c.75398-.10063,1.46329-.19545,2.17265-.28994.46458-.06188.89688.00547.96939.55176.07824.58938-.36133.73882-.83983.80623-.62348.08783-1.24611.1817-1.91634.2799.63893,1.876,1.40884,3.5816,2.75613,4.96.71028.72668,1.53302,1.26629,2.59989,1.31087.4533.01893.8055.20164.78501.71605-.02223.55808-.41865.66897-.89342.65566-4.68748-.13143-8.67302-1.87448-11.80486-5.35851C-.76083,21.68036,4.14389,6.84872,16.59357,4.24052c8.82604-1.84904,17.79698,4.3104,19.23196,13.1922.29674,1.8367.32296,3.66383.00324,5.49845-.08473.4862-.2811.82902-.82301.72647-.54224-.10261-.59029-.50227-.5089-.98004.09529-.55944.13738-1.12794.21459-1.79686-.76507,0-1.4559-.00979-2.1463.00338-.47468.00905-.89678-.10176-.91258-.64266-.01694-.58018.41241-.71291.91682-.70444.67426.01132,1.34885.0028,2.10863.0028-.16038-3.22106-1.22659-6.0166-3.1114-8.46629-1.53516.55107-3.00321,1.07805-4.47218,1.60537.20544,1.29047.42859,2.61797.62306,3.94965.07939.54366.10657,1.0958.13894,1.64518.02517.42718-.11943.77586-.60167.81085-.49879.03619-.69055-.25912-.75578-.73591-.22921-1.67535-.48891-3.34656-.74211-5.01858-.01831-.1209-.07733-.23563-.11701-.35204-1.7197.17092-3.41747.33966-5.1526.51212v6.04915c.61642,0,1.22201-.00007,1.82759.00002.84788.00011,1.69579.00533,2.54361-.00145.47432-.00379.88076.11243.88655.6668.0058.55527-.39365.67994-.87212.67804-1.43902-.00569-2.87807-.00205-4.42609-.00205,0,.45588.00358.86966-.00097,1.28335-.00491.4465-.19906.74187-.67923.73588-.48461-.00605-.65558-.31861-.65798-.75829-.00216-.39653-.00045-.79307-.00045-1.22362h-6.08103c.01031,2.24285.31021,4.40325.87644,6.57847ZM7.98888,11.07558c-1.88961,2.4565-2.95431,5.25039-3.10697,8.41587h6.70999c.10327-1.18508.16504-2.32647.31186-3.45682.14649-1.12784.3782-2.24462.56906-3.34611-1.45128-.52204-2.91633-1.04904-4.48394-1.61293ZM7.9878,29.35714c1.57623-.56118,3.05419-1.08737,4.41365-1.57138-.29949-2.31441-.59341-4.58572-.88688-6.85358h-6.64017c.17981,3.18359,1.22967,5.97515,3.1134,8.42496ZM19.07232,13.51613c-1.66452-.19245-3.25669-.38522-4.8522-.54445-.12687-.01266-.3678.18475-.40119.32207-.18945.77925-.3784,1.564-.47959,2.35807-.16148,1.26715-.25395,2.54309-.37827,3.84321h6.11124v-5.9789ZM20.4838,5.32783v6.79309c1.60702-.15966,3.16706-.31465,4.83782-.48065-1.03742-2.61536-1.97198-5.1001-4.83782-6.31245ZM14.22813,11.64325c1.68265.16555,3.24212.31898,4.81485.47371v-6.77683c-2.82101,1.19341-3.75759,3.67029-4.81485,6.30312ZM12.90974,11.35846c.69013-2.07052,1.53891-3.88755,2.99825-5.55444-2.75611.79246-4.98194,2.1146-6.97505,4.18687,1.3876.47718,2.6493.91106,3.9768,1.36757ZM23.6474,5.80537c1.48965,1.67563,2.31498,3.5156,3.00937,5.55191,1.31787-.45542,2.58943-.89483,3.96651-1.37071-2.00144-2.06666-4.21373-3.39173-6.97588-4.18121ZM8.92474,30.44554c2.01831,2.06644,4.237,3.40069,6.98883,4.16319-1.49834-1.66559-2.31161-3.53476-3.02233-5.54381-1.31681.45834-2.5645.89262-3.96651,1.38061Z"/><path class="cls-2" d="M27.91829,25.64261c0-1.09735-.03154-2.09271.01849-3.08396.01579-.3129.17807-.77445.4046-.8763.22151-.0996.69695.08451.91253.29552,2.16383,2.11799,4.29915,4.26514,6.43738,6.40918.50919.51057.51291.77948.01023,1.28383-2.15248,2.1597-4.30381,4.32074-6.48139,6.45497-.20162.1976-.64854.35818-.86713.26573-.21943-.09281-.40181-.51876-.41552-.80748-.04888-1.02975-.01912-2.06323-.01912-3.16304-.5995,0-1.14392.00002-1.68834,0-1.65213-.00009-3.3043.0069-4.95637-.00301-.95861-.00575-1.48838-.54129-1.49534-1.50279-.00919-1.27008-.01094-2.54036.00083-3.8104.0086-.92803.5274-1.45094,1.46626-1.45726,1.96975-.01327,3.93965-.00463,5.90948-.00497.22908-.00004.45817,0,.76339,0ZM34.26811,29.09492c-1.64829-1.64619-3.30135-3.29716-4.94348-4.93721.01996-.03257-.01709-.00015-.01752.03276-.00777.59243-.00899,1.18494-.01591,1.77739-.00964.8246-.19179,1.01353-1.0081,1.01507-2.13931.00404-4.27864.00146-6.41796.00152-.22293,0-.44586,0-.67245,0v4.06293c.2712,0,.49974,0,.72828,0,2.09696.00003,4.19392-.00203,6.29087.00109.87744.0013,1.07417.20307,1.07924,1.09032.00354.61863.00068,1.23729.00068,1.89678,1.72497-1.7126,3.37408-3.34988,4.97636-4.94066Z"/></svg>