<?xml version="1.0" encoding="UTF-8"?><svg id="Layer_1" xmlns="http://www.w3.org/2000/svg" viewBox="0 0 40 40"><defs><style>.cls-1{fill:none;}.cls-1,.cls-2{stroke-width:0px;}.cls-2{fill:#fff;}</style></defs><rect class="cls-1" width="40" height="40"/><path class="cls-2" d="M31.55941,30.04247c0-.33919,0-.57763,0-.81607.00008-2.93031.00248-5.86062-.00216-8.79091-.00073-.45972.08123-.86469.63764-.87579.54684-.01091.68143.37164.68134.84102-.00106,5.24831.00165,10.49662-.00336,15.74493-.00065.67677-.22437.88752-.91956.8878-7.17015.00284-14.34032.00915-21.51045-.00356-1.97359-.0035-3.51239-1.51202-3.51639-3.48833-.01792-8.85648-.01655-17.71304-.00193-26.56953.00329-1.99188,1.5641-3.52454,3.55687-3.52748,7.14828-.01056,14.29658-.00529,21.44487-.00292.7297.00024.94623.20891.94732.92588.00496,3.25832-.00042,6.51665.00483,9.77497.00079.49208-.11568.92233-.6872.90654-.57929-.01601-.63697-.47184-.63563-.95049.00794-2.84281.00386-5.68566.00382-8.52849,0-.23817,0-.47633,0-.76393H12.40213c-.01174.21334-.03527.44212-.03532.6709-.0019,7.93801.00468,15.87603-.01416,23.814-.00142.59826.15581.76787.76373.76547,5.90217-.02332,11.80447-.01401,17.70673-.014h.73631ZM31.52694,31.40762c-.1512-.01674-.27661-.04273-.40203-.04277-6.9018-.00178-13.8036-.00422-20.70538.00787-.31626.00055-.65664.08123-.94393.21473-.91284.42417-1.40072,1.4502-1.18342,2.392.24575,1.06509,1.08568,1.73554,2.23526,1.73648,6.85811.00561,13.71623.00316,20.57434.00026.14336-.00006.2867-.03802.42516-.05761v-4.25096ZM11.00086,4.82462c-1.6817-.23869-2.76519.7124-2.76584,2.40283-.00294,7.64636-.00132,15.29272-.00134,22.93908,0,.16346,0,.32692,0,.52021.49255-.20167.89807-.42193,1.33154-.53033.45591-.11401.93856-.12101,1.43563-.17774V4.82462Z"/><path class="cls-2" d="M14.55562,17.78882c.11984-.43737.19423-.89408.37001-1.30766.27348-.64342.28544-1.24366.01352-1.8953-.93428-2.23899.34897-4.41959,2.75849-4.70262.65242-.07664,1.13857-.37746,1.53252-.89019,1.49094-1.94046,3.9602-1.94435,5.44744-.0052.41069.53549.91945.82375,1.59467.902,2.30972.26767,3.62078,2.49078,2.72674,4.62977-.28955.69274-.27185,1.32767.01707,2.0186.87689,2.09705-.3692,4.27695-2.63061,4.57665-.77252.10238-1.32808.41812-1.79884,1.03445-1.36732,1.79012-3.92402,1.77157-5.28815-.03007-.45237-.59745-.99656-.90931-1.74811-1.00001-1.72901-.20865-2.92889-1.6046-2.99475-3.33041ZM15.94468,17.62333c-.01255,1.26649.71704,2.08595,1.84591,2.19903,1.04496.10468,1.85162.57622,2.48366,1.4013.9765,1.27474,2.40818,1.26186,3.38836-.03003.60033-.79124,1.37668-1.24877,2.36564-1.35958,1.58356-.17744,2.33498-1.45188,1.71425-2.92988-.39431-.93889-.39191-1.85365.00185-2.79239.61968-1.47735-.13295-2.74073-1.7221-2.92359-.96088-.11057-1.73312-.54559-2.32442-1.31259-1.04964-1.36152-2.418-1.37099-3.46687-.02201-.59234.76182-1.35243,1.21967-2.31523,1.33255-1.64948.19339-2.37122,1.4179-1.72966,2.96014.38154.91718.38522,1.81902-.00053,2.73401-.12501.29653-.19992.61419-.24085.74304Z"/><path class="cls-2" d="M22.10091,26.9702c-1.46058-.00012-2.92119-.00455-4.38174.00249-.45853.00221-.87262-.08515-.88236-.63141-.01041-.58373.42618-.68869.90544-.68859,2.89937.00056,5.79874.001,8.69811-.00028.45843-.0002.87454.12155.88592.64781.01249.5781-.42247.67622-.90904.67325-1.43873-.00879-2.87755-.00314-4.31633-.00326Z"/><path class="cls-2" d="M32.9631,17.41395c-.22856.18922-.47736.54892-.68059.52478-.25785-.03063-.58849-.33713-.67234-.59482-.04665-.14336.32766-.58674.54279-.60981.25053-.02686.53445.25784.80388.40734.00208.09084.00417.18167.00625.27251Z"/><path class="cls-2" d="M17.8016,15.49306c.00856-2.52417,2.33361-4.50137,4.78255-4.08075.47294.08123.81376.2653.72632.797-.08146.49529-.45565.56717-.8969.51895-1.70169-.18592-3.06952.84432-3.27786,2.45519-.19055,1.47332.87567,2.87441,2.36837,3.11223,1.58248.25211,2.94452-.74879,3.24759-2.4045.08503-.46454.27588-.83634.7962-.73786.61932.11721.57163.63233.49162,1.09966-.34666,2.02484-2.33282,3.57916-4.33718,3.40471-2.23764-.19475-3.90812-1.97826-3.90071-4.16463Z"/><path class="cls-2" d="M22.04406,15.20436c.81678-.83179,1.58202-1.60626,2.34128-2.38654.33156-.34074.70557-.60671,1.12008-.19743.41049.40532.16675.78345-.1761,1.12262-.89854.88892-1.78428,1.79079-2.68385,2.67864-.5081.50147-.76133.49837-1.26541.01341-.26692-.25679-.52956-.51847-.78477-.78686-.30015-.31566-.34435-.66968-.02606-.9825.2987-.29356.63267-.23251.93269.03808.15892.14333.31462.29023.54214.50058Z"/></svg>