<?xml version="1.0" encoding="UTF-8"?><svg id="Layer_1" xmlns="http://www.w3.org/2000/svg" viewBox="0 0 40 40"><defs><style>.cls-1{fill:none;}.cls-1,.cls-2{stroke-width:0px;}.cls-2{fill:#fff;}</style></defs><rect class="cls-1" width="40" height="40"/><path class="cls-2" d="M19.44938,3.4926c4.64069,0,9.28139-.00127,13.92208.00058,1.99805.0008,3.08786,1.0923,3.08837,3.0946.00167,6.53505.00179,13.07009-.00008,19.60514-.00057,1.99054-1.099,3.07915-3.10333,3.08038-3.10904.00191-6.2182.01436-9.32698-.01347-.50147-.00449-.73903.17916-.92637.60259-.38598.8724-.45948,1.75315-.20762,2.67259.10955.3999.2841.62057.75465.5844.59086-.04541,1.18804-.01878,1.78225-.00873,1.60449.02714,2.7585,1.17285,2.79658,2.76734q.03875,1.62243-1.57904,1.62243c-4.86928,0-9.73856.00001-14.60785,0q-1.38255,0-1.37489-1.41578c.01003-1.85505,1.13248-2.96813,3.00244-2.97584.50292-.00207,1.01074-.044,1.50747.01148.53428.05968.77155-.18429.83031-.65319.06199-.49459.16059-1.00422.10258-1.49052-.17348-1.4544-.48791-1.70278-1.92931-1.70278-2.90329,0-5.80658.0025-8.70987-.00092-1.9105-.00224-3.03231-1.11461-3.03309-3.01297-.00273-6.58074-.0026-13.16149-.00009-19.74223.00073-1.90778,1.11485-3.0228,3.02112-3.02407,4.66355-.00311,9.32711-.00101,13.99066-.00102ZM33.14738,15.56276c-1.1795,0-2.29551.02639-3.40933-.01155-.52777-.01798-.83722.12759-1.15375.59034-1.46203,2.13736-4.55718,2.15651-6.06609.06068-.16638-.23111-.32075-.63293-.22701-.8419.08765-.1954.5043-.28137.7915-.33864.28625-.05708.59799.01912.88717-.03003.58936-.10017.94953-.4695.95028-1.07559.00074-.60602-.35797-.97673-.9476-1.07748-.28908-.0494-.60077.02687-.88718-.02977-.28748-.05685-.70394-.1411-.79288-.33654-.09454-.20774.05849-.61121.22492-.84146,1.54904-2.14307,4.67895-2.0548,6.16796.15088.1196.17717.28506.45521.43535.45927,1.33658.0361,2.67453.021,4.00709.021v-5.4326H5.78292v14.70654h27.36446v-5.97313ZM35.3541,22.73617H3.53844c0,1.13554-.00047,2.22786.00011,3.32018.00082,1.55062.5579,2.11582,2.08997,2.1159,9.2069.0005,18.41381.00027,27.62071.00007.18275,0,.36633.00816.5481-.00591.85298-.06603,1.52333-.69301,1.54737-1.54347.03607-1.27574.00939-2.55325.00939-3.88677ZM4.6314,21.5764v-.80777c0-4.52384-.00059-9.04768.00042-13.57151.00026-1.16992.33844-1.51023,1.50261-1.51033,8.86906-.00079,17.73813-.00073,26.60719-.00008,1.19954.00009,1.5236.33248,1.52378,1.55972.00068,4.52384.00027,9.04767.00027,13.57151,0,.2434,0,.48681,0,.72002h1.09295v-.59634c0-4.79801.00137-9.59602-.00088-14.39403-.00063-1.3445-.61823-1.95288-1.979-1.95306-9.28051-.00117-18.56103-.00109-27.84154-.00011-1.397.00015-1.99777.60234-1.99819,2.00246-.00144,4.75231-.00055,9.50463-.00056,14.25694v.72257h1.09295ZM11.80077,36.35664h15.29429c.09607-1.4678-.52082-2.14513-1.92579-2.146-3.81346-.00237-7.62691-.00234-11.44037-.00002-1.40641.00086-2.02081.67432-1.92813,2.14602ZM33.13146,13.36898c-1.34767,0-2.64485-.02768-3.93999.01177-.63984.01949-1.02163-.1372-1.3252-.77139-.7466-1.55974-2.78619-1.82446-3.78008-.92112,1.13452.29903,1.90731.95288,1.93398,2.17274.02794,1.27825-.76503,1.96239-1.94995,2.29563,1.42665.93212,3.10346.49351,3.84243-1.02253.24933-.5115.54135-.69846,1.09926-.68408,1.36195.03511,2.72542.01145,4.11955.01145v-1.09247ZM16.76064,29.29737c.56582,1.27701.64416,2.50067.22159,3.77955h4.93767c-.4525-1.28599-.3201-2.52876.19378-3.77955h-5.35304Z"/><path class="cls-2" d="M10.69474,12.01744c-.3251-.34561-.50283-.54067-.68711-.72935-.5953-.6095-.59655-.72303.01047-1.33615.38578-.38966.79241-.76019,1.15905-1.1669.42425-.47062.80521-.4446,1.19606.02323.05834.06984.11846.14792.19531.19069.19662.10941.40314.20105.60571.2998.07884-.21285.22217-.42518.22391-.63866.00449-.54901.23419-.79913.7876-.78331.57087.01631,1.14318.01994,1.71374-.00108.58811-.02167.82377.24046.82217.8212-.00057.2055.16553.41146.25554.61721.18426-.09654.40177-.15791.54728-.29541.844-.7975.83845-.80375,1.68164.0387.35557.35526.70477.71709,1.06674,1.0657.35039.33745.3606.66273.00341.99714-.08332.07801-.17865.15083-.23809.24516-.13263.21047-.24611.433-.36739.65061.23251.08403.46254.23006.69803.23946.52488.02095.74057.26246.73038.77095-.01189.59367-.0115,1.18793-.00016,1.78163.00975.51035-.21169.74651-.73456.76716-.23477.00927-.46403.1577-.69579.24299.10681.20125.17568.43849.32682.59767.74915.78896.75677.8095-.01703,1.58445-.33902.33952-.6982.66131-1.01357,1.02146-.44072.5033-.83721.4703-1.24492-.02459-.08673-.10528-.17978-.21574-.29337-.28589-.13807-.08528-.35827-.22283-.44019-.17208-.13608.08431-.25243.29475-.26856.46249-.08725.90714-.11554.94593-1.02839.94834-.47992.00127-.96055-.01616-1.43959.00438-.56513.02424-.85546-.1858-.85217-.7893.00115-.21153-.1476-.42388-.22791-.63586-.20228.10072-.44327.16053-.60033.30902-.8038.75994-.8203.7683-1.58534.0055-.37212-.37103-.73609-.75059-1.11714-1.1122-.3765-.35729-.38879-.69649-.00093-1.04745.10151-.09185.21887-.17907.2855-.29365.11154-.19182.18814-.40393.27944-.60749-.19321-.07343-.38857-.21408-.57924-.20799-.63144.02017-.86507-.27034-.83597-.87483.02523-.52417.02546-1.0515-.00004-1.57564-.02963-.60897.21385-.88866.84113-.86852.21912.00704.44258-.12059.83781-.23859ZM10.9136,10.60181c.43166.56002,1.18377.87893.6338,1.72892-.3563.55066-.51931,1.25349-1.39269,1.05138v1.08593c.93993-.21319,1.0646.54311,1.41584,1.08428.55264.85145-.3175,1.1384-.58749,1.59736.28541.31081.5396.58761.79875.86981.51802-.35964.82201-1.1495,1.6777-.60316.5545.35403,1.25436.518,1.07884,1.38217h1.08033c-.21437-.98992.59836-1.06824,1.12691-1.4154.84652-.55602,1.09981.43307,1.50382.57696.35275-.29154.63018-.52084.91897-.75951-.33481-.52016-1.16679-.81474-.61245-1.66925.35404-.54574.48904-1.28482,1.39756-1.08272v-1.10307c-.98354.24114-1.07015-.56526-1.41864-1.09912-.55532-.85073.39638-1.11358.61114-1.61611-.26639-.29884-.50591-.56753-.75477-.8467-.55747.33343-.84512,1.196-1.69855.64237-.54247-.35191-1.29287-.47978-1.0859-1.40814h-1.11176c.2308.96129-.55125,1.0674-1.08919,1.41692-.85084.55283-1.1272-.35581-1.67606-.63601-.27077.26644-.52687.51844-.81615.8031Z"/><path class="cls-2" d="M19.4494,27.07691c-.90699.00064-1.65484-.75385-1.64607-1.66068.00876-.90653.77102-1.64627,1.67809-1.6285.88017.01724,1.60252.74578,1.61226,1.62605.01003.90596-.73793,1.66249-1.64428,1.66313ZM20.20372,25.44837c-.32707-.25443-.5405-.54341-.70459-.5177-.21611.03386-.39344.31499-.58745.4898.18614.18277.35075.46984.56548.51413.1613.03327.38698-.24534.72656-.48623Z"/><path class="cls-2" d="M17.80203,13.91958c-.00204,1.50814-1.23844,2.74005-2.74773,2.73777-1.50788-.00228-2.74125-1.23943-2.73888-2.74728.00237-1.50915,1.2378-2.7395,2.74835-2.73705,1.51003.00245,2.74031,1.23647,2.73827,2.74656ZM15.08334,15.55537c.90061-.01414,1.63983-.78336,1.61657-1.68216-.02329-.89998-.80084-1.6312-1.69989-1.59861-.87251.03162-1.58608.77482-1.58212,1.64779.00409.89976.76628,1.64711,1.66543,1.63299Z"/></svg>