<?xml version="1.0" encoding="UTF-8"?><svg id="Layer_1" xmlns="http://www.w3.org/2000/svg" viewBox="0 0 40 40"><defs><style>.cls-1{fill:none;}.cls-1,.cls-2{stroke-width:0px;}.cls-2{fill:#fff;}</style></defs><rect class="cls-1" width="40" height="40"/><path class="cls-2" d="M34.55502,28.32857c0-1.86174.04404-3.61969-.03301-5.37233-.0178-.40494-.47256-.77986-.68674-1.18922-.48601-.92889-1.22386-1.18226-2.26011-1.13992-2.09489.0856-4.19574.02555-6.29413.02552-1.72642-.00003-1.92294-.20002-1.92297-1.95685-.00003-1.98358-.00001-3.96715-.00001-5.95073,0-.24528,0-.49056,0-.83565-.31612,0-.57809,0-.84006,0-5.21214,0-10.42427.00023-15.63641-.00075-.248-.00005-.49856.0097-.74348-.02078-.56629-.07048-.9009-.40581-.95178-.96991-.0511-.56647.22388-.96523.7685-1.11977.27498-.07803.57848-.07564.86911-.07584,5.68596-.00396,11.37193-.0032,17.0579-.00275,1.37371.00011,1.63224.25792,1.67845,1.65655.00507.15352.03426.30624.06002.52533,1.34819,0,2.67687.03799,4.00211-.01313.90898-.03506,1.47306.28959,1.84773,1.13402.51068,1.15097,1.15364,2.24284,1.68021,3.38743.81468,1.77087,1.83514,3.39884,3.07023,4.90951.29832.36488.48362.92635.4952,1.4029.05201,2.1401.02602,4.28218.02108,6.42352-.00222.96405-.39168,1.35805-1.34984,1.36935-.81216.00959-1.62503.01867-2.43659-.00546-.34745-.01033-.5004.11017-.63537.43333-.73707,1.76474-2.29742,2.85597-4.08616,2.7976-1.91648-.06254-3.28406-1.00762-4.03685-2.77814-.1345-.31632-.26863-.45611-.62629-.45285-1.85004.01687-3.70041.0175-5.55043-.00071-.3525-.00347-.4996.12332-.63126.43798-.73695,1.76121-2.29962,2.85432-4.08891,2.79361-1.91586-.065-3.28845-1.00745-4.02924-2.78355-.15309-.36703-.33747-.45777-.69642-.44644-.7213.02277-1.44418.02001-2.16577.0023-.77843-.01911-1.24849-.47126-1.22557-1.14119.02193-.64114.46944-1.02532,1.24364-1.03913.7218-.01288,1.44467-.02195,2.16574.00412.34814.01259.50905-.1096.63869-.43134.73519-1.8245,2.26348-2.89726,4.08608-2.9026,1.82055-.00533,3.34689,1.07713,4.12541,2.87203.08703.20065.39441.4303.60356.4342,1.827.03402,3.65497.01155,5.48247.02681.34835.00291.50118-.1148.63206-.44189.72471-1.81113,2.28121-2.8931,4.09729-2.89165,1.81743.00146,3.34203,1.08624,4.12492,2.8807.08675.19884.386.39618.60915.4259.48377.06444.98208.01986,1.56785.01986ZM25.61682,14.11012v4.30239h6.09455c-.69562-1.38123-1.3448-2.6893-2.0198-3.98395-.07566-.14512-.29572-.30127-.45196-.30459-1.19114-.02529-2.38306-.01386-3.6228-.01386ZM15.48897,29.37211c-.00125-1.18744-.94906-2.15062-2.13691-2.17158-1.19533-.02109-2.20708.97902-2.20473,2.17938.00231,1.17655.96497,2.14966,2.14498,2.16826,1.20931.01907,2.19793-.96028,2.19665-2.17605ZM30.41683,29.38829c.00613-1.21582-.98234-2.20448-2.18686-2.18728-1.17202.01674-2.15517.99961-2.16329,2.16268-.00828,1.18623,1.01452,2.19996,2.20593,2.18637,1.18748-.01355,2.13822-.97207,2.14422-2.16177Z"/><path class="cls-2" d="M7.75569,20.67495c-1.44193.00013-2.88388.00408-4.3258-.00136-.86165-.00325-1.34637-.39198-1.35591-1.06729-.00952-.6743.49424-1.1096,1.32411-1.11112,2.95145-.00542,5.90292-.00544,8.85437.00003.82712.00153,1.33393.44062,1.32309,1.11307-.01053.6535-.48974,1.06002-1.2913,1.06425-1.50948.00796-3.01904.0023-4.52856.00243Z"/><path class="cls-2" d="M9.58989,16.38737c-1.50892.00067-3.0182.02066-4.52663-.00656-.96096-.01734-1.53398-.87141-1.04804-1.58474.19638-.28827.64468-.56732.98236-.57217,3.06222-.04407,6.12539-.03721,9.18813-.0192.73685.00433,1.18253.48366,1.16431,1.12741-.0174.61486-.45083,1.0384-1.16595,1.04818-1.53114.02093-3.06276.00641-4.59419.00708Z"/><path class="cls-2" d="M7.42619,24.98059c-.78767.00013-1.57561.0128-2.36293-.0036-.71984-.01499-1.20902-.4714-1.21136-1.09145-.00236-.62794.47413-1.07563,1.20756-1.08149,1.59774-.01276,3.19572-.01222,4.79347-.00024.74906.00562,1.19408.42698,1.19391,1.07893-.00017.64958-.45025,1.07891-1.19021,1.09398-.80984.01649-1.62027.00375-2.43045.00388Z"/></svg>