<?xml version="1.0" encoding="UTF-8"?><svg id="Layer_1" xmlns="http://www.w3.org/2000/svg" viewBox="0 0 40 40"><defs><style>.cls-1{fill:none;}.cls-1,.cls-2{stroke-width:0px;}.cls-2{fill:#fff;}</style></defs><rect class="cls-1" width="40" height="40"/><path class="cls-2" d="M9.53028,10.91737c0-1.00281.01926-1.91281-.00747-2.82146-.01521-.51703.19112-.69389.69552-.68795,1.59474.01876,3.18985.00673,4.78481.00661.22202-.00002.44405,0,.73669,0,0-.89268.01479-1.71544-.00568-2.53732-.01184-.47518.16938-.67253.65399-.66994,2.29917.01231,4.59848.01284,6.89764-.00043.49149-.00283.66211.21608.65874.67643-.00928,1.26355-.00291,2.52721-.00274,3.79083.00003.22266,0,.44531,0,.74124.28523,0,.50661,0,.728,0,3.21064.00002,6.42129-.00069,9.63193.00056.82039.00032.84818.02749.84825.8345.00077,8.32746.00084,16.65491-.00019,24.98237-.00009.76351-.04965.81272-.81394.81279-10.06692.00088-20.13384.00088-30.20077,0-.76488-.00006-.81467-.04935-.81478-.81195-.00106-7.83029-.00102-15.66057-.00013-23.49086.00009-.794.03337-.82443.86021-.82504,1.75668-.00128,3.51336-.00039,5.3499-.00039ZM23.97007,35.22092c.2385.01217.42148.02954.60447.02964,3.04384.00168,6.08776-.01047,9.13142.01249.5176.0039.65996-.14566.65896-.66091-.01535-7.91027-.01035-15.82058-.01253-23.73088-.00006-.21603-.0274-.43205-.0414-.63886h-10.34092v24.98852ZM23.0854,35.20856V5.06067h-6.53119v30.14789h6.53119ZM10.35095,35.20768h5.33647V8.24015h-5.33647v26.96752ZM4.15375,35.17188h5.33124V11.74239h-5.33124v23.42949Z"/><path class="cls-2" d="M30.87795,21.75309c0,.49754.00139.90893-.00041,1.32031-.00165.37731-.17457.56697-.57089.56027-.70292-.01189-1.40643-.01449-2.10922.00085-.43561.00951-.59189-.20933-.58851-.60781.00333-.39136.00073-.78277.00073-1.27283-.4456,0-.84989-.01528-1.25252.00404-.4567.02192-.63883-.19291-.63404-.62933.00727-.66172.01052-1.32373-.00091-1.98533-.00833-.48237.21824-.66919.68748-.6416.36748.02161.73724.00433,1.20101.00433,0-.46993-.00165-.89543.00049-1.32091.00191-.37803.17734-.56532.57285-.55849.70291.01213,1.40643.01457,2.10922-.0008.43735-.00956.5897.21308.5865.60993-.00315.39181-.00069.78366-.00069,1.27093.46342,0,.88831.00731,1.31281-.00227.35247-.00796.56168.14543.56709.50125.01133.74433.01065,1.48902.0017,2.23341-.00418.34834-.18968.52497-.55163.51632-.40992-.00981-.82025-.00226-1.33109-.00226ZM31.91061,19.29245c-.43765,0-.84555-.00856-1.25294.00237-.42209.01132-.60326-.18936-.59445-.60181.0087-.40699.0019-.81431.0019-1.23906h-1.64086c0,.45109-.00342.86146.001,1.27176.00413.38342-.1712.57425-.56295.56766-.4241-.00714-.84842-.00161-1.27016-.00161v1.67743c.43386,0,.82358.01245,1.21215-.00325.45549-.0184.63778.19616.62358.63629-.01302.40352-.00276.80779-.00276,1.19595h1.63945c0-.42243.01335-.79435-.00336-1.16492-.0212-.47022.17123-.69254.6561-.66821.38599.01936.77373.0039,1.19329.0039v-1.6765Z"/><path class="cls-2" d="M29.25967,32.82007c-.95284.00002-1.90654-.02427-2.8582.00927-.55654.01962-.78926-.16511-.7821-.74058.02111-1.69838.01591-3.39725.00252-5.09579-.00388-.49232.17213-.71643.68832-.71253,1.947.01471,3.89428.0171,5.84121-.00141.54843-.00521.72405.22818.71896.74718-.01647,1.67776-.01799,3.35593.00083,5.03364.00614.54676-.16774.79243-.7534.77002-.95145-.03641-1.90531-.00982-2.85814-.0098ZM32.01003,32.0047v-4.87512h-5.52914v4.87512h5.52914Z"/><path class="cls-2" d="M18.36233,12.1009c-.00001-1.32443.01845-2.64925-.00891-3.97311-.01127-.54556.19444-.75125.72765-.71872.45356.02767.91015.00408,1.36539.00589.79741.00317.85487.05506.8566.83436.00354,1.59345.00118,3.18691.00113,4.78037-.00003,1.05541-.01432,2.11108.00547,3.16611.00998.53229-.19605.75463-.73642.71979-.49458-.03189-.9942-.02986-1.48909-.00052-.53369.03164-.74074-.17138-.73037-.71687.02597-1.36533.00857-2.73148.00856-4.0973ZM19.19328,8.20116v7.88308h1.25851v-7.85736c-.13181-.01029-.2306-.02363-.32953-.02465-.28814-.00299-.57634-.00106-.92898-.00106Z"/><path class="cls-2" d="M14.66466,11.67961c.00181.93261-.71483,1.64691-1.64682,1.64145-.92707-.00543-1.63967-.73319-1.62819-1.66284.01104-.89433.72151-1.60236,1.61809-1.61255.9274-.01054,1.65512.70709,1.65692,1.63393ZM13.01572,12.53453c.46504.00746.87316-.40281.8633-.86783-.00935-.44106-.39675-.82713-.8374-.83451-.46537-.0078-.87729.4064-.86588.87068.01083.44085.3984.82459.83998.83167Z"/><path class="cls-2" d="M13.01387,15.40733c-.37101.00071-.74965.04485-1.10986-.01752-.1861-.03222-.33946-.25356-.50762-.38946.15671-.12535.30863-.35122.47096-.35897.78136-.03728,1.56661-.03694,2.34776.00314.15337.00787.29472.25002.44161.38413-.15601.12599-.29997.3365-.47048.36081-.38381.05471-.78077.01717-1.17237.01787Z"/><path class="cls-2" d="M13.01482,17.2817c-.37108.00075-.74962.04438-1.11015-.01729-.18575-.03177-.33944-.25094-.50762-.38543.15598-.12528.30715-.35105.46876-.35879.78154-.03743,1.56696-.03738,2.34833.00225.15363.00779.29544.24868.4427.38206-.15566.12548-.29937.33525-.46939.35935-.38397.05442-.78094.0171-1.17262.01785Z"/><path class="cls-2" d="M6.70442,26.65346c.90881-.01077,1.67139.74132,1.66982,1.64686-.00152.87904-.72812,1.6245-1.60782,1.64954-.90264.02569-1.67982-.71467-1.69841-1.61795-.01864-.90591.72401-1.66763,1.6364-1.67845ZM6.74044,29.14703c.47499-.01163.84303-.41619.81658-.89762-.0253-.46071-.39119-.79894-.85411-.78953-.48474.00986-.84474.40141-.81733.88896.02571.45744.40251.80926.85486.79819Z"/><path class="cls-2" d="M6.72164,33.70804c-.41335.00025-.83081.03344-1.23785-.01718-.14882-.0185-.27291-.23593-.40828-.36261.1337-.13104.26272-.36943.40187-.3755.82524-.03599,1.6536-.03616,2.4789-.00099.14045.00598.27113.24101.40633.37022-.13366.1286-.2557.34955-.4032.36811-.40689.05117-.82443.01769-1.23776.01795Z"/><path class="cls-2" d="M6.74077,31.14328c.37208-.00015.75208-.04514,1.11297.0184.18684.03289.33982.25814.50809.39649-.16129.12624-.31739.35285-.48474.3615-.76284.03941-1.53037.04336-2.29259-.00148-.17727-.01043-.34036-.2619-.50998-.40246.16266-.1241.31367-.33039.49038-.35544.38502-.05458.78312-.01686,1.17588-.01701Z"/><path class="cls-2" d="M29.23786,29.15457c-.47359.00081-.95269.04264-1.41818-.01872-.20065-.02645-.37313-.26652-.55842-.40955.18-.12754.35605-.35828.54065-.36533.96636-.03688,1.93567-.03712,2.90194.001.18083.00713.35249.24681.52838.37917-.17062.13754-.3301.37271-.51403.39371-.4878.05571-.98617.0189-1.48034.01972Z"/><path class="cls-2" d="M29.31958,30.08139c.47341.00026.9517-.03863,1.41775.01993.17952.02256.33119.26672.49555.40991-.16237.12413-.32121.3499-.48769.35567-.98679.03423-1.97609.03706-2.96263-.00013-.179-.00675-.34917-.24756-.52342-.38032.17224-.13511.33423-.36725.51868-.38674.5089-.05376,1.02719-.01859,1.54176-.01833Z"/></svg>