<?xml version="1.0" encoding="UTF-8"?><svg id="Layer_1" xmlns="http://www.w3.org/2000/svg" viewBox="0 0 40 40"><defs><style>.cls-1{fill:none;}.cls-1,.cls-2{stroke-width:0px;}.cls-2{fill:#fff;}</style></defs><rect class="cls-1" width="40" height="40"/><path class="cls-2" d="M23.23222,29.14905c-.42783.17801-.63321.29042-.85295.34919-.43501.11634-.64798.34048-.70221.82682-.08269.74159-.68404,1.22378-1.44225,1.24639-.6941.0207-1.38967.0194-2.08389.00111-.79139-.02085-1.38111-.5061-1.4716-1.28766-.05361-.46305-.26389-.66575-.67777-.77234-.24196-.06232-.48288-.1595-.69916-.28444-.51104-.29521-.94895-.3797-1.48495.04405-.49369.39029-1.25219.24907-1.74358-.20737-.52391-.48666-1.03234-.99242-1.51783-1.5173-.51075-.5522-.56108-1.29513-.09082-1.90337.27997-.36211.29-.66311.07331-1.03014-.10608-.17968-.20088-.37422-.25581-.57436-.17014-.61988-.42206-1.05979-1.18197-1.15501-.64957-.0814-1.01997-.70066-1.03578-1.4045-.01513-.67302-.01536-1.34692-.00026-2.01995.01856-.82726.49961-1.40061,1.32183-1.50661.39671-.05114.6109-.20733.71042-.58218.05895-.22204.1347-.44838.25019-.64503.34106-.5807.46281-1.09163-.02472-1.70987-.37321-.47327-.19179-1.19176.26346-1.67462.46181-.48981.93783-.96736,1.42599-1.43096.5948-.56488,1.34613-.63736,2.00807-.14517.34427.25599.62884.27148.97696.07119.18112-.10421.37465-.1988.57451-.25636.63162-.18193,1.10743-.41613,1.19956-1.21736.07262-.63149.64303-.97578,1.29092-1.00628.73518-.03461,1.4739-.02856,2.20982-.00333.74866.02567,1.32543.52326,1.41175,1.27993.05274.46226.26043.66732.67563.77372.24195.062.48163.1614.69899.285.50922.28956.94683.39002,1.48459-.04003.49073-.39245,1.25496-.25177,1.74379.20221.52396.48662,1.03263.99212,1.51838,1.51676.51018.55103.56229,1.2978.09542,1.90376-.27795.36076-.29393.66104-.07764,1.0301.11613.19816.22811.41092.28087.63168.14944.62534.4389.99764,1.155,1.09912.63469.08995.99538.62869,1.0298,1.27654.04014.75538.03154,1.51525.00426,2.27174-.02341.6492-.44018,1.25319-1.06798,1.31524-.7184.07101-.95899.47195-1.11313,1.05517-.03121.11809-.10706.22439-.23175.47646-.26312-.32358-.63746-.57561-.66766-.8637-.06643-.6337.57257-1.46647,1.20358-1.51659.84556-.06716.92809-.5256.87814-1.18777-.03157-.41848-.0133-.84142-.0042-1.26207.00874-.40377-.15094-.62332-.5783-.66106-.70386-.06216-1.14365-.46284-1.3666-1.12903-.11306-.3378-.23375-.67918-.40273-.99092-.39681-.73205-.45756-1.41135.09583-2.11388.11145-.14149.06749-.55057-.06144-.70867-.38374-.47054-.81446-.91737-1.29252-1.28903-.1817-.14126-.62381-.17188-.80659-.0471-.63281.43201-1.2299.45603-1.89545.11698-.39165-.19952-.80874-.35291-1.22293-.50358-.61391-.22333-.98693-.64834-1.04824-1.29194-.04285-.44979-.24264-.63575-.68408-.62558-.5681.01309-1.13683.0098-1.70509.001-.40298-.00624-.62624.14802-.66037.57756-.05622.70749-.46054,1.14286-1.12681,1.36513-.33803.11277-.68066.2311-.99199.40057-.73206.39848-1.40888.45382-2.11733-.08857-.14841-.11362-.57872-.0412-.75588.1-.45792.36495-.84609.81712-1.26388,1.23268-.26561.26419-.30076.53571-.05237.83494.49027.59063.48913,1.21505.14325,1.87848-.16437.31528-.30369.64862-.41129.98744-.23823.7502-.67734,1.21772-1.50356,1.32893-.19048.02564-.45782.36119-.48143.5769-.06598.60301-.02108,1.21796-.0234,1.82818-.00147.38588.187.56612.57174.60125.70361.06425,1.14536.46008,1.36932,1.12619.11354.33769.23302.67962.40235.9911.39777.73174.45795,1.41113-.09208,2.11487-.11174.14297-.07058.55086.0577.70841.38335.47084.81398.91774,1.29171,1.2899.18233.14204.62504.17627.80685.05189.63178-.43219,1.23031-.4671,1.89395-.12001.31505.16478.64919.30264.98819.41015.7508.23811,1.21696.67867,1.32915,1.50355.02593.19067.36147.45785.57736.48147.60327.06601,1.21849.02128,1.82898.02341.38642.00135.54637-.19268.60409-.57185.1302-.85527.68882-1.44238,1.54124-1.48415.2751-.01348.56907.35775.98535.64258Z"/><path class="cls-2" d="M5.92515,26.83087c-.30081.14271-.55997.26566-.81631.38728-2.63646-4.94053-2.31794-12.81867,3.31945-18.15179,5.54691-5.24752,14.58417-5.9825,21.21214-.3067.2703-.29448.53624-.61254.83196-.9.4857-.47212.89077-.36973,1.03286.27618.23919,1.08739.45416,2.18046.65833,3.27505.10108.54194-.16717.79954-.72861.69516-1.09524-.20362-2.18888-.41877-3.27649-.65935-.60664-.13419-.71085-.54452-.27061-1.00402.30215-.31537.63598-.6004.95564-.89898-3.7329-3.59532-10.71598-5.26333-16.85437-1.85346-5.80965,3.22726-9.6773,11.13476-6.06397,19.14063ZM31.03935,10.98632c-.13527-.66032-.24991-1.21991-.34442-1.68126-.48021.419-.95717.83518-1.49713,1.30632.63383.12905,1.18332.24093,1.84155.37494Z"/><path class="cls-2" d="M8.68007,32.13877c-.26365.30972-.5138.64946-.81071.94174-.45676.44963-.86466.34772-1.00034-.2599-.24721-1.10704-.46686-2.22068-.67354-3.3361-.0931-.50247.17658-.76613.69784-.67158,1.11637.20249,2.23043.42164,3.33769.66864.57269.12775.68182.54236.27152.97231-.30326.31778-.64893.59512-.97526.89007,3.39315,3.41384,10.37929,5.38854,16.65442,1.99307,6.33004-3.42518,9.74216-11.49273,6.24543-19.22884.2663-.13236.53716-.26699.80846-.40184,2.46872,4.43519,2.49938,12.10226-2.73481,17.60054-5.30266,5.57021-14.83573,6.86-21.8207.83189ZM7.69737,31.77406c.49185-.50994.93522-.96961,1.42416-1.47654-.59052-.11578-1.16433-.22829-1.79578-.3521.13421.66042.24635,1.21223.37161,1.82864Z"/><path class="cls-2" d="M17.23715,20.02769c.52812-.53382.96859-.97905,1.54637-1.56306-.32584-.27109-.69187-.52284-.98675-.84056-.17944-.19334-.39159-.53471-.32961-.72528.06702-.20607.41743-.38917.67619-.45316,2.72749-.67451,5.20578,1.50927,4.94345,4.36897-.04115.44855.05066.71992.39306,1.01334,1.32535,1.13575,2.62319,2.30376,3.92404,3.46784,1.20566,1.0789,1.30413,2.6249.24471,3.66074-1.0438,1.02056-2.55523.91472-3.61673-.26794-1.18002-1.3147-2.35533-2.63381-3.51617-3.96538-.25375-.29106-.48212-.41162-.90081-.3663-2.86268.30982-5.06339-2.09316-4.4617-4.85812.06102-.28041.23773-.66385.45492-.74376.19255-.07085.55286.17024.77311.35306.30406.25239.54613.57938.85591.91962ZM16.24094,20.26982c-.05071.04745-.10143.0949-.15215.14235.06357,1.98402,1.79185,3.35155,3.70102,2.88113.50929-.12549.81966-.00974,1.14809.36888,1.26744,1.46116,2.56348,2.89749,3.84122,4.3498.37007.42064.80143.69305,1.37571.60157.56353-.08976.95466-.41516,1.12957-.97172.19431-.6183-.0202-1.11335-.4807-1.52254-1.46178-1.29894-2.91814-2.60423-4.39676-3.8838-.39669-.34329-.52497-.66516-.3843-1.1996.32798-1.24604-.21789-2.57408-1.32132-3.20957-.46929-.27028-1.03169-.37905-1.55177-.56122l-.17503.30214c.2485.19161.50849.37028.74267.57801.31225.27698.30019.57666.00614.86984-.67009.66811-1.33753,1.33888-2.00936,2.00524-.27265.27042-.56224.27429-.82735-.00306-.22721-.23771-.43136-.49745-.64571-.74745Z"/><path class="cls-2" d="M21.60253,27.57949c-2.72536,1.25723-6.64878.03562-8.61513-2.68252-2.11307-2.92095-1.88249-6.97518.54595-9.59975,2.48575-2.68651,6.4713-3.25709,9.57194-1.37035,3.05838,1.86104,4.4368,5.66654,3.2222,8.97427-.51576-.28393-.8506-.54172-.71476-1.28158.67479-3.67522-1.72004-7.04675-5.38924-7.6878-3.53497-.6176-6.94042,1.83068-7.57305,5.44448-.7634,4.36079,3.15726,8.31833,7.51883,7.54302.71585-.12725,1.16025-.0073,1.43326.66022Z"/><path class="cls-2" d="M26.58298,27.16947c-.3183.2247-.52853.48312-.67866.45199-.1998-.04143-.3528-.30832-.5259-.47836.18054-.16245.34521-.42259.54682-.4553.15132-.02455.3501.24328.65774.48166Z"/></svg>