<?xml version="1.0" encoding="UTF-8"?><svg id="Layer_1" xmlns="http://www.w3.org/2000/svg" viewBox="0 0 40 40"><defs><style>.cls-1{fill:none;}.cls-1,.cls-2{stroke-width:0px;}.cls-2{fill:#fff;}</style></defs><rect class="cls-1" width="40" height="40"/><path class="cls-2" d="M34.11848,18.13133v13.03291c.28553,0,.54983-.01212.81264.00249.57016.03169,1.11801.28985,1.22501.81966.15773.78106.13702,1.6066.10749,2.41007-.00619.16838-.35987.37302-.59154.46918-.19953.08283-.45338.04352-.68322.04355-9.80894.00144-19.61787.00132-29.42681.00115-1.25622-.00002-1.40783-.15181-1.40804-1.40426-.00004-.23045-.00299-.46095.00075-.69134.01709-1.05258.58394-1.62878,1.62843-1.65512.18468-.00466.36959-.00066.59076-.00066v-13.06275c-1.74895-.49352-2.27213-1.76006-2.2256-3.45613.02128-.77561.1285-1.48146.52517-2.15068.24482-.41303.40894-.87441.65923-1.28356.73934-1.20861,1.13457-2.47742.99088-3.92374-.08115-.81686.35551-1.20297,1.16493-1.22525.62828-.0173,1.26169-.04398,1.88391.02002.21661.02228.40655.30367.60867.46672-.20548.15843-.40032.43359-.61844.45347-.66166.06031-1.33233.02183-2.0442.02183v1.82809h25.88085v-1.8269c-.26692,0-.51118,0-.75544,0-6.66505,0-13.33009,0-19.99514-.00002-.14671,0-.29343.00007-.44014-.00033-.35327-.00096-.72464-.02679-.71301-.49478.01161-.46725.39715-.4709.74073-.47112,3.26964-.00209,6.53929-.00148,9.80894-.00153,3.62595-.00005,7.2519-.00092,10.87786.00057,1.15382.00047,1.53519.31981,1.4629,1.43761-.07997,1.23664.16016,2.35408.82438,3.39759.23477.36883.36711.80314.60435,1.16999.61663.9535.7919,1.98204.73776,3.10504-.07136,1.47998-.62392,2.32807-2.01404,2.85123-.07672.02887-.14612.07716-.22001.117ZM9.16724,17.05448c-.46329.31268-.84213.68637-1.29584.84205-.47279.16222-.52824.41039-.52708.82652.01088,3.91592.00588,7.83188.008,11.74783.00012.21943.02252.43885.03442.6559h.79906c0-.2551,0-.48141,0-.70772,0-3.09927-.00059-6.19854.00037-9.29781.00033-1.05843.24081-1.30652,1.27751-1.30863,1.55031-.00316,3.10064-.00285,4.65096-.00015,1.07225.00187,1.28312.21308,1.28394,1.29478.00234,3.09927.00088,6.19854.00091,9.29781,0,.24022,0,.48045,0,.72053h17.66955c.03259-.06978.06513-.10698.06521-.14424.00846-4.18775.01655-8.3755.0114-12.56324-.00016-.13331-.10409-.32018-.21682-.39049-.52157-.32528-1.06337-.61814-1.62634-.9388-.50761.60894-1.21978,1.02527-2.15137,1.0236-.9194-.00165-1.61975-.43653-2.21399-1.12147-.62395.72314-1.34166,1.12747-2.27053,1.12216-.9233-.00529-1.60573-.47478-2.19663-1.11442-1.41143,1.50636-2.89432,1.50323-4.44087.02966-1.63494,1.47657-2.67314,1.47803-4.48987.00628-1.4544,1.47255-2.96706,1.46719-4.37199.01985ZM35.34072,33.91962c.23554-1.71096.13947-1.82264-1.50922-1.82264-9.17727,0-18.35455-.00016-27.53182.00096-.23003.00003-.48711-.04706-.6825.03906-.19614.08645-.43887.29403-.4704.48072-.0704.41685-.022.85376-.022,1.3019h30.21595ZM9.18605,20.77927v10.34338h5.2222v-10.34338h-5.2222ZM21.96546,13.10267c-.08146-1.12227-.15777-2.17367-.23452-3.23103h-2.96253c-.07404,1.09232-.1453,2.14371-.219,3.23103h3.41605ZM14.86356,9.85635c-.22931,1.07335-.45709,2.13949-.69004,3.22988h3.41386c.07432-1.09634.14553-2.14666.21896-3.22988h-2.94278ZM25.6529,9.88431h-2.95574c.07742,1.09464.15069,2.13058.22682,3.20687h3.41014c-.23125-1.0886-.45453-2.13972-.68122-3.20687ZM13.18488,13.11338c.23303-1.08789.45897-2.14271.70266-3.28037-.95913,0-1.83264-.0061-2.70579.00885-.09374.0016-.23663.10653-.27014.19595-.37646,1.00446-.73594,2.01527-1.11845,3.07557h3.39173ZM30.71204,13.11469c-.37832-1.05855-.71964-2.03892-1.08722-3.00936-.04506-.11895-.2287-.25974-.35154-.26303-.85412-.02286-1.70915-.01207-2.65526-.01207.24642,1.14569.47609,2.21352.70643,3.28446h3.38759ZM9.9557,9.82937c-.9374,0-1.7531-.00674-2.56845.00708-.12604.00214-.31656.06384-.36549.15679-.52801,1.00301-1.03362,2.0178-1.60011,3.1376,1.13375,0,2.11271.00965,3.09097-.01217.12285-.00274.30705-.14682.35256-.26709.36763-.97156.70887-1.9531,1.09051-3.02221ZM30.55152,9.8298c.38118,1.07126.71573,2.03572,1.07468,2.99102.04753.12649.2173.29165.33385.29438.99627.02338,1.99332.0134,3.1213.0134-.56083-1.11434-1.05778-2.11663-1.57582-3.10791-.05126-.09808-.23039-.18032-.35182-.18261-.83472-.01577-1.66988-.00829-2.60218-.00829ZM18.50923,14.10627c0,.5253-.03521,1.00444.00753,1.47653.08191.90482.8355,1.58061,1.71941,1.59195.87796.01126,1.65715-.65684,1.749-1.55778.04988-.48928.00889-.98781.00889-1.5107h-3.48484ZM13.08471,14.11096h-3.48632c0,.52812-.04732,1.02815.01012,1.51584.11018.93548.92748,1.60122,1.81816,1.54348.92285-.05982,1.61502-.77009,1.65495-1.71933.0182-.43268.00309-.86675.00309-1.34ZM27.42262,14.10637c0,.48781-.01639.92343.00336,1.3574.04305.94592.7462,1.65666,1.66712,1.70776.86923.04823,1.67598-.58905,1.7964-1.49599.06706-.50506.01205-1.02631.01205-1.56917h-3.47892ZM8.66413,14.11643h-3.51242c0,.51767-.02832.99737.00615,1.47252.06328.87236.78656,1.54393,1.65997,1.58379.83144.03794,1.6166-.55444,1.75423-1.39895.08601-.52775.06357-1.07317.09207-1.65735ZM35.34029,14.12809h-3.50871c.03898.61472.02061,1.18386.12277,1.73049.14564.7793.90968,1.33076,1.69652,1.3169.81231-.0143,1.58201-.62956,1.67736-1.42436.06356-.52981.01207-1.07342.01207-1.62303ZM14.07755,14.10257c0,.56489-.03855,1.0683.00878,1.56352.07647.80029.71851,1.39565,1.53602,1.49429.76633.09246,1.62166-.39557,1.80032-1.15774.14272-.60886.11028-1.25874.15627-1.90007h-3.50139ZM26.43659,14.12537h-3.46502c-.00236,1.03896-.23329,2.09518.8075,2.76507.61813.39785,1.27726.39179,1.88977-.0173,1.02934-.68748.76972-1.73914.76775-2.74777Z"/><path class="cls-2" d="M17.37339,20.74396v7.37793h13.50833v-7.37775c-.23594,0-.45954.00002-.68315,0-1.59258-.00016-3.18554.01627-4.77731-.01988-.2182-.00495-.56579-.23528-.61663-.42476-.0989-.36855.22767-.48378.55467-.48409,1.86497-.00175,3.72999-.00703,5.5949.0041.57788.00345.8996.32821.90135.90632.00755,2.49249.00552,4.98502-.00046,7.47752-.00133.55323-.32573.83676-.85106.90769-.16495.02228-.33472.01142-.50229.01144-4.25386.00047-8.50772.0011-12.76158-.00013-1.11924-.00032-1.36602-.24862-1.36658-1.36798-.00111-2.22025-.00176-4.44051.00032-6.66076.00095-1.01663.25453-1.27855,1.24755-1.28073,1.69735-.00372,3.39472-.00045,5.09207-.00113.34811-.00014.73619.00067.73575.46712-.00044.46351-.3818.46718-.73391.46654-1.7574-.00317-3.51481-.00145-5.34199-.00145Z"/><path class="cls-2" d="M12.7216,25.79122c0-.16657-.05566-.36324.01408-.4921.08726-.16124.27549-.37355.42377-.37643.45385-.00882.51773.3574.48803.70801-.03338.39405.20379.97927-.4842,1.01658-.46484.02521-.4593-.38733-.45748-.73094.00022-.0417.00003-.08341.00003-.12511h.01577Z"/></svg>