<?xml version="1.0" encoding="UTF-8"?><svg id="Layer_1" xmlns="http://www.w3.org/2000/svg" viewBox="0 0 40 40"><defs><style>.cls-1{fill:none;}.cls-1,.cls-2{stroke-width:0px;}.cls-2{fill:#fff;}</style></defs><rect class="cls-1" width="40" height="40"/><path class="cls-2" d="M26.9178,25.07919c.97803-.56165,1.83128-1.07082,2.70194-1.54824,3.31189-1.81609,7.24645.00582,7.90125,3.71812.38538,2.18487-.35046,4.08362-2.22813,5.26159-2.87478,1.80351-5.82954,3.48863-8.81726,5.09992-2.22228,1.19848-4.95419.47741-6.49484-1.56061-.29405-.38897-.59099-.50614-1.05128-.50374-3.19954.01665-6.39922.01254-9.59885.00733-2.42481-.00395-3.75147-1.33178-3.75268-3.74766-.00201-4.02238.01626-8.04488-.01178-12.06706-.00751-1.07691.29851-1.99053.95556-2.83215.94305-1.20796,1.83698-2.45416,2.76968-3.67038.5254-.6851.20977-1.45254.25003-2.18323.0046-.0835-.22145-.18559-.34702-.26937-.59501-.39699-.9369-.94166-.94344-1.66503-.00944-1.04436-.02299-2.0894.00353-3.13318.0284-1.11795.82669-1.95498,1.94367-1.96142,4.0216-.02319,8.04347-.02238,12.06509-.00175,1.11241.00571,1.92623.82114,1.97179,1.94517.04317,1.06487.03029,2.13346.00096,3.19928-.01809.65744-.31448,1.22224-.8894,1.5536-.37003.21328-.41023.47679-.44501.85601-.08204.89454.17625,1.61468.75449,2.30678.82492.98735,1.54235,2.06369,2.33765,3.07692.6462.82328.94697,1.73019.93115,2.77718-.02616,1.73145-.00711,3.46358-.00711,5.34193ZM25.57868,20.46099H6.95177v9.68997c.11388.02216.1971.05245.28034.05253,3.9739.00387,7.94782.00977,11.92165-.00697.19897-.00084.42397-.16905.59096-.3127.71568-.61562,1.35929-1.33154,2.13235-1.85989,1.04072-.71127,2.18368-1.27153,3.26451-1.92671.19136-.116.41416-.37654.41812-.57442.0333-1.66334.01896-3.32763.01896-5.06182ZM25.65142,19.06227c-.24941-.46007-.39859-.82704-.62532-1.13732-.90415-1.23727-1.84502-2.44777-2.74392-3.68874-.26032-.35938-.53571-.50312-.98584-.49663-1.84365.02657-3.68795.01772-5.53191.00689-.63473-.00373-1.05675-.47554-.77436-.89069.1605-.23594.56944-.41645.87128-.42373,1.66532-.04016,3.33212-.01927,4.99841-.0193.23198,0,.46395,0,.67337,0v-1.29659h-10.61681c0,.38064-.03455.73387.00699,1.07791.0946.78352-.18655,1.40134-.66872,2.00773-.96728,1.21647-1.88605,2.4722-2.80189,3.72845-.23395.3209-.38206.7044-.60815,1.13201h18.80688ZM25.81766,27.27168c-1.18121.68038-2.29556,1.32072-3.40795,1.96444-.19187.11103-.38304.22602-.56169.35675-1.6133,1.18053-2.10869,3.36364-1.16594,5.11988.94166,1.7542,3.08261,2.62705,4.90023,1.82077,1.44878-.64267,2.79538-1.51573,4.24311-2.3174-1.35045-2.33999-2.65604-4.60225-4.00776-6.94443ZM16.18705,9.74527c1.93005,0,3.86011.00446,5.79014-.00237.69324-.00246.92189-.2264.93177-.91104.01248-.86515.00031-1.73062.00367-2.59593.00235-.60306-.28079-.89107-.89483-.89009-3.86009.00615-7.72019.00454-11.58029.00186-.57466-.0004-.86162.26148-.85606.84761.008.84306-.00174,1.68628.00243,2.52939.00412.83374.18409,1.01764,1.01268,1.01941,1.86349.00399,3.72699.00125,5.59049.00116ZM30.97697,33.52659c1.22961-.71755,2.4035-1.34785,3.52008-2.06713,1.64158-1.05748,2.22301-3.15903,1.43285-4.93307-.78209-1.7559-2.73187-2.84175-4.54368-2.21405-1.54034.53365-2.94731,1.45236-4.44899,2.21893,1.39481,2.4153,2.70126,4.6776,4.03973,6.99532ZM18.93245,31.59262H6.96753c-.18206,1.70253.58992,2.6084,2.22758,2.61536,3.08576.01313,6.17162.00467,9.25743.0018.17146-.00016.3429-.03112.47991-.04441v-2.57275Z"/><path class="cls-2" d="M15.57846,26.21882c-.62044,0-1.15004.00203-1.67962-.00061-.46603-.00232-.95562-.04061-.96421-.64923-.0092-.65211.5043-.68763.993-.69118.52584-.00382,1.05172-.00086,1.65097-.00086,0-.63256.0063-1.18167-.00193-1.73058-.00697-.46501.08311-.885.64403-.89359.59896-.00916.69934.43224.6966.92046-.00297.52963-.00067,1.05928-.00067,1.70351.56162,0,1.08204.00109,1.60247-.00032.48916-.00132,1.01869.02973,1.03214.65877.01353.6328-.50473.68726-1.00147.68435-.5088-.00299-1.01764-.00066-1.63302-.00066,0,.58642-.00168,1.13061.00051,1.67478.00191.47569-.05821.94004-.66279.95276-.61046.01285-.68464-.43823-.67771-.9237.00755-.52896.00171-1.05812.00171-1.70391Z"/><path class="cls-2" d="M12.73211,13.83526c-.15855-.2679-.45779-.54943-.43355-.79962.02149-.22181.40927-.5743.62286-.56552.22268.00916.59208.37438.60185.5969.01104.25145-.30689.51734-.48176.77695-.10313-.00291-.20626-.00582-.3094-.00873Z"/></svg>