<?xml version="1.0" encoding="UTF-8"?><svg id="Layer_1" xmlns="http://www.w3.org/2000/svg" viewBox="0 0 40 40"><defs><style>.cls-1{fill:none;}.cls-1,.cls-2{stroke-width:0px;}.cls-2{fill:#fff;}</style></defs><rect class="cls-1" width="40" height="40"/><path class="cls-2" d="M29.87404,5.34835c.01228-.12787.02467-.19613.02453-.26437-.00252-1.15793.55181-1.60188,1.64699-1.23639.4273.1426.76757.14495,1.18981-.01182.96595-.35864,1.49984-.08756,1.99574.84985.08781.16599.3112.31222.50045.3643,1.16153.31965,1.53551,1.27275.97573,2.34185-.45844.87556-.48919,1.78888.08262,2.66467.1389.21274.28286.4507.32372.69396.19205,1.14358.0792,1.76157-1.27878,1.40842-.63055-.16398-1.28775-.22567-1.98079-.34175-.29063,1.5245-1.46049,2.15171-2.75017,2.67859.1668,1.39255.33644,2.76078.49346,4.13046.25591,2.23231-.07166,4.39185-.86553,6.48217-.64515,1.69873-1.85636,2.86237-3.42991,3.7547-.8551.48491-1.5864,1.19982-2.33658,1.85333-.54231.47243-1.03609,1.00329-1.52313,1.5341-.1124.1225-.18056.36599-.14712.52879.24481,1.19173.52071,2.37709.80211,3.6328h2.32172v1.144c-1.68215,0-3.34212.02292-4.99979-.02839-.21243-.00657-.53363-.36807-.59867-.61851-.34101-1.31302-.63697-2.63897-.90445-3.96929-.13143-.65368-.5066-.75451-1.05925-.61959-.04554.01112-.08964.03048-.13568.03684-1.36216.18819-2.14665.90756-2.28699,2.32845-.05603.56731-.3003,1.11606-.47796,1.74033h2.57371v1.13021c-1.8537,0-3.69982.01658-5.54533-.00987-.57016-.00817-.66405-.40603-.54536-.90002.41552-1.72935.85415-3.45421,1.21588-5.19491.14936-.71871.12611-1.47324.1637-1.97539-1.32-.62741-2.50969-1.10182-3.60523-1.73806-1.20553-.70013-1.90459-1.82721-2.23795-3.19336-.06133-.25134-.33432-.53976-.58026-.64293-1.45979-.61238-2.32703-1.90018-2.33867-3.51132-.00162-.22455-.11392-.49419-.26404-.66464-1.45469-1.65171-1.81099-3.48526-1.00964-5.54765.09295-.23922.09274-.54288.04812-.80159-.11127-.64514-.28534-1.27917-.41203-1.92202-.28383-1.44021.7084-2.82669,2.17355-2.84875,1.52691-.02299,3.04591.19884,4.41286.97079.92127.52026,1.65125,1.26024,2.08118,2.22547.53186,1.19407,1.02217,2.41011,1.45816,3.64219.34916.98671,1.01472,1.54704,2.05539,1.39566.78028-.1135,1.56616-.31666,2.29814-.60858,1.86995-.74576,3.51367-1.86239,4.96717-3.25613.99921-.95814,1.72519-2.05915,2.10113-3.42341.67722-2.45755,2.3762-3.78217,4.88144-4.11436.16203-.02148.32256-.05416.52601-.08883ZM9.76666,22.07112c.29841.22598.569.43089.99933.75677-.78559.49264-1.46196.91679-2.17589,1.36449.15452,1.01671.69622,1.86338,1.56438,2.49705,1.13841.83093,2.39996,1.3457,3.82361,1.44645,1.60123.11332,3.03639.51575,3.86658,2.10238.32856.62792.96006.94777,1.6715,1.04688,1.64414.22905,3.14248.29278,4.24847-1.41696.54801-.84717,1.56117-1.46238,2.47575-1.98836,1.38174-.79464,2.43684-1.81142,2.98532-3.31339.68447-1.87435.97882-3.80387.74748-5.79675-.17549-1.51184-.37168-3.0213-.54511-4.53337-.20189-1.76017.95495-3.34078,2.68829-3.695.09047-.01849.19838-.01657.26708-.0667.71397-.52088,1.0222-1.77185.47556-2.47654-.39514-.50939-.95577-1.00194-1.54746-1.22808-2.29509-.87716-4.97673.43802-5.65675,2.84655-.56977,2.01808-1.71599,3.56883-3.28773,4.85796-2.03288,1.66734-4.23721,3.01976-6.88634,3.46703-1.72475.2912-3.00227-.59162-3.53369-2.24068-.38571-1.1969-.89364-2.36182-1.43514-3.49914-.51975-1.09163-1.44501-1.78084-2.6161-2.07169-.77011-.19126-1.56098-.32842-2.35079-.40405-1.10969-.10625-1.70335.62254-1.46466,1.71643.07728.35415.16171.70673.24771,1.08107,2.04966-1.27071,2.7673-1.51278,3.83368-1.31495v.99686c-2.28751.27626-3.58614,1.25416-4.03012,2.99456-.36913,1.44696.08255,2.97973,1.10244,3.71745.17818-.24213.35644-.48439.56202-.76376.30678.20485.59292.39591.84113.56165-.33162.66756-.7768,1.25811-.9102,1.91215-.15547.76224.36539,1.37514.95095,1.84822.91515.73937,1.94753.61089,3.08873-.40455ZM31.13276,4.83505c-.05094.08444-.10188.16889-.15282.25333.18643.18089.34173.44991.56433.52837,1.45853.51409,2.43427,1.44183,2.7695,2.99112.03573.16513.23204.29557.35386.44211.11047-.0261.22094-.0522.33141-.07831-.59566-.90654-.31749-1.5937.25334-2.3013.29277-.36291-.12763-.51425-.46016-.48258-.95183.09065-.95806.10175-1.09215-.90487-.05463-.41011-.28069-.57141-.61788-.36132-.66315.41317-1.29541.44954-1.94942-.08655ZM13.12801,36.57778c.50168-.16865,1.09193-.20168,1.17339-.42228.41619-1.12705.70106-2.30251,1.04175-3.4957-.41421-.18173-.7645-.33541-1.16411-.51072-.34806,1.46662-.67426,2.84111-1.05103,4.42871ZM17.29925,31.39204c-.77879-.90727-1.24143-2.20589-2.9358-1.93338.07499.52621-.03835,1.36169.26957,1.56728.74325.49624,1.61982,1.15032,2.66623.3661ZM21.338,36.38314h1.09063c-.29721-1.32082-.5826-2.58912-.8658-3.84763h-1.08248c.29237,1.31167.5755,2.58185.85764,3.84763ZM35.38389,11.00658c.03908-.10595.07815-.2119.11723-.31785-.43306-.19581-.85285-.4438-1.30642-.55891-.15701-.03984-.39789.25029-.60047.38971.01916.0609.03832.1218.05749.1827.57739.10145,1.15478.2029,1.73217.30436ZM32.19357,11.64861c-.85836.21365-1.2072.75487-1.53966,1.54969.80682-.33399,1.3597-.67699,1.53966-1.54969Z"/><path class="cls-2" d="M7.604,37.44548c-1.07875-.03855-2.42477-.38593-3.57487-1.28464-1.64722-1.28718-1.54838-3.19191.23243-4.27405,1.39165-.84566,2.93433-1.12101,4.53039-.89275,1.72301.24641,2.95994,1.88896,2.79262,3.57427-.17299,1.74247-1.64121,2.91124-3.98057,2.87717ZM7.85232,31.90615c-.91155.26136-1.86907.42094-2.72443.80668-1.47515.66526-1.50991,1.85914-.13733,2.74737,1.12184.72598,2.37254.97361,3.69102.81909.81621-.09566,1.33558-.60023,1.65462-1.34414.48763-1.13699-.44154-3.01909-2.48388-3.02901Z"/><path class="cls-2" d="M7.674,28.39627v.90347c-1.16951.42366-2.2706.82254-3.46217,1.25419-.1059-.15776-.29616-.4412-.51643-.76935,1.184-.86752,2.44197-1.37889,3.9786-1.38831Z"/><path class="cls-2" d="M20.92927,16.38609c.35135.22147.64018.40353.93063.58661-.20773.48709-.39455.92517-.58138,1.36324.05656.03722.11312.07444.16968.11166,1.4258-.79359,2.09504-2.24904,2.95881-3.61661.31873.1489.62409.29155.98121.45838-.73723,1.43492-1.53376,2.73876-2.75561,3.7353-.07241.05906-.14843.11441-.22666.16554-.69295.45291-1.49693.55225-1.9011.18809-.60489-.545-.37568-1.20061-.15106-1.81904.14118-.38869.36337-.74801.57548-1.17317Z"/><path class="cls-2" d="M24.96473,18.00682c.34312.3639.58406.66761.87774.90663.11366.09251.36808.09704.52181.04119.69679-.25314,1.38052-.54216,2.18699-.8656.13092.15232.35427.41218.62288.7247-1.02306.84412-2.18464,1.37094-3.54019,1.30857-.92601-.04261-1.23282-.88499-.66923-2.11549Z"/><path class="cls-2" d="M31.04511,7.67492c.18019.28028.52858.58373.49399.83441-.03569.25865-.41642.6078-.69586.6621-.40742.07916-.74432-.26033-.65379-.69126.06249-.29742.35898-.54575.55089-.81602.10159.00359.20319.00718.30478.01076Z"/></svg>