<?xml version="1.0" encoding="UTF-8"?><svg id="Layer_1" xmlns="http://www.w3.org/2000/svg" viewBox="0 0 40 40"><defs><style>.cls-1{fill:none;}.cls-1,.cls-2{stroke-width:0px;}.cls-2{fill:#fff;}</style></defs><rect class="cls-1" width="40" height="40"/><path class="cls-2" d="M21.23998,31.24581c-.01775.2295-.03899.38189-.03973.53438-.00356.73847-.0016,1.47696-.0016,2.31833,1.06121,0,2.06415-.00005,3.0671.00001q1.35458.00009,1.36302,1.3868c.00107.17762.00015.35526.00015.6134.26728.01674.50231.04341.73742.04422,1.30525.00448,2.61053.00024,3.91578.00457.37567.00124.77506.03124.75867.54044-.01469.45656-.37766.48872-.73726.48865-7.08893-.00124-14.17786-.00122-21.26679-.00011-.36187.00006-.71425-.03975-.72722-.49907-.01314-.46541.34452-.52739.70259-.52894,1.30524-.00563,2.61051-.00305,3.91578-.00352.24132-.00009.48264-.00001.79495-.00001,0-.47939.0168-.87934-.00405-1.27732-.02913-.55597.24119-.77339.76924-.77044,1.10267.00616,2.20542.00078,3.30813-.00319.08792-.00031.17574-.02629.30927-.04765v-2.80054c-.27545,0-.51663,0-.75781,0-3.62323-.00004-7.24646.00099-10.86969-.0009-.82972-.00043-.89634-.10385-.94554-.92692-.12599-2.1078.5637-4.08589.95478-6.1081.52471-2.71318,1.14927-5.40694,1.69105-8.11702.12624-.6315.3957-.84204,1.03665-.84027,6.97635.0192,13.9528.0193,20.92916-.00005.646-.00179.90182.2236,1.0297.84809.81593,3.98448,1.68994,7.95716,2.48997,11.94472.16581.82643.11502,1.69874.13774,2.5506.01592.59693-.39136.65556-.87043.65443-3.62321-.0086-7.24645-.00463-10.86968-.00458-.24632,0-.49264,0-.82135,0ZM32.75109,29.20928c-.32634,0-.59299,0-.85964,0-6.68396,0-13.36791.00001-20.05187-.00009-.18003,0-.39115.05841-.53296-.01554-.22332-.11646-.40001-.32231-.59644-.49033.19712-.17022.38493-.47275.593-.48739.82868-.05831,1.66369-.02371,2.4963-.03053.28061-.0023.56105-.02539.86191-.03997.07369-1.10814.14196-2.1348.21334-3.20815h-7.49682c-.22169,1.05502-.44182,2.1026-.68295,3.25011.67535,0,1.27665-.00403,1.87787.00141.40414.00366.9106-.04822.90121.53403-.00858.53169-.48267.48932-.87019.48819-.66763-.00196-1.33528-.00054-2.00107-.00054v.98961h26.1483v-.9908ZM23.43616,24.94903h-7.52278c-.07198,1.09364-.14041,2.13358-.20944,3.18243h7.94563c-.07271-1.08421-.14143-2.10904-.21341-3.18243ZM31.9752,24.97403h-7.50496c.07942,1.10524.15292,2.12798.22696,3.15835h7.95172c-.23672-1.1097-.46009-2.15687-.67372-3.15835ZM16.00238,23.80251h7.35381c-.07904-1.10617-.15218-2.12965-.22611-3.16422h-6.91596c-.07243,1.08235-.1411,2.10858-.21175,3.16422ZM7.61456,23.83969h7.34198c.07783-1.08427.15289-2.12986.23363-3.25467-2.25359,0-4.45057-.00398-6.64739.0122-.10556.00078-.27806.1638-.30392.27751-.2179.95844-.40886,1.92299-.6243,2.96495ZM31.74244,23.85456c-.207-.98823-.41706-1.88055-.57223-2.78232-.06906-.40137-.248-.50434-.62854-.4992-1.37136.01853-2.74312.0072-4.11473.00716-.73616-.00002-1.47231,0-2.27122,0,.08613,1.14171.16602,2.2006.24702,3.27436h7.3397ZM22.82202,16.30373h-6.29762c-.07644,1.08966-.15067,2.14784-.22593,3.22069h6.76175c-.08128-1.09901-.15854-2.14361-.2382-3.22069ZM15.49982,16.26856c-2.04688,0-3.99727-.00509-5.94748.01105-.13499.00112-.36219.13821-.38832.24929-.22949.97558-.42304,1.95961-.6398,3.00153h6.73269c.07926-1.06434.15708-2.10929.24291-3.26186ZM30.83578,19.57499c-.23968-1.15077-.4604-2.21053-.67972-3.26354h-6.29346c.06695.9849.10755,1.92618.21768,2.85925.01807.15314.33756.37814.52523.38578.96453.03926,1.93151.01844,2.89763.01849,1.074.00006,2.14799.00001,3.33263.00001ZM14.76711,36.08785h9.79896v-.89847h-9.79896v.89847ZM20.15005,34.07056v-2.78526h-.9504v2.78526h.9504Z"/><path class="cls-2" d="M19.70805,10.42156c-1.3793.01869-2.55454-1.1182-2.58628-2.50187-.03199-1.39499,1.15569-2.60618,2.55491-2.60546,1.37579.0007,2.54238,1.16155,2.55286,2.5403.01046,1.3755-1.14157,2.54834-2.52149,2.56703ZM19.70634,9.37937c.86584-.0146,1.50692-.69748,1.47811-1.57449-.02733-.83184-.69516-1.45847-1.53996-1.44496-.83884.01341-1.47828.66495-1.47882,1.50681-.00056.87024.66872,1.52734,1.54066,1.51264Z"/><path class="cls-2" d="M20.4657,3.42611c-.35152.37089-.55073.76946-.8025.806-.46894.06806-.50937-.37652-.50924-.74962.00013-.38454-.01434-.86643.49381-.83838.24044.01327.45907.42172.81793.782Z"/><path class="cls-2" d="M15.2185,7.10317c.36345.3206.77064.5062.8184.75956.08806.46716-.34782.52978-.72682.52704-.40372-.00291-.90541.03118-.86025-.53683.01808-.22743.41897-.42443.76867-.74977Z"/><path class="cls-2" d="M24.07731,8.66116c-.35148-.36173-.73763-.57499-.76288-.82474-.04767-.47151.40556-.48808.77172-.48851.38689-.00046.86639.0015.81329.51539-.0251.24293-.44104.44549-.82213.79786Z"/><path class="cls-2" d="M19.02744,12.06731c.2283-.19769.4529-.55522.68564-.5606.52292-.01209.48068.46781.48341.84521.00271.37488-.03967.7785-.52373.76142-.57798-.0204-.50341-.50737-.64532-1.04603Z"/><path class="cls-2" d="M16.75494,5.72908c-.40235-.51822-.69768-.85641-.91999-1.23722-.02845-.04874.4595-.47967.47861-.46343.33998.28897.67152.60018.93136.95972.04646.06428-.23547.36586-.48998.74093Z"/><path class="cls-2" d="M22.57374,5.7334c-.24341-.38597-.51597-.69219-.46591-.75987.26335-.35614.60819-.65203.92475-.96883.17077.1728.51552.45006.4845.50171-.22715.3783-.52962.71139-.94334,1.22699Z"/><path class="cls-2" d="M16.36982,12.0012c-.27771-.37001-.57884-.6692-.53612-.7311.24916-.36103.56536-.68248.90154-.96693.03553-.03006.52445.3652.50595.3986-.22008.39731-.49656.76337-.87138,1.29942Z"/><path class="cls-2" d="M23.82196,11.20719c-.40007.26871-.71933.55197-.77327.50821-.3544-.2875-.65856-.63995-.94555-.99809-.01352-.01687.38144-.44729.43431-.41732.39376.22326.74913.5142,1.28451.9072Z"/></svg>