<?xml version="1.0" encoding="UTF-8"?><svg id="Layer_1" xmlns="http://www.w3.org/2000/svg" viewBox="0 0 40 40"><defs><style>.cls-1{fill:none;}.cls-1,.cls-2{stroke-width:0px;}.cls-2{fill:#fff;}</style></defs><rect class="cls-1" width="40" height="40"/><path class="cls-2" d="M15.40545,31.05796c0-1.17968.04332-2.2898-.01335-3.39479-.04757-.92762-.59021-1.61148-1.28829-2.20261-2.33527-1.97745-3.46991-4.51415-3.3585-7.56901.0843-2.31147.96085-4.31895,2.56957-5.98566.15175-.15721.45185-.17113.68307-.25158-.06767.24938-.05945.5678-.21417.738-3.38781,3.72686-3.09727,9.19573.70547,12.46081.84492.72546,1.43988,1.56692,1.63612,2.69331h7.67625c.20826-1.2567,1.01626-2.08859,1.93293-2.90716,3.65593-3.26471,3.75304-8.94749.27351-12.42259-.22026-.21998-.78219-.43526-.37557-.84154.37927-.37895.64157.13051.87073.35659,3.84967,3.79786,3.63607,10.12728-.50111,13.60982-1.09482.92158-1.62027,1.98548-1.53978,3.39929.04353.76463.00775,1.53378.00775,2.22279.89389.04965,1.75119.00804,2.57116.16347,1.26863.24048,2.26263.98359,2.97954,2.05906.20687.31034.40684.45499.80591.47103,1.31321.05275,2.3034.67778,2.97864,1.81968.10765.18206.36894.26846.54413.41689.1291.10938.23365.24778.34914.37325-.14204.10031-.27222.23255-.42977.29106-.13183.04896-.29564.01253-.4453.01254-9.79226.00013-19.58452.00201-29.37676-.00842-.31672-.00034-.87307.20541-.85848-.34615.01388-.52494.56165-.27359.88461-.33081.10365-.01836.21467-.01404.31998-.00108.71929.08852,1.22056-.06438,1.64217-.7939.57954-1.0028,1.62239-1.39491,2.77884-1.46202.19661-.01141.45994-.12052.56499-.27261,1.26417-1.83011,2.98102-2.61743,5.18912-2.32573.12411.01639.25037.01654.43745.02806ZM16.17375,28.3377v1.90588c.73623,0,1.43602-.00038,2.13581.00012.59845.00042,1.19804-.01776,1.7945.01722.14156.0083.27259.1963.40846.30164-.14027.12143-.26283.29212-.42569.35074-.17056.06139-.37984.01582-.57219.01586-1.10518.00023-2.21035.00011-3.37075.00011,0,.41223-.03657.75421.0081,1.08522.0775.5743.40913.95228,1.01562.95692,1.85932.01423,3.71888.01327,5.57822-.00012.57266-.00412.96791-.3471.99021-.89771.0499-1.23174.01561-2.4669.01561-3.73588h-7.5779ZM33.20983,35.86026c-.68412-1.08039-1.5446-1.57217-2.68801-1.47704-.45485.03784-.68044-.10537-.90107-.49668-.94897-1.68309-2.90968-2.56293-4.67779-2.11229-.18914.0482-.42025.26037-.47577.44377-.17695.58452-.46978,1.04441-1.02614,1.32228-.10743.05365-.24119.1257-.28514.22401-.31244.69879-.60468,1.4066-.89675,2.09595h10.95066ZM17.68582,35.84713c-.28928-.66658-.56939-1.33987-.87797-1.99983-.06222-.13307-.25033-.20116-.34951-.32414-.33566-.41626-.64985-.84993-.98796-1.2641-.15179-.18593-.31508-.44375-.51702-.4946-1.68538-.4244-3.64913.41516-4.5542,1.99724-.29144.50944-.58731.65508-1.15324.62062-1.10511-.0673-2.06921.56344-2.3823,1.46482h10.82221ZM17.57143,33.74311c.15522,1.26295,1.23707,2.17686,2.47819,2.12256,1.2332-.05395,2.24276-.98157,2.29528-2.12256h-4.77347Z"/><path class="cls-2" d="M22.79327,18.10499c-.61279.60114-.55115,1.1441-.22864,1.85706.31329.69256.39601,1.51719.44666,2.29254.04367.66849-.18952.77773-.82539.5825-.28431-.08729-.5682-.17592-.9144-.28319-.28721.59167-.55946,1.18761-.86717,1.76464-.09012.169-.27789.38946-.42666.3939-.14322.00428-.34333-.21381-.43226-.38028-.30096-.56335-.5637-1.14713-.86585-1.77463-.33119.10043-.66225.17199-.96962.30034-.55028.22979-.8329-.02382-.77797-.52423.09185-.83685.14384-1.73547.49851-2.46993.35514-.73541.24862-1.21631-.2565-1.77848-.8788.80387-1.75273,1.61955-2.649,2.40988-.18729.16515-.45706.2367-.68881.35138-.09707-.24732-.24911-.48744-.28261-.74309-.30416-2.321.37817-4.33804,1.88163-6.1138.19177-.2265.30828-.60099.29815-.90147-.11836-3.51049.97965-6.50331,3.63732-8.87765.4618-.41257.77844-.41484,1.24216-.00226,2.6082,2.32058,3.72494,5.24993,3.58719,8.68966-.02126.53103.11214.90794.45556,1.31481,1.47106,1.7428,2.03963,3.76838,1.71845,6.02977-.03013.21212-.13738.50678-.29362.57863-.13103.06026-.42332-.10676-.57972-.24576-.90948-.80831-1.79991-1.63807-2.70741-2.47032ZM22.82926,8.46878c-1.02454.22758-1.94577.59413-2.86573.59097-.91807-.00316-1.83486-.3767-2.79754-.59829.0099-.02182-.04073.07119-.07575.16975-1.23091,3.46423-.66146,6.71755,1.1761,9.81008.09279.15616.36704.27777.56254.28647.74557.03319,1.49443-.00887,2.24013.02282.38229.01624.59094-.13426.73801-.46011.35036-.77628.76985-1.5265,1.05863-2.32446.92118-2.54537.8912-5.09216-.0364-7.49724ZM19.96472,23.59465c.16912-.34106.26731-.5296.35724-.72199q.52125-1.11508,1.68789-.83635c.0765.01821.16111.00237.27343.00237.09896-.88669-.19482-1.65312-.63515-2.36835-.07423-.12056-.31794-.18702-.48551-.19117-.78977-.01958-1.58039-.01555-2.37044-.00304-.15715.00249-.39246.0283-.45697.1294-.47198.73971-.78736,1.53115-.66693,2.48986.27038-.07335.48818-.09831.67376-.18915.56521-.27666.86696-.06206,1.06437.48387.1344.3717.33104.72088.55832,1.20455ZM17.46694,7.47952c1.6061,1.21824,3.57722,1.20315,5.03236-.0106-.78674-.95804-1.57424-1.917-2.49887-3.04295-.92111,1.11019-1.7124,2.06391-2.53349,3.05354ZM14.22311,19.82305c.89708-.82189,1.68504-1.53554,2.4586-2.26448.08333-.07853.14554-.26667.11165-.36879-.28295-.85257-.59072-1.69689-.91378-2.60793-1.25408,1.51001-1.81554,3.17582-1.65646,5.24121ZM24.07283,14.5968c-.313.88552-.59985,1.68137-.87162,2.48233-.0422.12437-.07699.33672-.01133.39925.80377.76554,1.62693,1.51071,2.53332,2.34209.14258-2.05616-.40189-3.7178-1.65036-5.22367Z"/><path class="cls-2" d="M8.04353,23.54371c.15787.10024.27452.15166.35962.23524.07333.07201.12336.17566.16203.27386.41903,1.06398,1.13787,1.81907,2.21538,2.24077.18735.07333.43412.30722.4324.46453-.00176.16066-.24698.38991-.43523.46548-1.06998.42955-1.76614,1.18851-2.22578,2.23759-.27897.63671-.61781.63508-.89286-.0112-.46106-1.08334-1.21409-1.80234-2.28414-2.26734-.57723-.25084-.59043-.59352-.0427-.82783,1.11718-.47792,1.92008-1.22172,2.35638-2.36385.06187-.16197.22334-.28587.35491-.44725ZM8.10529,24.75362c-.38488.98648-1.04179,1.61493-2.02957,2.01716,1.02858.32612,1.6158,1.04956,2.05092,2.18593.35274-1.18163,1.0604-1.78304,2.14621-2.22168-1.14278-.36768-1.77434-1.02234-2.16755-1.98141Z"/><path class="cls-2" d="M31.78967,23.53616c.15306.10354.25493.14737.32015.22288.08232.09532.152.20982.1974.32752.40511,1.05056,1.12378,1.77717,2.17502,2.19465.19391.07701.33135.29629.49485.44991-.16674.1738-.30189.42696-.50553.50808-1.05336.41963-1.75109,1.15857-2.17918,2.1965-.07684.18632-.31216.43173-.46734.42688-.16165-.00505-.38367-.25215-.46033-.44159-.42285-1.04486-1.13777-1.76914-2.18548-2.18997-.19132-.07685-.43695-.29052-.45024-.45753-.01184-.14879.23315-.39683.41679-.4694,1.0733-.42411,1.79689-1.16965,2.22795-2.23188.07946-.19582.26623-.34806.41594-.53607ZM33.82506,26.74535c-.99614-.37406-1.59925-1.05743-1.99417-2.1785-.38526,1.13055-1.02002,1.8035-2.01053,2.19706.99797.3637,1.59933,1.0675,2.03994,2.18065.35087-1.17648,1.03089-1.7823,1.96477-2.19921Z"/><path class="cls-2" d="M7.21246,18.67442c-.21221.0007-.43804.04586-.63252-.01287-.17101-.05164-.30693-.21955-.45834-.33612.16368-.12349.31617-.32969.4933-.35364.39594-.05354.80812-.04874,1.20547-.00032.16403.01999.30698.21302.45952.32734-.14362.12497-.26899.30549-.43566.3603-.1915.06296-.41957.01461-.63177.01531Z"/><path class="cls-2" d="M32.78309,17.96031c.23253,0,.47638-.04265.69358.01506.14376.0382.24931.22033.37197.33802-.12315.11841-.2372.32521-.37113.33901-.43944.04529-.88938.05185-1.32824.0059-.15736-.01648-.29466-.22464-.44111-.34533.14687-.11896.2773-.29086.44493-.34297.19282-.05994.41856-.01392.63-.01392,0,.00141,0,.00282,0,.00423Z"/><path class="cls-2" d="M8.29116,11.12714c.52643.32767,1.03196.62668,1.5132.96069.0638.04428.05529.30655-.01344.39505-.06423.08272-.28584.13396-.38148.08597-.45155-.22657-.89196-.4791-1.31609-.75367-.09199-.05955-.15934-.26286-.13133-.37273.02839-.11138.18892-.18905.32914-.31531Z"/><path class="cls-2" d="M14.37646,7.83621c-.11952.13634-.19425.2966-.30376.32563-.112.0297-.31977-.02882-.37873-.11881-.27742-.4234-.53233-.8637-.76058-1.3155-.04905-.09709.00265-.31661.08635-.38899.08187-.07079.34661-.08317.38883-.02236.33511.48268.63628.98894.96788,1.52003Z"/><path class="cls-2" d="M27.16809,6.61013c-.32848.51775-.64642,1.0364-.99118,1.53655-.03653.05299-.29839.04202-.33703-.01702-.07955-.12156-.15178-.33081-.09829-.44198.21036-.43714.45348-.86183.72448-1.26415.06846-.10163.28774-.14398.4328-.1349.08052.00504.15089.1726.2692.32149Z"/><path class="cls-2" d="M30.4705,12.68566c-.14967-.11634-.3179-.18461-.32448-.26598-.01164-.14382.02872-.36419.12886-.432.4012-.27164.82488-.51523,1.26079-.72686.11146-.05411.32005.01318.4412.09121.06014.03874.07441.30184.02227.33814-.49712.34604-1.01292.66522-1.52863.99548Z"/><path class="cls-2" d="M35.95062,36.86942c-.21282-.29509-.43991-.4725-.42672-.62973.01363-.16249.26028-.42375.4058-.42429.15233-.00057.40985.24523.42892.40615.01872.15805-.20438.34477-.408.64787Z"/><path class="cls-2" d="M22.02028,31.232c-.21529-.30571-.44269-.48785-.42528-.6424.01843-.16355.26981-.30083.41944-.44959.14695.14873.39275.28569.41223.44958.0184.15474-.20121.3378-.40638.64241Z"/><path class="cls-2" d="M19.98226,12.95017c-.75052-.00387-1.33307-.58282-1.34327-1.33499-.01054-.77719.59177-1.38622,1.36497-1.38023.73442.0057,1.34468.60661,1.35858,1.33778.01426.75043-.61798,1.38136-1.38029,1.37744ZM20.73764,11.714l-.01083-.29912c-.25419-.15748-.53617-.47008-.75511-.43082-.2411.04323-.59656.41901-.58513.63297.01188.22246.38837.56881.6321.59309.221.02202.4779-.31653.71897-.49612Z"/><path class="cls-2" d="M18.63908,15.66441c-.0049-.7498.57007-1.34552,1.31611-1.36359.76169-.01845,1.40491.59954,1.40692,1.35172.00199.74726-.64982,1.39087-1.39418,1.37664-.72898-.01393-1.32402-.62506-1.32885-1.36477ZM20.72485,15.84678c.00461-.10141.00921-.20282.01381-.30424-.23898-.18068-.49209-.51943-.71316-.49967-.24386.02181-.45832.37259-.68558.58008.20616.22392.386.58516.62624.63124.21882.04197.5032-.25811.75868-.40742Z"/></svg>