<?xml version="1.0" encoding="UTF-8"?><svg id="Layer_1" xmlns="http://www.w3.org/2000/svg" viewBox="0 0 40 40"><defs><style>.cls-1{fill:none;}.cls-1,.cls-2{stroke-width:0px;}.cls-2{fill:#fff;}</style></defs><rect class="cls-1" width="40" height="40"/><path class="cls-2" d="M5.24472,28.71377c-.48385-.9858-.6979-1.92907-.40456-2.98407.17206-.61881-.39616-1.26396-.96102-1.62471-.32115-.2051-.67145-.65207-.67342-.99206-.00217-.37336.29224-.89247.61554-1.09221.58399-.36081,1.26881-.62606,1.94437-.74552.39947-.07064.94506.10878,1.27493.3672.40847.32.39623.86657.09728,1.32058-.45753.69485.02276,1.21857.38125,1.6658.32598.40669.77817.927,1.44932.42986.07381-.05468.1815-.09472.27168-.0915,1.14621.04092,1.32386-.88367,1.64126-1.65529.05288-.12855.0395-.3281-.02409-.45404-.6383-1.26418-.28639-2.60946-.31487-3.91973-.0031-.14241.3017-.2915.46368-.4375.17129.1951.47101.3783.49039.58747.06432.69442.02564,1.3982.03041,2.09837.00792,1.16243.20249,1.43023,1.32818,1.84109.78488.28647,1.15444.8435,1.15658,1.80651.00643,2.89748.00245,5.79499.00253,8.69249,0,.26354,0,.52708,0,.85581h8.05c-1.79152-2.39385-2.14316-4.94806-.41612-7.47001,1.72347-2.51676,4.21757-3.1128,7.1873-2.30043,0-1.19827-.00007-2.34852.00003-3.49877.00006-.70023-.00068-1.40046.00105-2.10068.00095-.38581.06605-.81347.54134-.74413.19194.028.45595.46659.46144.72315.03974,1.85838-.00048,3.71852.04319,5.57673.00755.32111.24849.66977.45922.94666.55038.72319,1.13381,1.42219,1.72546,2.1125.20383.23782.43824.49813.71498.61594.95321.4058,1.65628,1.04179,2.1439,1.95792.13776.25883.40955.51654.67969.62292,1.39004.54741,2.06063,2.031,1.47957,3.37355-.5653,1.30612-2.08534,1.84203-3.40986,1.24388-.26545-.11988-.61034-.09158-.91768-.08544-.73569.0147-1.47136.04793-2.20593.09217-.31301.01885-.66592.0029-.92788.14094-1.88423.99291-3.77182,1.03372-5.70437.15145-.33652-.15363-.72896-.25609-1.09654-.25897-2.7286-.02138-5.45745-.01086-8.18621-.01297-.24093-.00019-.55224.07407-.71035-.04554-.62115-.46989-1.19985-.16425-1.82046-.03584-1.13614.23508-2.24966.11059-3.33232-.34579-.21475-.09052-.56615-.06841-.76616.05044-1.91819,1.1399-4.18034.54708-5.12422-1.37181-.92558-1.88167-.03676-4.00124,2.02674-4.83636.08702-.03522.16821-.08485.3348-.17007ZM5.55542,29.79241c-1.11517.27228-1.83317,1.01991-1.96397,2.0094-.13934,1.05416.30983,1.99975,1.19754,2.521.90439.53105,2.01445.47074,2.82595-.26168.47177-.4258.8354-.38746,1.34596-.10083,1.06078.59552,2.19949.64285,3.3676.32719.48678-.13154.68294-.36836.6764-.91402-.03274-2.72835-.01439-5.4573-.01525-8.18604-.00034-1.06271-.0746-1.14656-1.23941-1.34603-.11336.34503-.27825.69535-.3374,1.06271-.08727.54191-.35532.77203-.90138.83893-.53316.06532-1.05077.25747-1.63478.40944.32039.84733.60887,1.55904.85836,2.28417.26219.76206.54591,1.47006,1.40141,1.7844.27427.10077.48757.3856.7096.60557.25457.2522.49029.59768.10265.84308-.17816.11278-.5803-.04457-.84224-.16408-.66481-.30332-1.27767-.83321-1.96581-.9492-1.43092-.24117-2.52638.41993-3.21523,1.70472-.18749.3497-.42947.69354-.81573.39609-.16038-.1235-.14335-.59447-.07039-.87146.07583-.28788.27181-.58139.49491-.7853.43936-.40155.38035-.76733.02123-1.20807ZM26.64105,35.33876c2.76751-.00534,5.01731-2.23915,5.03509-4.99929.0179-2.7791-2.26162-5.05269-5.06031-5.04713-2.76625.0055-5.02078,2.24506-5.03348,5.00007-.01283,2.78288,2.26158,5.05174,5.05871,5.04635ZM32.62958,29.31546c.25657,2.00459-.31389,3.6606-1.4521,5.22448.58332-.04167,1.1207-.12738,1.60702-.33351.39388-.16696.68376-.24968,1.04197.07361.51848.46795,1.12886.532,1.73484.16291.57659-.35119.79756-.88822.66242-1.54991-.14447-.70733-.62961-1.08217-1.31184-1.15082-.46599-.04689-.66028-.25467-.77819-.68902-.20304-.74796-.66291-1.31619-1.50412-1.73773ZM9.02778,29.35744c-.73032-1.36604-.77258-2.99885-2.19895-3.98408-.47387-.32731-.66523-1.06353-1.00241-1.64136-.11754.07873-.34118.19219-.32972.22606.65384,1.93091-.13032,4.20019,1.39772,5.85421.64952-.13848,1.32456-.28239,2.13335-.45483ZM6.27724,22.4645c-.03342-.09098-.06685-.18195-.10027-.27293-.66585.24955-1.3317.49909-1.99755.74864.03475.09419.0695.18837.10424.28256.66453-.25276,1.32905-.50551,1.99358-.75827Z"/><path class="cls-2" d="M11.52625,11.49074c0,1.33065.00014,2.65048-.00009,3.97031-.00007.36214.06823.74336-.02428,1.0803-.07198.26219-.34492.46921-.52854.70075-.1578-.22846-.44515-.453-.45221-.68602-.0431-1.42315-.0226-2.84824-.02326-4.27268-.00012-.26057-.00002-.52114-.00002-.76142-1.15708-.29005-1.35275-.50647-1.51338-1.61787-.0897-.62065-.1744-1.24202-.26163-1.86303-.13279-.94533.36268-1.53865,1.31282-1.56953.14473-.0047.29366-.02296.43392.00233.60353.1088.88646-.16811,1.10127-.72328.50741-1.31135.68564-1.39888,2.09521-1.3995.91753-.0004,1.8376-.03638,2.75096.02564.25132.01706.4826.32903.72308.50568-.24786.16579-.48728.45728-.7451.47458-.88941.05968-1.78976.07937-2.67729.00754-.79257-.06415-1.15049.26677-1.26883,1.05211h15.39449c-.06452-.91063-.18983-1.03456-1.09009-1.03505-2.41457-.00132-4.82914-.00001-7.24371-.00135-.217-.00012-.4581.04494-.64427-.03404-.18889-.08014-.474-.32149-.44928-.4328.04542-.20454.25934-.41297.45648-.52887.14596-.08581.37661-.03268.56954-.03277,2.46286-.00118,4.92615.02556,7.38838-.0139.97376-.01561,1.67112.28566,1.90859,1.26408.18649.76838.64312.91475,1.36316.88492,1.25428-.05195,1.67591.49116,1.49593,1.75788-.08144.57315-.14251,1.14942-.23423,1.72084-.17618,1.09755-.36404,1.29124-1.50275,1.54059,0,1.44584.01166,2.91263-.00736,4.37902-.00545.42035.1982,1.08058-.4784,1.08768-.72304.00759-.52738-.67517-.5331-1.12025-.01854-1.4439-.00693-2.88819-.00693-4.37844h-4.88857c-.01144.25984-.03213.51574-.03249.77167-.00281,2.02802.00464,4.05607-.00408,6.08406-.00611,1.42082-.84515,2.35596-2.08547,2.35249-1.22388-.00342-2.08679-.95683-2.10841-2.36515-.01779-1.1586.00291-2.31775-.00735-3.47653-.00645-.72898-.36388-1.16153-.93316-1.1118-.66156.0578-.88103.49738-.87274,1.10763.0036.26477.0013.53284-.03476.79439-.16079,1.16635-1.05416,1.92191-2.19091,1.8681-1.06181-.05026-1.92278-.91144-1.95409-2.04071-.03605-1.30052-.00838-2.60281-.00838-3.96758h-2.18868ZM9.70828,7.5462c.09651.72446.22576,1.38475.26128,2.05005.0343.64247.28807.8258.93723.82302,6.18183-.0265,12.36382-.01581,18.54576-.01582.25769,0,.51538,0,.81042,0,.13695-1.00535.26157-1.92016.38922-2.85725H9.70828ZM14.73881,11.45995c0,1.38156-.02083,2.68416.00917,3.98559.01408.61096.38615.99371,1.00549,1.02317.62378.02966.98985-.32626,1.09258-.93193.03998-.2357.02455-.48101.03157-.72203.03801-1.30378.80799-2.13206,1.96695-2.11475,1.1227.01678,1.87342.84175,1.89089,2.11199.01561,1.13456-.00187,2.26955.00633,3.40426.00662.91631.39686,1.43115,1.07098,1.44265.68019.01161,1.07243-.49551,1.07396-1.40889.00345-2.05224.00265-4.1045-.00116-6.15675-.00038-.20671-.03314-.41335-.05202-.63331h-8.09476Z"/><path class="cls-2" d="M7.26041,15.44442c.37891-.22248.58278-.43656.77358-.4255.16396.00951.46445.31747.43639.42031-.0546.20016-.28164.46086-.46629.48638-.16955.02342-.37729-.22948-.74368-.48119Z"/><path class="cls-2" d="M33.08803,20.69069c-.33874.26157-.53812.53281-.70954.51616-.18536-.018-.42723-.28208-.48264-.48337-.03071-.11156.261-.43366.42247-.44494.19413-.01356.40429.20246.76971.41215Z"/><path class="cls-2" d="M34.89976,22.49194c-.35002.25-.53209.47851-.72129.48457-.15631.00502-.46596-.27287-.44983-.38989.02771-.2011.23141-.48775.4078-.52648.16359-.03592.38807.20541.76332.43179Z"/><path class="cls-2" d="M23.44271,30.34571c-.01335-1.75301,1.38056-3.18062,3.13754-3.21341,1.76849-.033,3.24454,1.41968,3.24091,3.18959-.00358,1.74093-1.43426,3.17105-3.18085,3.17961-1.74546.00855-3.18432-1.41149-3.1976-3.15578ZM26.6645,28.16382c-1.20263-.01787-2.18149.92359-2.20048,2.11642-.01899,1.19276.93136,2.17058,2.1291,2.19066,1.19382.02001,2.18405-.93183,2.20483-2.11937.02078-1.18742-.93737-2.16994-2.13346-2.18771Z"/></svg>