<?xml version="1.0" encoding="UTF-8"?><svg id="Layer_1" xmlns="http://www.w3.org/2000/svg" viewBox="0 0 40 40"><defs><style>.cls-1{fill:none;}.cls-1,.cls-2{stroke-width:0px;}.cls-2{fill:#fff;}</style></defs><rect class="cls-1" width="40" height="40"/><path class="cls-2" d="M9.70384,7.05185c0-1.35789-.00433-2.66691.00163-3.97589.00356-.78367.19666-.98119.97351-.98263,2.57329-.00479,5.1466-.00516,7.71988.00037.72344.00155.95192.22599.95816.94161.01021,1.17198.01036,2.34418-.0017,3.51612-.00338.32817.04038.53072.41994.65418,1.19907.39002,1.77463,1.28872,1.93949,2.51179.27848,2.0659.58436,4.1281.88383,6.22771.53747-.23484,1.03243-.45111,1.58177-.69114,0-.99748-.00427-2.02828.00136-3.05902.00446-.81591.1913-.99743,1.02557-1.00052,1.17175-.00434,2.34356-.00613,3.51529.00076.75736.00445.97037.22178.97585.99425.00733,1.03253.00181,2.06515.00181,3.12454,1.6279.35204,2.30216,1.44408,2.53876,2.98254.22644,1.47243.58673,2.92424.88652,4.38546.02767.13488.04008.27282.06504.40834.0829.45023-.05861.80018-.52284.8952-.47303.09682-.73235-.19647-.82331-.63135-.25838-1.23538-.50356-2.47352-.75552-3.71025-.12368-.60706-.22982-1.21873-.38187-1.81869-.18335-.72347-.64422-1.0976-1.38256-1.10519-1.58517-.01628-3.17085-.02172-4.75586.0005-1.10419.01548-1.71665.9703-1.52863,2.29075.71849,5.04596,1.44421,10.09096,2.13106,15.14124.08054.59218-.06322,1.21488-.1054,1.86008,2.51544,0,5.10937.0192,7.70274-.01033.91752-.01044,1.46327-.79574,1.27995-1.7293-.26972-1.37362-.5543-2.74431-.83143-4.11648-.0318-.15746-.05253-.31718-.08506-.47447-.09763-.47196.02186-.85563.53137-.94679.52047-.09312.73533.27152.83122.71723.09169.42621.17138.85499.25647,1.28262.21498,1.08045.4381,2.15935.64326,3.24166.36456,1.92323-.86486,3.41809-2.83499,3.42019-6.93871.00742-13.87742.003-20.81613.00304-1.67724,0-3.35454.00876-5.0317-.00257-1.93276-.01305-3.11967-1.45539-2.84354-3.37566.99671-6.93127,1.97709-13.86488,2.96442-20.79749.18129-1.27292.34401-2.54904.55574-3.81692.21228-1.27114,1.03351-2.00343,2.31592-2.35547ZM6.70636,23.98008c-.11984.8453-.18847,1.62011-.35236,2.37421-.09518.43793.06681.60791.41049.79079,2.24666,1.19549,4.48447,2.40762,6.72535,3.61398,3.0282,1.63021,6.05336,3.26615,9.09181,4.87703.21024.11146.60196.14854.76934.02715.79528-.57678.62649-2.37773-.2355-2.84266-3.51135-1.89388-7.02453-3.78439-10.5369-5.67637-1.93417-1.04187-3.86808-2.08422-5.87222-3.16413ZM23.40901,31.39998c-.15703-1.06878-.25717-1.981-.4424-2.87558-.05833-.28169-.2875-.62158-.53547-.75654-4.83391-2.63089-9.68194-5.23583-14.52856-7.84332-.16908-.09096-.35351-.15335-.57826-.24933-.11843.78305-.20652,1.48678-.33655,2.18268-.08711.46622.02447.73167.47986.97295,3.5053,1.85715,6.99251,3.74846,10.48518,5.62946,1.77308.9549,3.54584,1.9104,5.45621,2.93969ZM7.94665,15.28937c-.11141.79023-.16473,1.52624-.33197,2.23535-.12205.51749.07158.7238.48941.9472,4.46978,2.38986,8.93001,4.79759,13.39307,7.20002.35904.19327.71967.38359,1.17926.62839-.14432-.99624-.30317-1.87367-.38614-2.75822-.04137-.4411-.20265-.68984-.5942-.89902-4.38986-2.34524-8.76991-4.70885-13.15341-7.06601-.17619-.09475-.36044-.17451-.59602-.28772ZM21.93057,21.17576c-.13013-.95953-.27388-1.81204-.35134-2.67054-.04446-.49275-.25862-.76277-.69191-.99387-3.88767-2.07349-7.76254-4.171-11.64211-6.25971-.19469-.10482-.39801-.19358-.66725-.32359-.11976.7833-.20614,1.5076-.34802,2.22086-.09645.48488.06127.73088.49883.96407,4.19205,2.23408,8.37049,4.49372,12.55353,6.74472.17593.09467.35876.17651.64828.31806ZM11.12218,7.02086h6.80592v-3.51099h-6.80592v3.51099ZM13.56299,32.37638c-.8708-.47186-1.62671-.85442-2.35333-1.28629-.38011-.22592-.68021-.22743-1.07096-.00763-1.39721.78593-2.796,1.57488-4.23693,2.27463-.66334.32214-.7339.8249-.69672,1.39714.03911.60202.39766,1.02676.98225,1.19334.22778.06491.5363.09348.73053-.00875,2.18613-1.15064,4.35716-2.32999,6.64515-3.56245ZM13.18666,11.79537c.94134.50847,1.76003.97035,2.60062,1.38814.16783.08341.45543.06843.62642-.01997,1.26367-.65332,2.51503-1.33086,3.75995-2.01944.12971-.07175.28324-.2747.26991-.40023-.05302-.49939-.09666-1.02073-.28029-1.47924-.17394-.43434-.50631-.93348-1.096-.62653-1.9309,1.00506-3.83799,2.0559-5.88061,3.15728ZM20.25236,35.98015c-1.78396-.96404-3.3809-1.84146-4.99838-2.6792-.1654-.08567-.48189.01287-.68076.11684-1.38098.72201-2.75014,1.46667-4.12081,2.20828-.1624.08787-.31098.20127-.54417.35408h10.34413ZM8.82374,9.44211c.90388.49077,1.77661.98577,2.67371,1.43174.15658.07784.44239.00096.62307-.09243,1.0387-.53693,2.06406-1.09971,3.09316-1.65518.34375-.18554.68518-.37537,1.02767-.56324-2.08156-.12134-4.10038-.13192-6.11897-.11505-.62513.00522-1.0758.31121-1.29863.99415ZM25.59825,15.28249h2.68202v-2.65883h-2.68202v2.65883ZM20.69833,12.44747c-1.07307.57916-2.07149,1.11802-3.15189,1.70113,1.25925.67704,2.39864,1.28964,3.67042,1.97342-.18206-1.29017-.3429-2.42995-.51853-3.67455ZM9.20627,30.02481c-1.07452-.57778-2.05434-1.10464-3.1276-1.68174-.17611,1.24964-.3352,2.37849-.51303,3.64032,1.27089-.68371,2.39803-1.29009,3.64063-1.95858Z"/><path class="cls-2" d="M32.94015,27.14565c-.15966-.27713-.46198-.56834-.43645-.8272.0228-.23113.45132-.62826.62271-.59116.26771.05795.62802.40502.65316.65892.02363.23869-.33605.51534-.52708.7753-.10411-.00528-.20822-.01057-.31234-.01585Z"/></svg>