<?xml version="1.0" encoding="UTF-8"?><svg id="Layer_1" xmlns="http://www.w3.org/2000/svg" viewBox="0 0 40 40"><defs><style>.cls-1{fill:none;}.cls-1,.cls-2{stroke-width:0px;}.cls-2{fill:#fff;}</style></defs><rect class="cls-1" width="40" height="40"/><path class="cls-2" d="M9.5779,34.57944c-.02188.26054-.04138.40626-.04528.55241-.04691,1.75584-.82665,2.31821-2.5611,1.77653-.24146-.07541-.4746-.43118-.55518-.70348-.09835-.33236-.05708-.71559-.03012-1.07334.04341-.57592-.08965-.98492-.6207-1.35443-.97766-.68028-1.36062-1.72346-1.36153-2.89819-.00426-5.46438-.02037-10.92886.00649-16.39311.01107-2.25178,1.41799-3.63167,3.65059-3.70795.2073-.00708.4143-.02311.76277-.04309,0-.5098-.00006-1.00649.00001-1.50317.00023-1.50121.00876-3.00248-.0032-4.50359-.00496-.62277.23783-.96128.895-.95894,1.86082.00663,3.7217.00808,5.5825-.00048.7255-.00334.91661.41567.91424,1.04612-.00732,1.9468-.00267,3.89365-.00267,5.97215.39109,0,.71021-.01358,1.02786.00224,1.85866.09257,3.28435,1.49511,3.33104,3.35578.04518,1.80034-.00115,3.60289.03359,5.40368.00559.28954.22462.57497.34498.8623.13912-.26996.39843-.53985.3986-.8099.00153-2.45-.00313-2.13753,2.24928-2.14967,1.35057-.00729,2.70215.02951,4.05148-.01212.83592-.02579,1.13998.34393,1.10598,1.13112-.02448.56686-.00477,1.13564-.00477,1.80615.34518.01933.63249.04778.91996.04936,1.17049.00645,2.3421-.02695,3.5113.01295,2.01078.06863,3.43217,1.32662,3.47899,3.28073.07979,3.33042.0835,6.6658-.00352,9.99588-.05121,1.95972-1.52282,3.2327-3.50146,3.23695-5.40228.01162-10.80461.00199-16.20691.00529-1.42435.00087-2.44774-.64155-3.16723-1.85824-.13667-.23112-.45753-.48523-.70419-.4967-1.13419-.05274-2.2722-.02323-3.4968-.02323ZM13.41482,33.08615c0-.39023-.00001-.7131,0-1.03596.00011-2.5817-.03005-5.16399.02033-7.7447.01363-.69846.08113-1.52909.4609-2.05599.57136-.79272.59313-1.58889.58743-2.45599-.00849-1.29079-.00222-2.58168-.00213-3.87253.00001-.18012.00193-.36024.00081-.54035-.00321-.51804.08632-1.02479.71982-1.04112.64891-.01673.7336.4872.73114,1.00877-.0041.87055-.00029,1.74114-.00009,2.61171.0002.83259.00004,1.66519.00004,2.4446h3.20429c0-2.00859.00843-3.92289-.00263-5.83708-.00907-1.57015-.75646-2.3305-2.31243-2.3369-2.85056-.01172-5.70122-.00952-8.5518-.00128-1.64602.00476-2.40432.76759-2.41457,2.43717-.01309,2.13132-.00351,4.26278-.00344,6.39419.0001,3.21211-.00662,6.42425.00398,9.63633.00446,1.35177.59657,2.2931,1.72711,2.35881,1.90406.11067,3.81921.03033,5.83123.03033ZM31.17486,21.93949h-12.42735v13.50264h12.42735v-13.50264ZM32.76876,22.00762v13.46353c1.66882.06567,2.44812-.64784,2.47054-2.20763.01939-1.34832.00512-2.69714.00488-4.04574-.00031-1.73819.02766-3.47703-.011-5.21438-.03396-1.52609-1.04459-2.30925-2.46442-1.99577ZM17.15701,35.44483v-13.48893c-1.41585-.04952-2.2498.6046-2.26671,1.89497-.04248,3.2399-.04268,6.48117.00289,9.721.01814,1.28935.88738,1.9599,2.26382,1.87295ZM14.69708,10.72563v-5.45618h-4.37882v5.45618h4.37882ZM27.24559,18.96951h-4.35901v1.39527h4.35901v-1.39527Z"/><path class="cls-2" d="M9.05366,22.70587c.00004-2.34129-.00125-4.68257.00179-7.02386.00035-.26918-.06337-.59288.06068-.79348.15063-.24358.47407-.53253.71352-.52455.22437.00747.49418.34478.63521.59765.10345.18549.03622.46913.03627.70902.00105,4.65256.00091,9.30511.00047,13.95767-.00002.21007.06778.46249-.02408.62084-.16061.27686-.4208.49591-.63927.73919-.25718-.2396-.57889-.44129-.74944-.73179-.11897-.20265-.0345-.52699-.03462-.79697-.00102-2.25124-.00058-4.50248-.00054-6.75371Z"/></svg>