<svg id="builder" xmlns="http://www.w3.org/2000/svg" width="60" height="60" viewBox="0 0 60 60">
  <rect id="Rectangle_13" data-name="Rectangle 13" width="60" height="60" rx="16" fill="#edbaff"/>
  <g id="b" transform="translate(6 5)" opacity="0.7">
    <path id="Path_72" data-name="Path 72" d="M39.667,12.667H35.333V10.333A.333.333,0,0,0,35,10H30.333a.333.333,0,0,0-.333.333v2.333H18V10.333A.333.333,0,0,0,17.667,10H13a.333.333,0,0,0-.333.333v2.333H8.333A.333.333,0,0,0,8,13V27.667A.333.333,0,0,0,8.333,28h4.333v5.333h-.993a.333.333,0,0,0-.293.174c-.687,1.261-.743,3.488-.707,5.5a.334.334,0,0,0,.333.327h8.66A.334.334,0,0,0,20,39.006c.036-2.011-.02-4.238-.707-5.5A.333.333,0,0,0,19,33.333H18V28H30v5.333h-.992a.333.333,0,0,0-.293.174c-.687,1.261-.743,3.488-.707,5.5a.334.334,0,0,0,.333.327H37a.334.334,0,0,0,.333-.327c.036-2.011-.02-4.238-.707-5.5a.333.333,0,0,0-.293-.174h-1V28h4.333A.333.333,0,0,0,40,27.667V13a.333.333,0,0,0-.333-.333Zm-.333.667v1.333H8.667V13.333Zm-23.8,2H22.1l-4.675,10H10.856Zm14.609,0h6.568l-4.675,10H25.465l4.675-10Zm-10.8,23.333h-8A12.708,12.708,0,0,1,11.88,34h6.914a12.7,12.7,0,0,1,.544,4.667Zm17.334,0h-8A12.7,12.7,0,0,1,29.214,34h6.914a12.7,12.7,0,0,1,.544,4.667ZM8.667,27.333V26H39.333v1.333Z"/>
  </g>
</svg>
