<svg id="healtth" xmlns="http://www.w3.org/2000/svg" width="60" height="60" viewBox="0 0 60 60">
  <rect id="Rectangle_17" data-name="Rectangle 17" width="60" height="60" rx="16" fill="#efffad"/>
  <path id="Path_66" data-name="Path 66" d="M33.455,11.854A7.913,7.913,0,0,0,19.947,6.281L17.662,8.51,15.377,6.281A7.9,7.9,0,1,0,4.231,17.427l.992.992H3.173a1.232,1.232,0,0,0,0,2.463H7.631L16.8,30.066a1.215,1.215,0,0,0,1.728,0l9.162-9.184h4.458a1.226,1.226,0,1,0,0-2.441H30.145l.992-.992A7.8,7.8,0,0,0,33.455,11.854Zm-15.793,15.6-6.6-6.6a1.215,1.215,0,0,0,.892-.479l2.073-2.764,2.519,5.863a1.215,1.215,0,0,0,.892.713h.234a1.215,1.215,0,0,0,.858-.357l4.7-4.681,1.371,1.371h0ZM29.409,15.722,26.69,18.43h-.724l-1.872-1.872a1.226,1.226,0,0,0-1.728,0l-4.3,4.3-2.63-6.141a1.215,1.215,0,0,0-2.1-.256L10.361,18.43H8.634l-2.72-2.708a5.469,5.469,0,0,1,7.735-7.735L16.8,11.141a1.226,1.226,0,0,0,1.728,0l3.143-3.154a5.469,5.469,0,1,1,7.735,7.735Z" transform="translate(12.506 13.015)" opacity="0.7"/>
</svg>
