<svg id="hrd" xmlns="http://www.w3.org/2000/svg" width="60" height="60" viewBox="0 0 60 60">
  <rect id="Rectangle_27" data-name="Rectangle 27" width="60" height="60" rx="16" fill="#edbaff"/>
  <path id="Path_71" data-name="Path 71" d="M16.027,7.012a3.506,3.506,0,1,0,0-7.012,3.558,3.558,0,0,0-3.562,3.506A3.558,3.558,0,0,0,16.027,7.012Zm8.959,21.036H6.956A2.994,2.994,0,0,0,3.95,31a1.1,1.1,0,0,0,1.057,1.058H27.045a1,1,0,0,0,1-1A3.053,3.053,0,0,0,24.986,28.047ZM32,12.358a1,1,0,0,0-.444-.83l-1.728-1a.951.951,0,0,0-.532-.164c-1.078,0-1.089,1.651-3.251,1.651a3.078,3.078,0,0,1-3-3.17.922.922,0,0,0-.84-.834H19.774a.816.816,0,0,0-.806.618,3.041,3.041,0,0,1-5.939,0,.713.713,0,0,0-.751-.619H9.851a.852.852,0,0,0-.892.839,3.121,3.121,0,0,1-3,3.169c-2.165,0-2.183-1.652-3.247-1.652a.92.92,0,0,0-.528.166l-1.792,1A1.078,1.078,0,0,0,0,12.358a.986.986,0,0,0,.108.451L6.524,26.044h19l6.417-13.235A.927.927,0,0,0,32,12.358Z" transform="translate(14 13.974)" opacity="0.7"/>
</svg>
