<svg id="industrial" xmlns="http://www.w3.org/2000/svg" width="60" height="60" viewBox="0 0 60 60">
  <rect id="Rectangle_10" data-name="Rectangle 10" width="60" height="60" rx="16" fill="#6decc7"/>
  <path id="Path_51" data-name="Path 51" d="M44.733,46.4H42.2V35h0v-.079a.127.127,0,0,0-.016-.063h0L39.809,18.2a2.533,2.533,0,0,0-2.5-2.2H34.426a2.533,2.533,0,0,0-2.5,2.169L30.087,30.994,23.96,26.387A1.267,1.267,0,0,0,21.933,27.4v5.067l-8.107-6.08A1.267,1.267,0,0,0,11.8,27.4v19H9.267a1.267,1.267,0,1,0,0,2.533H44.733a1.267,1.267,0,1,0,0-2.533ZM22.567,42.6H18.133a1.267,1.267,0,1,1,0-2.533h4.433a1.267,1.267,0,1,1,0,2.533Zm13.3,0H31.433a1.267,1.267,0,1,1,0-2.533h4.433a1.267,1.267,0,1,1,0,2.533Zm-2.106-8.867L32.4,32.72l2.027-14.187h2.882l2.169,15.2Z" transform="translate(3 -2.466)" opacity="0.698"/>
</svg>
