<svg id="legal" xmlns="http://www.w3.org/2000/svg" width="60" height="60" viewBox="0 0 60 60">
  <rect id="Rectangle_26" data-name="Rectangle 26" width="60" height="60" rx="16" fill="#c6ffb5"/>
  <g id="Layer_x0020_1" transform="translate(14 16.305)" opacity="0.7">
    <g id="_306073600">
      <path id="_306267792" d="M9.286,1.945,13.98,6.638a1.6,1.6,0,0,1,.169.2,2.759,2.759,0,0,0-.768.542L8.226,12.535a2.759,2.759,0,0,0-.542.767,1.6,1.6,0,0,1-.2-.169h0L2.791,8.44a1.6,1.6,0,0,1-.169-.2A2.759,2.759,0,0,0,3.39,7.7L8.546,2.543a2.759,2.759,0,0,0,.542-.768,1.6,1.6,0,0,1,.2.169Z" transform="translate(8.434 1.685)"/>
      <path id="_306268176" d="M2.732,10.253h0a2.276,2.276,0,0,1,0-3.212L7.887,1.885a2.276,2.276,0,0,1,3.212,0h0a2.276,2.276,0,0,1,0,3.212L5.944,10.253a2.276,2.276,0,0,1-3.212,0Z" transform="translate(5.527 -1.222)"/>
      <path id="_306268320" d="M5.738,12.317a2.264,2.264,0,0,1-1.6-.658l-.005-.005h0a2.276,2.276,0,0,1,0-3.212L9.288,3.286a2.276,2.276,0,0,1,3.2-.011l.023.023A2.276,2.276,0,0,1,12.5,6.5h0L7.344,11.653h0a2.264,2.264,0,0,1-1.606.663Z" transform="translate(12.881 6.132)"/>
      <path id="_306270120" d="M8.559,5.577,4.791,9.344h0a.5.5,0,0,1-.707,0l0,0-1.8-1.8h0a.5.5,0,0,1,0-.707l0,0L6.052,3.07,8.559,5.577Z" transform="translate(5.892 8.48)"/>
      <path id="_306074704" d="M9.591,4.042l2.091,2.091a1.6,1.6,0,0,1,0,2.263L5.676,14.4a1.6,1.6,0,0,1-2.263,0L1.321,12.312a1.6,1.6,0,0,1-.466-1.132h0a1.6,1.6,0,0,1,.467-1.132L7.328,4.042a1.6,1.6,0,0,1,2.263,0Z" transform="translate(-0.853 11.13)"/>
      <path id="_306074248" d="M3.942,4.981H18.764a.5.5,0,0,1,.5.5v2.9a.5.5,0,0,1-.5.5H3.942a.5.5,0,0,1-.5-.5v-2.9a.5.5,0,0,1,.5-.5Z" transform="translate(12.736 18.512)"/>
      <path id="_306074104" d="M3.852,6.915v-1.9a.5.5,0,0,1,.5-.5h9.7a.5.5,0,0,1,.5.5v1.9Z" transform="translate(14.889 16.078)"/>
    </g>
  </g>
</svg>
