<svg id="planning" xmlns="http://www.w3.org/2000/svg" width="60" height="60" viewBox="0 0 60 60">
  <rect id="Rectangle_16" data-name="Rectangle 16" width="60" height="60" rx="16" fill="#ffadad"/>
  <path id="Path_65" data-name="Path 65" d="M29,32H3a3,3,0,0,0-3,3V57a3,3,0,0,0,3,3H29a3,3,0,0,0,3-3V35A3,3,0,0,0,29,32Zm-.375,25H3.375A.375.375,0,0,1,3,56.625V35.375A.375.375,0,0,1,3.375,35h25.25a.375.375,0,0,1,.375.375v21.25A.375.375,0,0,1,28.625,57ZM26,51.25v1.5a.75.75,0,0,1-.75.75H12.75a.75.75,0,0,1-.75-.75v-1.5a.75.75,0,0,1,.75-.75h12.5A.75.75,0,0,1,26,51.25Zm0-6v1.5a.75.75,0,0,1-.75.75H12.75a.75.75,0,0,1-.75-.75v-1.5a.75.75,0,0,1,.75-.75h12.5A.75.75,0,0,1,26,45.25Zm0-6v1.5a.75.75,0,0,1-.75.75H12.75a.75.75,0,0,1-.75-.75v-1.5a.75.75,0,0,1,.75-.75h12.5A.75.75,0,0,1,26,39.25ZM10.25,40A2.25,2.25,0,1,1,8,37.75,2.25,2.25,0,0,1,10.25,40Zm0,6A2.25,2.25,0,1,1,8,43.75,2.25,2.25,0,0,1,10.25,46Zm0,6A2.25,2.25,0,1,1,8,49.75,2.25,2.25,0,0,1,10.25,52Z" transform="translate(14 -16)" opacity="0.7"/>
</svg>
