<svg id="projects" xmlns="http://www.w3.org/2000/svg" width="60" height="60" viewBox="0 0 60 60">
  <rect id="Rectangle_20" data-name="Rectangle 20" width="60" height="60" rx="16" fill="#b099be"/>
  <g id="Trello" transform="translate(6 6)" opacity="0.7">
    <path id="Layer_2-2" data-name="Layer 2-2" d="M36,8H12a4,4,0,0,0-4,4H8V36a4,4,0,0,0,4,4H36a4,4,0,0,0,4-4V12A4,4,0,0,0,36,8ZM21.933,32.24A1.907,1.907,0,0,1,20,34.133H14.107a1.907,1.907,0,0,1-1.92-1.893h0V14.08a1.92,1.92,0,0,1,1.92-1.92H20a1.92,1.92,0,0,1,1.907,1.92h0Zm13.933-8a1.933,1.933,0,0,1-1.92,1.92H28a1.92,1.92,0,0,1-1.92-1.92V14.08A1.907,1.907,0,0,1,28,12.16h5.933a1.933,1.933,0,0,1,1.92,1.92h0Z"/>
  </g>
</svg>
