<svg id="residential" xmlns="http://www.w3.org/2000/svg" width="60" height="60" viewBox="0 0 60 60">
  <rect id="Rectangle_11" data-name="Rectangle 11" width="60" height="60" rx="16" fill="#f26e5b"/>
  <g id="Group_136" data-name="Group 136" transform="translate(9.95 9)" opacity="0.7">
    <path id="Path_52" data-name="Path 52" d="M34.3,2h-19a3.8,3.8,0,0,0-3.8,3.8V16.413L2.557,25.357A1.9,1.9,0,0,0,3.9,28.6v9.5A1.9,1.9,0,0,0,5.8,40H36.2a1.9,1.9,0,0,0,1.9-1.9V5.8A3.8,3.8,0,0,0,34.3,2ZM19.1,36.2H7.7V25.587l5.7-5.7,5.7,5.7Zm15.2,0H22.9V28.6a1.9,1.9,0,0,0,1.343-3.243L15.3,16.413V5.8h19Z" transform="translate(0 0)"/>
    <path id="Path_53" data-name="Path 53" d="M14.6,6h3.8V9.8H14.6Zm7.6,0H26V9.8H22.2Zm0,7.659H26V17.4H22.2Zm0,7.541H26V25H22.2ZM7,23.1h3.8v3.8H7Z" transform="translate(4.5 3.6)"/>
  </g>
</svg>
