<svg id="ruralabadi" xmlns="http://www.w3.org/2000/svg" width="60" height="60" viewBox="0 0 60 60">
  <rect id="Rectangle_15" data-name="Rectangle 15" width="60" height="60" rx="16" fill="#c6ffb5"/>
  <path id="Path_62" data-name="Path 62" d="M37.094,11.636c-2.4-2-5.877-3.384-10.322-4.123a.946.946,0,0,0-.309,0C13.173,9.728,12.5,17.142,12.5,18.606c0,4.834,1.852,8.035,5.647,9.772v6.416a.941.941,0,0,0,.276.666l3.765,3.765a.941.941,0,0,0,.666.276h7.529a.941.941,0,0,0,.666-.276l3.765-3.765a.941.941,0,0,0,.276-.666V28.378c3.8-1.736,5.647-4.938,5.647-9.772A9.121,9.121,0,0,0,37.094,11.636ZM22.288,23.688a1.131,1.131,0,0,0,1.129-1.129h1.129v4.518h-.941a.941.941,0,0,0-.923.757l-.408,2.04-2.246-2.245V22.559h1.129A1.131,1.131,0,0,0,22.288,23.688ZM33.206,34.4l-3.214,3.214H23.243L20.029,34.4V30.29l2.158,2.158a.941.941,0,0,0,1.588-.481l.6-3.008h4.48l.6,3.008a.941.941,0,0,0,1.589.481l2.158-2.158Zm0-14.292v.565H28.877a.941.941,0,0,0,0,1.882h.941a1.129,1.129,0,0,0,2.259,0h1.129v5.069L30.96,29.873l-.408-2.04a.942.942,0,0,0-.923-.757h-3.2V21.618a.941.941,0,0,0-.941-.941H20.029v-.607a16.643,16.643,0,0,1,6.6-4.5,16.688,16.688,0,0,1,6.581,4.5Zm1.882,6.157C35.088,19.524,37.679,24.787,35.088,26.269Zm-7.718,3.819H25.865a.941.941,0,0,0,0,1.882h1.506a.941.941,0,0,0,0-1.882Z" transform="translate(3.382 6.5)" opacity="0.7"/>
</svg>
