<svg id="skill" xmlns="http://www.w3.org/2000/svg" width="60" height="60" viewBox="0 0 60 60">
  <rect id="Rectangle_19" data-name="Rectangle 19" width="60" height="60" rx="16" fill="#e5e5e5"/>
  <path id="Path_70" data-name="Path 70" d="M20.736,14a6.572,6.572,0,0,1,4.678,1.935l1.224,1.224a8.97,8.97,0,0,0,5.1-6.04,9.109,9.109,0,0,0,.013-4.275.908.908,0,0,0-1.521-.413l-4.306,4.306H21.2V6.073l4.306-4.306A.907.907,0,0,0,25.094.246a9.109,9.109,0,0,0-4.275.013,8.983,8.983,0,0,0-6.7,7.274,8.254,8.254,0,0,0-.1,1.526l5.173,5.178A4.758,4.758,0,0,1,20.736,14ZM24,17.409a4.637,4.637,0,0,0-5.336-.869L11.943,9.873V6L4,0,0,3.942l6,7.943H9.877l6.668,6.662a4.637,4.637,0,0,0,.869,5.336L24.726,31.2a2.335,2.335,0,0,0,3.294,0l3.3-3.3a2.335,2.335,0,0,0,0-3.294Zm-9.755,1.775-3.7-3.693L1.237,24.8A4.217,4.217,0,1,0,7.2,30.76l7.443-7.443A6.637,6.637,0,0,1,14.242,19.184ZM4,29.5A1.5,1.5,0,1,1,5.5,28,1.5,1.5,0,0,1,4,29.5Z" transform="translate(14 14.001)" opacity="0.7"/>
</svg>
