<svg id="urbansrvc" xmlns="http://www.w3.org/2000/svg" width="60" height="60" viewBox="0 0 60 60">
  <rect id="Rectangle_21" data-name="Rectangle 21" width="60" height="60" rx="16" fill="#e2648f"/>
  <g id="Group_145" data-name="Group 145" transform="translate(14 14)" opacity="0.7">
    <path id="Path_67" data-name="Path 67" d="M6.512,13.925a1.333,1.333,0,0,0,1.844-.4,7.6,7.6,0,0,0,.789-1.705,6.325,6.325,0,0,0,9.776,0,7.537,7.537,0,0,0,.789,1.705,1.333,1.333,0,0,0,2.241-1.445A6.1,6.1,0,0,1,21.1,8.731V7.067a7.067,7.067,0,1,0-14.133,0V8.731a6.087,6.087,0,0,1-.853,3.351,1.333,1.333,0,0,0,.4,1.844Zm7.521-2.459A3.717,3.717,0,0,1,10.316,7.92a1.334,1.334,0,0,0-.045-.187,7.624,7.624,0,0,0,3.763-2.348A7.624,7.624,0,0,0,17.8,7.733a1.2,1.2,0,0,0-.045.181A3.717,3.717,0,0,1,14.033,11.467Z" transform="translate(1.967)"/>
    <path id="Path_68" data-name="Path 68" d="M5.739,19H23.1a1,1,0,0,0,.933-1.359,10.283,10.283,0,0,0-19.229,0A1,1,0,0,0,5.739,19Z" transform="translate(1.58 3.668)"/>
    <path id="Path_69" data-name="Path 69" d="M30.667,18H1.333a1.333,1.333,0,0,0,0,2.667H2v4A1.333,1.333,0,0,0,3.333,26H28.667A1.333,1.333,0,0,0,30,24.667v-4h.667a1.333,1.333,0,0,0,0-2.667Z" transform="translate(0 6)"/>
  </g>
</svg>
